<?xml version="1.0" encoding="UTF-8" standalone="no"?><!DOCTYPE svg PUBLIC "-//W3C//DTD SVG 1.1//EN" "http://www.w3.org/Graphics/SVG/1.1/DTD/svg11.dtd"><svg width="100%" height="100%" viewBox="0 0 496 496" version="1.1" xmlns="http://www.w3.org/2000/svg" xmlns:xlink="http://www.w3.org/1999/xlink" xml:space="preserve" xmlns:serif="http://www.serif.com/" style="fill-rule:evenodd;clip-rule:evenodd;stroke-linejoin:round;stroke-miterlimit:2;"><path d="M0,477.4l496,0l0,-409.2l-99.2,0l-12.4,0l-1.277,0c-17.633,-30.281 -50.245,-49.6 -85.523,-49.6c-17.645,0 -34.584,4.96 -49.402,13.541c-14.656,-8.556 -31.632,-13.541 -49.798,-13.541c-36.617,0 -68.597,20.001 -85.783,49.6l-112.617,0l0,409.2Zm446.4,-384.4l24.8,0l0,334.8l-24.8,-18.6l0,-316.2Zm16.542,359.6l-57.884,0l28.942,-21.7l28.942,21.7Zm-66.142,-359.6l24.8,0l0,316.2l-24.8,18.6l0,-334.8Zm-99.2,-49.6c21.278,0 41.366,9.325 55.292,24.8l-68.709,0c-4.042,-6.956 -8.878,-13.392 -14.433,-19.158c8.742,-3.571 18.141,-5.642 27.85,-5.642Zm-49.501,19.183c1.959,1.773 3.832,3.645 5.605,5.617l-11.383,0c1.798,-2.009 3.769,-3.832 5.778,-5.617Zm-49.699,-19.183c9.982,0 19.493,2.009 28.21,5.592c-5.58,5.729 -10.441,12.165 -14.533,19.208l-68.981,0c13.64,-15.178 33.344,-24.8 55.304,-24.8Zm-173.6,409.2l0,-359.6l77.661,0c-2.058,7.948 -3.261,16.219 -3.261,24.8l0,24.8l24.8,0l0,-24.8c0,-8.705 1.587,-17.025 4.34,-24.8l140.12,0c2.753,7.775 4.34,16.095 4.34,24.8l0,24.8l24.8,0l0,-24.8c0,-8.581 -1.203,-16.852 -3.261,-24.8l77.661,0l0,359.6l-347.2,0Z" style="fill-rule:nonzero;"/></svg>