<?xml version="1.0" encoding="UTF-8" standalone="no"?><!DOCTYPE svg PUBLIC "-//W3C//DTD SVG 1.1//EN" "http://www.w3.org/Graphics/SVG/1.1/DTD/svg11.dtd"><svg width="100%" height="100%" viewBox="0 0 365 365" version="1.1" xmlns="http://www.w3.org/2000/svg" xmlns:xlink="http://www.w3.org/1999/xlink" xml:space="preserve" xmlns:serif="http://www.serif.com/" style="fill-rule:evenodd;clip-rule:evenodd;stroke-linejoin:round;stroke-miterlimit:2;"><path d="M167.743,206.508c-4.232,-2.714 -7.792,-6.555 -10.333,-11.157c-1.797,-3.256 -5.313,-4.963 -8.794,-4.606c-34.627,-1.104 -68.8,-3.95 -101.57,-8.458c-4.929,-0.675 -9.465,2.765 -10.143,7.689c-0.678,4.924 2.765,9.465 7.689,10.143c0.76,0.104 1.518,0.208 2.279,0.311c7.689,57.582 51.16,104.014 107.991,115.54l0,1.824c0,4.971 4.029,9 9,9c4.971,0 9,-4.029 9,-9l0,-102.938c0.002,-0.123 0.002,-0.245 -0.001,-0.368c-0.054,-3.52 -2.13,-6.55 -5.118,-7.98Zm-12.88,91.037c-46.026,-10.825 -81.292,-48.21 -89.426,-94.799c25.793,2.957 52.289,4.926 79.063,5.871c2.907,4.15 6.405,7.805 10.363,10.827l0,78.101Zm173.655,-107.775c-0.686,-4.923 -5.235,-8.356 -10.156,-7.671c-34.405,4.797 -70.109,7.931 -103.262,9.064c-0.351,0.006 -0.7,0.032 -1.046,0.078c-1.294,0.17 -2.499,0.613 -3.555,1.269c-1.055,0.652 -1.987,1.53 -2.716,2.61c-0.188,0.277 -0.361,0.566 -0.518,0.865c-2.103,3.812 -5.098,7.146 -8.677,9.657c-0.335,0.225 -0.655,0.472 -0.957,0.738c-0.765,0.674 -1.393,1.457 -1.875,2.309c-0.659,1.161 -1.067,2.483 -1.151,3.893c-0.014,0.223 -0.019,0.447 -0.016,0.671l0,104.542c0,4.971 4.029,9 9,9c4.971,0 9,-4.029 9,-9l0,-2.489c27.479,-6.239 51.985,-20.627 71.005,-41.717c18.616,-20.641 30.281,-45.86 33.91,-73.201c1.116,-0.152 2.231,-0.306 3.344,-0.461c4.922,-0.687 8.356,-5.234 7.67,-10.157Zm-115.931,106.998l0,-79.245c2.919,-2.517 5.527,-5.394 7.744,-8.54c25.398,-1 52.141,-3.128 78.589,-6.24c-7.959,44.984 -42.057,82.261 -86.333,94.025Zm-30.401,-296.768c-100.457,0 -182.186,81.728 -182.186,182.185c0,100.457 81.728,182.184 182.185,182.184c100.456,0 182.183,-81.728 182.183,-182.184c0.001,-100.457 -81.726,-182.185 -182.182,-182.185Zm0,346.369c-90.532,0 -164.186,-73.653 -164.186,-164.184c0,-90.532 73.654,-164.185 164.186,-164.185c90.531,0 164.183,73.653 164.183,164.185c0,90.531 -73.653,164.184 -164.183,164.184Zm24.894,-178.583c0.208,0.396 0.445,0.773 0.708,1.131c0.764,1.045 1.725,1.886 2.801,2.498c1.108,0.633 2.361,1.037 3.692,1.148c0.431,0.037 0.866,0.044 1.299,0.018c40.197,-1.529 75.106,-4.605 103.764,-9.145c4.909,-0.778 8.259,-5.388 7.481,-10.297c-0.778,-4.909 -5.384,-8.261 -10.297,-7.481c-0.88,0.139 -1.764,0.277 -2.657,0.414c-7.522,-27.419 -23.693,-52.158 -45.972,-70.151c-24.16,-19.512 -54.601,-30.258 -85.715,-30.258c-61.79,0 -115.539,41.168 -131.709,100.469c-0.772,-0.121 -1.545,-0.243 -2.315,-0.365c-4.905,-0.786 -9.522,2.563 -10.305,7.471c-0.783,4.909 2.562,9.522 7.471,10.305c32.668,5.208 67.192,8.5 102.611,9.784c0.111,0.004 0.221,0.006 0.332,0.006c0.878,0 1.728,-0.126 2.533,-0.363c2.485,-0.477 4.756,-1.994 6.114,-4.36c5.159,-8.989 14.937,-14.755 25.519,-15.048c10.135,-0.277 19.587,5.165 24.645,14.224Zm-25.143,-32.217c-14.989,0.415 -28.995,7.8 -37.706,19.601c-25.92,-1.064 -51.31,-3.228 -75.781,-6.452c14.736,-50.314 60.842,-85.055 113.736,-85.055c53.187,0 98.923,34.539 113.685,84.872c-22.307,2.719 -47.766,4.684 -76.014,5.862c-8.78,-12.144 -22.847,-19.248 -37.92,-18.828Z" style="fill-rule:nonzero;"/></svg>