<?xml version="1.0" standalone="no"?>
<!DOCTYPE svg PUBLIC "-//W3C//DTD SVG 1.1//EN" "http://www.w3.org/Graphics/SVG/1.1/DTD/svg11.dtd" >
<svg>
<metadata>
Created by FontForge 20120731 at Tue Aug 27 08:07:30 2019
 By www
Copyright (c) 2014 by Type Dynamic. All rights reserved.
</metadata>
<defs>
<font id="Sailec-Light" horiz-adv-x="246" >
  <font-face 
    font-family="Sailec-Light"
    font-weight="400"
    font-stretch="normal"
    units-per-em="1000"
    panose-1="0 0 4 0 0 0 0 0 0 0"
    ascent="748"
    descent="-252"
    x-height="506"
    cap-height="748"
    bbox="-205 -268 1194 1055"
    underline-thickness="50"
    underline-position="-50"
    unicode-range="U+000D-FB02"
  />
<missing-glyph horiz-adv-x="687" 
d="M88 0v748h510v-748h-510zM344 412l180 295h-360zM318 374l-186 301v-603zM555 76v596l-184 -298zM524 41l-180 295l-179 -295h359z" />
    <glyph glyph-name=".notdef" horiz-adv-x="687" 
d="M88 0v748h510v-748h-510zM344 412l180 295h-360zM318 374l-186 301v-603zM555 76v596l-184 -298zM524 41l-180 295l-179 -295h359z" />
    <glyph glyph-name=".null" horiz-adv-x="0" 
 />
    <glyph glyph-name="nonmarkingreturn" unicode="&#xd;" horiz-adv-x="600" 
 />
    <glyph glyph-name="NULL" horiz-adv-x="0" 
 />
    <glyph glyph-name="NULL" horiz-adv-x="0" 
 />
    <glyph glyph-name="space" unicode=" " horiz-adv-x="245" 
 />
    <glyph glyph-name="exclam" unicode="!" horiz-adv-x="257" 
d="M98 189l-3 559h65l-3 -559h-59zM128 79q19 0 32 -12.5t13 -31.5t-13 -31.5t-32 -12.5q-18 0 -31 12.5t-13 31.5t13 31.5t31 12.5z" />
    <glyph glyph-name="quotedbl" unicode="&#x22;" horiz-adv-x="288" 
d="M56 532l-9 204h66l-9 -204h-48zM183 532l-8 204h65l-8 -204h-49z" />
    <glyph glyph-name="numbersign" unicode="#" horiz-adv-x="619" 
d="M609 531l-11 -46h-129l-53 -222h137l-11 -46h-136l-52 -217h-50l52 217h-170l-51 -217h-50l52 217h-128l11 46h128l53 222h-136l11 46h136l52 217h49l-52 -217h170l52 217h49l-51 -217h128zM197 263h170l53 222h-170z" />
    <glyph glyph-name="dollar" unicode="$" horiz-adv-x="652" 
d="M598 199q0 -52 -19 -90t-52 -63.5t-77 -39t-95 -15.5v-109h-47v110q-51 3 -94.5 18.5t-76.5 41.5t-53 62.5t-23 82.5l60 4q3 -37 21 -66t47 -49.5t67 -31.5t82 -11q42 0 78.5 9t63.5 27.5t42.5 47t15.5 68.5t-15.5 65t-44 41.5t-69 27.5t-91.5 23q-50 12 -93.5 25.5
t-76 35t-51 55t-18.5 86.5q0 40 14 75.5t42.5 63t71.5 44.5t101 20v108h47v-109q46 -3 85 -18t67.5 -39.5t45.5 -59.5t20 -78l-59 -4q-6 71 -56.5 109.5t-130.5 38.5q-47 0 -82.5 -12t-59 -32t-35 -47t-11.5 -58q0 -40 15 -65t41.5 -41t63 -26.5t80.5 -20.5q62 -14 110 -29
t81 -37.5t50.5 -55.5t17.5 -82z" />
    <glyph glyph-name="percent" unicode="%" horiz-adv-x="813" 
d="M199 757q34 0 62.5 -12t49.5 -34t32.5 -54.5t11.5 -72.5t-11.5 -72t-32.5 -54.5t-49.5 -34.5t-62.5 -12q-33 0 -62 12t-50 34.5t-33 54.5t-12 72t12 72.5t33 54.5t50 34t62 12zM105 0l546 748h56l-546 -748h-56zM198 716q-48 0 -81 -34.5t-33 -97.5t33 -98t81 -35
q49 0 82 35t33 98t-32.5 97.5t-82.5 34.5zM613 337q34 0 62.5 -11.5t49.5 -34t33 -54.5t12 -72t-12 -72.5t-33 -55t-49.5 -34.5t-62.5 -12q-33 0 -61.5 12t-49.5 34.5t-33 55t-12 72.5t12 72t33 54.5t49.5 34t61.5 11.5zM613 297q-49 0 -81.5 -34.5t-32.5 -97.5t33 -98
t81 -35q49 0 81.5 35t32.5 98t-32.5 97.5t-81.5 34.5z" />
    <glyph glyph-name="ampersand" unicode="&#x26;" horiz-adv-x="685" 
d="M511 112q-50 -63 -109 -91.5t-125 -28.5q-56 0 -99.5 15.5t-73 43t-45 65t-15.5 82.5q0 79 38 132t99 94q-29 33 -47.5 70t-18.5 85q0 44 14 77t39 55.5t59.5 34t75.5 11.5q75 0 125.5 -41t60.5 -116l-58 -3q-7 52 -41 80.5t-87 28.5q-57 0 -93 -31.5t-36 -95.5
q0 -29 9.5 -53.5t26 -46.5t38.5 -43.5t48 -45.5l209 -193q43 73 75 188l52 -14q-18 -65 -40 -117t-48 -94l134 -124l-37 -45zM278 43q54 0 103 25.5t91 79.5l-217 203l-39 37q-51 -34 -81.5 -77t-30.5 -108q0 -72 46 -116t128 -44z" />
    <glyph glyph-name="quotesingle" unicode="'" horiz-adv-x="160" 
d="M56 532l-9 204h66l-9 -204h-48z" />
    <glyph glyph-name="parenleft" unicode="(" horiz-adv-x="234" 
d="M212 706q-23 -35 -44 -77.5t-36.5 -91t-24.5 -103.5t-9 -114t9 -113.5t24.5 -103.5t36.5 -91t44 -77l-49 -19q-24 36 -46 80.5t-38.5 95.5t-26.5 108.5t-10 119.5t10 119.5t26.5 108.5t38.5 95.5t46 80.5z" />
    <glyph glyph-name="parenright" unicode=")" horiz-adv-x="234" 
d="M70 724q25 -36 47 -80.5t38.5 -95.5t26.5 -108.5t10 -119.5t-10 -119.5t-26.5 -108.5t-38.5 -95.5t-47 -80.5l-48 19q23 35 44 77t36.5 91t24.5 103.5t9 113.5t-9 114t-24.5 103.5t-36.5 91t-44 77.5z" />
    <glyph glyph-name="asterisk" unicode="*" horiz-adv-x="315" 
d="M292 668l11 -32l-119 -38l74 -100l-28 -21l-73 102l-73 -103l-27 22l74 100l-119 38l10 32l119 -40v125h33l-1 -125z" />
    <glyph glyph-name="plus" unicode="+" horiz-adv-x="546" 
d="M511 395v-51h-211v-216h-55v216h-212v51h212v209h55v-209h211z" />
    <glyph glyph-name="comma" unicode="," horiz-adv-x="181" 
d="M91 78q20 0 30.5 -14t10.5 -37q0 -52 -21.5 -95.5t-70.5 -73.5v27q26 21 38.5 48.5t14.5 58.5h-1q-17 0 -30 12.5t-13 30.5t12 30.5t30 12.5z" />
    <glyph glyph-name="hyphen" unicode="-" horiz-adv-x="401" 
d="M45 235v53h311v-53h-311z" />
    <glyph glyph-name="period" unicode="." horiz-adv-x="184" 
d="M91 79q20 0 32.5 -12.5t12.5 -31.5t-12.5 -31.5t-32.5 -12.5q-18 0 -30.5 12.5t-12.5 31.5t12.5 31.5t30.5 12.5z" />
    <glyph glyph-name="slash" unicode="/" horiz-adv-x="337" 
d="M12 -67l256 815h57l-254 -815h-59z" />
    <glyph glyph-name="zero" unicode="0" horiz-adv-x="641" 
d="M321 757q60 0 108.5 -25t82 -74t52 -120t18.5 -164q0 -92 -18.5 -163.5t-52 -120.5t-82 -74t-108.5 -25t-108.5 25t-82.5 74t-52.5 120.5t-18.5 163.5q0 93 18.5 164t52.5 120t82.5 74t108.5 25zM320 704q-97 0 -149 -83.5t-52 -246.5t52 -246.5t149 -83.5t150 83.5
t53 246.5t-53 246.5t-150 83.5z" />
    <glyph glyph-name="one" unicode="1" horiz-adv-x="361" 
d="M204 0v665l-154 -122l-31 45l199 160h44v-748h-58z" />
    <glyph glyph-name="two" unicode="2" horiz-adv-x="533" 
d="M275 757q100 0 153 -56.5t53 -151.5q0 -48 -11 -88t-31.5 -76t-48.5 -70t-62 -69l-188 -193h352v-53h-432v47l224 232q34 35 60 66t43 62.5t26 65t9 74.5q0 70 -37.5 113.5t-109.5 43.5q-77 0 -117 -46t-42 -127l-59 3q2 105 58 164t160 59z" />
    <glyph glyph-name="three" unicode="3" horiz-adv-x="551" 
d="M273 757q96 0 151.5 -53t55.5 -145q0 -69 -34.5 -113t-82.5 -58q60 -12 99 -58t39 -124q0 -50 -16 -89.5t-45.5 -67.5t-71 -43t-92.5 -15q-106 0 -163.5 57.5t-66.5 157.5l59 3q9 -78 51 -121.5t120 -43.5t122 43.5t44 118.5q0 78 -48.5 116t-124.5 38h-72v53h71
q68 0 110 39.5t42 106.5q0 70 -40 107.5t-107 37.5q-69 0 -110 -41t-46 -115l-59 3q5 97 61 151.5t154 54.5z" />
    <glyph glyph-name="four" unicode="4" horiz-adv-x="592" 
d="M566 254v-53h-142v-201h-57v201h-341v48l350 499h48v-494h142zM367 254v388l-274 -388h274z" />
    <glyph glyph-name="five" unicode="5" horiz-adv-x="554" 
d="M283 451q48 0 88.5 -16t70 -45t45.5 -71.5t16 -94.5q0 -51 -15 -93.5t-44 -73.5t-71.5 -48.5t-96.5 -17.5q-104 0 -161.5 56.5t-66.5 154.5l59 3q9 -75 50.5 -118t118.5 -43q41 0 72.5 14t53 38t32.5 56.5t11 70.5q0 39 -12 71.5t-34 55.5t-53 35.5t-68 12.5
q-45 0 -80.5 -14t-67.5 -40h-55v404h400v-52h-342v-293q31 23 68 35.5t82 12.5z" />
    <glyph glyph-name="six" unicode="6" horiz-adv-x="584" 
d="M294 470q52 0 96.5 -17t77 -48.5t51 -76t18.5 -99.5t-18.5 -99t-51 -75t-77 -47.5t-96.5 -16.5t-96.5 16.5t-77.5 47.5t-51.5 75t-18.5 99q0 46 13 84t36 69l282 366h69l-218 -285q15 3 30 5t32 2zM294 44q39 0 72.5 13t58 37.5t38.5 59t14 77.5t-14 77.5t-38.5 58.5
t-58 37t-72.5 13q-46 0 -83 -16t-63 -48q-18 -23 -28 -53.5t-10 -68.5q0 -43 14 -77.5t38.5 -59t58 -37.5t73.5 -13z" />
    <glyph glyph-name="seven" unicode="7" horiz-adv-x="539" 
d="M136 0h-65l380 696h-426v52h492v-48z" />
    <glyph glyph-name="eight" unicode="8" horiz-adv-x="591" 
d="M295 757q46 0 85.5 -13t68.5 -38t46 -61.5t17 -82.5q0 -33 -9 -60.5t-24.5 -49t-36 -36.5t-42.5 -24q26 -9 49.5 -26t41 -41t28 -54.5t10.5 -67.5q0 -50 -18 -89t-49.5 -66.5t-74 -42t-92.5 -14.5t-92.5 14.5t-74 42t-49.5 66.5t-18 89q0 37 10 67.5t27.5 54.5t41 41
t50.5 26q-46 17 -79 60.5t-33 109.5q0 46 16.5 82.5t45.5 61.5t68.5 38t86.5 13zM296 704q-34 0 -63 -10t-50.5 -28.5t-33.5 -45.5t-12 -61q0 -33 12 -59.5t33.5 -45t50.5 -28.5t63 -10q33 0 61.5 10t50 28.5t33.5 45t12 59.5q0 34 -12 61t-33.5 45.5t-50 28.5t-61.5 10z
M295 363q-37 0 -69 -10.5t-55.5 -31t-37 -50t-13.5 -67.5q0 -37 13.5 -66.5t37 -50.5t55.5 -32t69 -11t69 11t55.5 32t37 50.5t13.5 66.5q0 38 -13.5 67.5t-37 50t-55.5 31t-69 10.5z" />
    <glyph glyph-name="nine" unicode="9" horiz-adv-x="584" 
d="M290 757q52 0 96.5 -16.5t77.5 -47.5t51.5 -75t18.5 -99q0 -46 -13 -84t-36 -69l-282 -366h-69l218 285q-15 -3 -30 -5t-32 -2q-52 0 -96.5 17t-77 48.5t-51 76t-18.5 99.5t18.5 99t51 75t77 47.5t96.5 16.5zM290 331q46 0 83 16t63 48q38 47 38 122q0 43 -14 77.5
t-38.5 59t-58 37.5t-73.5 13q-39 0 -72.5 -13t-58 -37.5t-38.5 -59t-14 -77.5q0 -44 14 -78.5t38.5 -58.5t58 -36.5t72.5 -12.5z" />
    <glyph glyph-name="colon" unicode=":" horiz-adv-x="184" 
d="M88 515q19 0 32 -13t13 -32q0 -18 -13 -31t-32 -13q-18 0 -30.5 13t-12.5 31q0 19 12.5 32t30.5 13zM88 79q19 0 32 -12.5t13 -31.5t-13 -31.5t-32 -12.5q-18 0 -30.5 12.5t-12.5 31.5t12.5 31.5t30.5 12.5z" />
    <glyph glyph-name="semicolon" unicode=";" horiz-adv-x="184" 
d="M88 426q-18 0 -30.5 13t-12.5 31q0 19 12.5 32t30.5 13q19 0 32 -13t13 -32q0 -18 -13 -31t-32 -13zM91 78q20 0 30.5 -14t10.5 -37q0 -52 -21.5 -95.5t-70.5 -73.5v27q26 21 38.5 48.5t14.5 58.5h-1q-17 0 -30 12.5t-13 30.5t12 30.5t30 12.5z" />
    <glyph glyph-name="less" unicode="&#x3c;" horiz-adv-x="508" 
d="M139 369l336 -152l-2 -62l-446 214l446 214l2 -62z" />
    <glyph glyph-name="equal" unicode="=" horiz-adv-x="546" 
d="M33 459v53h478v-53h-478zM33 222v53h478v-53h-478z" />
    <glyph glyph-name="greater" unicode="&#x3e;" horiz-adv-x="508" 
d="M35 155l-2 62l336 152l-336 152l2 62l446 -214z" />
    <glyph glyph-name="question" unicode="?" horiz-adv-x="485" 
d="M243 758q52 0 93 -16t69.5 -44t43 -66.5t14.5 -83.5q0 -34 -7.5 -59.5t-22 -46.5t-35 -39t-45.5 -36q-24 -18 -41 -35t-27 -34.5t-14.5 -37.5t-4.5 -45v-26h-59v29q0 27 5 49t16 42t29.5 39.5t45.5 40.5q23 16 41.5 32.5t31 35t19.5 40.5t7 50q0 33 -10.5 62t-30.5 50.5
t-49.5 33.5t-68.5 12q-76 0 -116.5 -38.5t-48.5 -104.5l-60 4q8 89 66.5 140.5t158.5 51.5zM235 79q19 0 32 -12.5t13 -31.5t-13 -31.5t-32 -12.5q-18 0 -31 12.5t-13 31.5t13 31.5t31 12.5z" />
    <glyph glyph-name="at" unicode="@" horiz-adv-x="799" 
d="M399 600q76 0 141 -27t113 -74.5t75 -112.5t27 -141q0 -96 -35.5 -147.5t-96.5 -51.5q-76 0 -87 71q-20 -33 -56.5 -53.5t-92.5 -20.5q-41 0 -75.5 14t-59.5 40.5t-38.5 65t-13.5 86.5q0 49 13.5 87.5t38.5 65t59.5 40.5t75.5 14q58 0 95 -22t54 -57v69h42v-298
q0 -64 54 -64q38 0 61 42t23 119q0 69 -24 127t-66.5 101t-100.5 67t-126 24q-69 0 -127 -24t-100.5 -67t-66 -101t-23.5 -127q0 -70 24 -128t66.5 -100t100 -65t124.5 -23q60 0 104.5 13.5t83.5 39.5l10 -36q-42 -26 -87.5 -40.5t-110.5 -14.5q-75 0 -139.5 26.5
t-112.5 73.5t-75 112t-27 142q0 76 26.5 141t74 112.5t113 74.5t142.5 27zM393 82q63 0 102 38t39 116v27q0 78 -39 115.5t-102 37.5q-65 0 -106.5 -42.5t-41.5 -124.5q0 -81 41.5 -124t106.5 -43z" />
    <glyph glyph-name="A" unicode="A" horiz-adv-x="707" 
d="M623 0l-88 217h-362l-89 -217h-65l309 748h51l309 -748h-65zM513 267l-159 390l-160 -390h319z" />
    <glyph glyph-name="B" unicode="B" horiz-adv-x="676" 
d="M360 748q47 0 87 -12t69 -36.5t45.5 -61t16.5 -84.5q0 -68 -25.5 -108t-59.5 -58q22 -8 43.5 -23t38 -38.5t26.5 -54.5t10 -70q0 -52 -17.5 -90t-48 -63t-71 -37t-86.5 -12h-290v748h262zM157 410h230q28 0 52 7.5t41.5 24t27.5 43.5t10 65q0 72 -46 109t-118 37h-197
v-286zM157 53h225q34 0 64.5 8.5t53.5 26.5t37 47t14 70q0 42 -14 71t-36.5 47.5t-51 26.5t-57.5 8h-235v-305z" />
    <glyph glyph-name="C" unicode="C" horiz-adv-x="799" 
d="M420 757q65 0 122.5 -19t101.5 -54t73 -85.5t37 -113.5l-61 -6q-7 53 -30.5 94.5t-60 70.5t-83.5 44.5t-101 15.5q-65 0 -119.5 -22t-94.5 -64.5t-62 -104t-22 -139.5q0 -80 23.5 -141.5t64 -103.5t95.5 -63.5t118 -21.5q53 0 99 14t81.5 41t59.5 66t33 89l61 -5
q-11 -60 -39.5 -108t-72 -81.5t-99.5 -51t-121 -17.5q-77 0 -143.5 25.5t-115.5 74.5t-76.5 120.5t-27.5 162.5t27 162.5t75 120.5t114 74.5t144 25.5z" />
    <glyph glyph-name="D" unicode="D" horiz-adv-x="797" 
d="M382 748q76 0 140.5 -25t112 -73t74.5 -117.5t27 -158.5t-27.5 -158.5t-75.5 -117.5t-113 -73t-140 -25h-282v748h284zM157 51h223q64 0 118 21t94 62t62.5 101.5t22.5 138.5t-22 138.5t-61.5 101.5t-93.5 62t-118 21h-225v-646z" />
    <glyph glyph-name="E" unicode="E" horiz-adv-x="588" 
d="M157 696v-282h350v-52h-350v-309h394v-53h-453v748h453v-52h-394z" />
    <glyph glyph-name="F" unicode="F" horiz-adv-x="580" 
d="M157 696v-289h332v-52h-332v-355h-59v748h454v-52h-395z" />
    <glyph glyph-name="G" unicode="G" horiz-adv-x="814" 
d="M757 344q0 -84 -24 -149.5t-68.5 -111t-107 -69t-139.5 -23.5q-76 0 -141.5 25.5t-113.5 74.5t-75.5 120.5t-27.5 162.5t27 162.5t75 120.5t113 74.5t142 25.5q64 0 121 -18t101.5 -52.5t74 -84t38.5 -113.5l-61 -10q-7 53 -30.5 94.5t-59.5 70.5t-83 44.5t-101 15.5
q-65 0 -119 -21.5t-94 -63.5t-62 -103.5t-22 -141.5t22.5 -141.5t62.5 -103.5t94.5 -63.5t117.5 -21.5q59 0 108.5 16.5t86 50t58 84t25.5 118.5h-274v53h336v-22z" />
    <glyph glyph-name="H" unicode="H" horiz-adv-x="748" 
d="M591 0v363h-434v-363h-59v748h59v-332h434v332h60v-748h-60z" />
    <glyph glyph-name="I" unicode="I" horiz-adv-x="255" 
d="M98 0v748h59v-748h-59z" />
    <glyph glyph-name="J" unicode="J" horiz-adv-x="561" 
d="M470 222q0 -112 -58 -171.5t-160 -59.5t-161.5 60t-64.5 163l59 9q5 -87 49.5 -133t117.5 -46q75 0 117 44.5t42 132.5v527h59v-526z" />
    <glyph glyph-name="K" unicode="K" horiz-adv-x="653" 
d="M632 0h-74l-311 379l-90 -97v-282h-59v748h59v-379l353 379h76l-300 -323z" />
    <glyph glyph-name="L" unicode="L" horiz-adv-x="591" 
d="M557 53v-53h-459v748h59v-695h400z" />
    <glyph glyph-name="M" unicode="M" horiz-adv-x="985" 
d="M828 0v612l-315 -609h-39l-317 609v-612h-59v748h50l345 -658l344 658h50v-748h-59z" />
    <glyph glyph-name="N" unicode="N" horiz-adv-x="743" 
d="M595 0l-438 637v-637h-59v748h49l438 -638v638h60v-748h-50z" />
    <glyph glyph-name="O" unicode="O" horiz-adv-x="861" 
d="M431 757q77 0 144.5 -26t117.5 -75.5t78.5 -120.5t28.5 -161t-28.5 -161t-78.5 -120.5t-117.5 -75.5t-144.5 -26q-78 0 -145.5 26t-117.5 75.5t-79 120.5t-29 161t29 161t79 120.5t117.5 75.5t145.5 26zM431 704q-65 0 -121.5 -22t-98.5 -64.5t-66 -104t-24 -139.5
t24 -139.5t66 -103.5t98.5 -64.5t121.5 -22.5q64 0 120.5 22.5t98.5 64.5t66 103.5t24 139.5t-24 139.5t-66 104t-98.5 64.5t-120.5 22z" />
    <glyph glyph-name="P" unicode="P" horiz-adv-x="640" 
d="M375 748q46 0 87 -13.5t71.5 -41t48 -68.5t17.5 -96t-17.5 -96t-48 -68.5t-71.5 -41t-87 -13.5h-218v-310h-59v748h277zM157 362h211q34 0 64.5 10t54 30.5t37.5 52t14 74.5t-14 74.5t-37.5 52t-54 30.5t-64.5 10h-211v-334z" />
    <glyph glyph-name="Q" unicode="Q" horiz-adv-x="863" 
d="M661 65q-47 -36 -105.5 -55t-124.5 -19q-78 0 -145.5 26t-117.5 75.5t-79 120.5t-29 161t29 161t79 120.5t117.5 75.5t145.5 26q77 0 144.5 -26t117.5 -75.5t78.5 -120.5t28.5 -161q0 -85 -25 -152.5t-70 -116.5l139 -138l-41 -43zM431 44q54 0 102.5 15.5t87.5 45.5
l-166 166l41 42l168 -167q35 42 55.5 99t20.5 129q0 78 -24 139.5t-66 104t-98.5 64.5t-120.5 22q-65 0 -121.5 -22t-98.5 -64.5t-66 -104t-24 -139.5t24 -139.5t66 -103.5t98.5 -64.5t121.5 -22.5z" />
    <glyph glyph-name="R" unicode="R" horiz-adv-x="675" 
d="M389 316l-18 -1h-214v-315h-59v748h273q46 0 86.5 -13t71 -40t48 -67.5t17.5 -95.5q0 -86 -40.5 -136.5t-103.5 -69.5l184 -326h-66zM364 368q34 0 64.5 9.5t54 29.5t37.5 51t14 74t-14 74t-37.5 51t-54 29.5t-64.5 9.5h-207v-328h207z" />
    <glyph glyph-name="S" unicode="S" horiz-adv-x="652" 
d="M326 757q52 0 96 -13t76.5 -38t52 -61.5t22.5 -83.5l-59 -4q-6 71 -56.5 109.5t-130.5 38.5q-47 0 -82.5 -12t-59 -32t-35 -47t-11.5 -58q0 -40 15 -65t41.5 -41t63 -26.5t80.5 -20.5q62 -14 110 -29t81 -37.5t50.5 -55.5t17.5 -82q0 -54 -20.5 -93.5t-56 -65
t-82.5 -37.5t-101 -12q-56 0 -105 13.5t-86 40t-59.5 64.5t-26.5 88l60 4q3 -37 21 -66t47 -49.5t67 -31.5t82 -11q42 0 78.5 9t63.5 27.5t42.5 47t15.5 68.5t-15.5 65t-44 41.5t-69 27.5t-91.5 23q-50 12 -93.5 25.5t-76 35t-51 55t-18.5 86.5q0 41 15 78t46 64.5t77 44
t109 16.5z" />
    <glyph glyph-name="T" unicode="T" horiz-adv-x="677" 
d="M368 696v-696h-59v696h-292v52h643v-52h-292z" />
    <glyph glyph-name="U" unicode="U" horiz-adv-x="758" 
d="M666 269q0 -69 -20.5 -121t-58 -87t-91 -52.5t-118.5 -17.5t-118 17.5t-90.5 52.5t-58 87t-20.5 121v479h59v-478q0 -113 61.5 -169.5t166.5 -56.5q52 0 94.5 14t72.5 42.5t46 70.5t16 99v478h59v-479z" />
    <glyph glyph-name="V" unicode="V" horiz-adv-x="725" 
d="M337 0l-313 748h65l274 -657l273 657h65l-313 -748h-51z" />
    <glyph glyph-name="W" unicode="W" horiz-adv-x="1115" 
d="M779 0l-222 639l-221 -639h-50l-262 748h65l223 -646l221 646h49l222 -646l223 646h63l-261 -748h-50z" />
    <glyph glyph-name="X" unicode="X" horiz-adv-x="673" 
d="M645 0h-70l-239 340l-239 -340h-68l265 381l-254 367h68l228 -327l229 327h69l-254 -367z" />
    <glyph glyph-name="Y" unicode="Y" horiz-adv-x="666" 
d="M362 0h-59v322l-283 426h69l244 -368l244 368h68l-283 -426v-322z" />
    <glyph glyph-name="Z" unicode="Z" horiz-adv-x="614" 
d="M113 53h466v-53h-542v45l459 651h-441v52h517v-45z" />
    <glyph glyph-name="bracketleft" unicode="[" horiz-adv-x="243" 
d="M117 671v-701h103v-47h-159v795h159v-47h-103z" />
    <glyph glyph-name="backslash" unicode="\" horiz-adv-x="337" 
d="M266 -67l-254 815h58l255 -815h-59z" />
    <glyph glyph-name="bracketright" unicode="]" horiz-adv-x="243" 
d="M23 -77v47h104v701h-104v47h160v-795h-160z" />
    <glyph glyph-name="asciicircum" unicode="^" horiz-adv-x="534" 
d="M438 374l-171 296l-172 -296h-63l235 386l234 -386h-63z" />
    <glyph glyph-name="underscore" unicode="_" horiz-adv-x="683" 
d="M45 -53v53h593v-53h-593z" />
    <glyph glyph-name="grave" unicode="`" horiz-adv-x="220" 
d="M154 593l-131 191h64l112 -191h-45z" />
    <glyph glyph-name="a" unicode="a" horiz-adv-x="535" 
d="M260 515q91 0 137.5 -50.5t46.5 -141.5v-323h-57v76q-28 -42 -71 -63.5t-97 -21.5q-72 0 -116.5 35t-44.5 104q0 37 13.5 64t38 44.5t58.5 27t75 11.5l144 9v36q0 67 -31 104.5t-95 37.5q-33 0 -58 -11t-41.5 -28.5t-24.5 -40t-8 -46.5l-57 2q0 33 12.5 64t36.5 56t59 40
t80 15zM249 230q-62 -4 -98.5 -26t-36.5 -73q0 -50 31.5 -70.5t81.5 -20.5q31 0 60.5 9t51.5 29.5t35.5 54t13.5 82.5v23z" />
    <glyph glyph-name="b" unicode="b" horiz-adv-x="645" 
d="M151 412q22 45 70.5 74t120.5 29q51 0 96 -18t78 -51.5t52 -82.5t19 -111t-19 -110.5t-52 -82t-78 -51t-96 -17.5q-72 0 -121.5 30t-72.5 76v-97h-53v777h56v-365zM337 465q-40 0 -74 -12t-59 -36t-39 -61t-14 -86v-34q0 -50 14 -86.5t39 -61t59 -36.5t74 -12t75.5 14
t62 41t41.5 66.5t15 91.5t-15 91.5t-41.5 66.5t-62 40.5t-75.5 13.5z" />
    <glyph glyph-name="c" unicode="c" horiz-adv-x="570" 
d="M301 515q44 0 82.5 -13t67.5 -37t48 -58.5t24 -77.5l-55 -5q-8 67 -54 104.5t-113 37.5q-40 0 -74 -14t-59 -41t-39 -67t-14 -91t14.5 -91t39.5 -67t59 -41t74 -14q69 0 113 35t54 96l55 -4q-14 -82 -72.5 -129t-149.5 -47q-52 0 -96.5 17.5t-77.5 51t-51.5 82
t-18.5 111.5t18.5 111.5t51 82t77 51t96.5 17.5z" />
    <glyph glyph-name="d" unicode="d" horiz-adv-x="645" 
d="M496 0v97q-22 -46 -71.5 -76t-121.5 -30q-52 0 -96.5 17.5t-77.5 51t-52 82t-19 110.5t19 111t52 82.5t77.5 51.5t96.5 18q72 0 120.5 -29t70.5 -74v365h56v-777h-54zM308 465q-41 0 -76.5 -13.5t-61.5 -40.5t-41 -66.5t-15 -91.5t15 -91.5t41 -66.5t61.5 -41t76.5 -14
q39 0 73 12t59 36.5t39 61t14 86.5v34q0 49 -14 86t-39 61t-59 36t-73 12z" />
    <glyph glyph-name="e" unicode="e" horiz-adv-x="587" 
d="M117 232q1 -46 15.5 -81.5t39.5 -60t58 -37.5t72 -13q66 0 109.5 29t57.5 82l56 -4q-17 -70 -75.5 -113t-145.5 -43q-53 0 -98 17.5t-78 51t-51.5 82.5t-18.5 111t18.5 111t51 82.5t77 51t97.5 17.5q54 0 96.5 -18t72 -50.5t44.5 -78t15 -100.5v-36h-413zM301 465
q-38 0 -71 -12t-57.5 -35.5t-39.5 -58.5t-16 -80h358q0 40 -11 74.5t-33 59t-54.5 38.5t-75.5 14z" />
    <glyph glyph-name="f" unicode="f" horiz-adv-x="324" 
d="M280 781q20 0 32 -3v-49q-5 1 -11.5 1.5t-14.5 0.5q-51 0 -82 -31t-31 -91v-103h137v-49h-137v-457h-55v457h-103v49h103v102q0 84 44 128.5t118 44.5z" />
    <glyph glyph-name="g" unicode="g" horiz-adv-x="642" 
d="M303 515q72 0 121.5 -30.5t71.5 -76.5v98h54v-540q0 -54 -17.5 -97t-48.5 -72t-74.5 -44.5t-95.5 -15.5q-50 0 -90.5 13t-70.5 35.5t-49.5 54t-27.5 68.5l57 2q6 -29 22 -52.5t40 -40t54 -25t63 -8.5q40 0 73.5 11.5t57.5 34t37.5 56t13.5 76.5v132q-22 -45 -70.5 -74
t-120.5 -29q-52 0 -96.5 17.5t-77.5 51.5t-52 82.5t-19 110.5t19 110.5t52 82.5t77.5 51.5t96.5 17.5zM308 465q-41 0 -76.5 -13.5t-61.5 -40.5t-41 -67t-15 -92q0 -51 15 -90.5t41 -66.5t61.5 -41t76.5 -14q39 0 73 12t59 36.5t39 61t14 85.5v35q0 49 -14 86t-39 61t-59 36
t-73 12z" />
    <glyph glyph-name="h" unicode="h" horiz-adv-x="596" 
d="M151 423q8 17 22.5 33.5t35.5 29.5t48 21t60 8q42 0 78 -14.5t62 -41.5t40.5 -64.5t14.5 -83.5v-311h-56v304q0 72 -41 115.5t-107 43.5q-35 0 -64 -13t-49.5 -34.5t-32 -50.5t-11.5 -61v-304h-56v777h56v-354z" />
    <glyph glyph-name="i" unicode="i" 
d="M123 740q17 0 29.5 -12.5t12.5 -29.5t-12.5 -29t-29.5 -12t-29 12t-12 29t12 29.5t29 12.5zM95 0v506h56v-506h-56z" />
    <glyph glyph-name="j" unicode="j" 
d="M123 740q17 0 29.5 -12.5t12.5 -29.5t-12.5 -29t-29.5 -12t-29 12t-12 29t12 29.5t29 12.5zM152 -88q0 -84 -41 -127.5t-113 -43.5q-10 0 -17.5 0.5t-15.5 1.5v50q6 -2 12 -2.5t15 -0.5q49 0 76.5 30t27.5 90v596h56v-594z" />
    <glyph glyph-name="k" unicode="k" horiz-adv-x="515" 
d="M404 506h71l-226 -222l254 -284h-74l-220 244l-58 -57v-187h-56v777h56v-515z" />
    <glyph glyph-name="l" unicode="l" 
d="M95 0v777h56v-777h-56z" />
    <glyph glyph-name="m" unicode="m" horiz-adv-x="937" 
d="M658 515q42 0 77 -15t59.5 -41.5t38.5 -64t14 -82.5v-312h-56v304q0 72 -38 115.5t-104 43.5q-35 0 -62.5 -13t-47 -34.5t-30 -50.5t-10.5 -61v-304h-57v304q0 36 -10 65t-28.5 50t-44.5 32.5t-57 11.5q-35 0 -63 -13t-47.5 -34.5t-30 -50.5t-10.5 -61v-304h-56v506h53
v-87q8 18 22.5 35t35 30.5t47 22t58.5 8.5q60 0 104.5 -29.5t66.5 -80.5q22 48 67.5 79t108.5 31z" />
    <glyph glyph-name="n" unicode="n" horiz-adv-x="604" 
d="M317 515q42 0 78 -14.5t62 -41.5t40.5 -64.5t14.5 -83.5v-311h-56v304q0 72 -41 115.5t-107 43.5q-35 0 -64 -13t-49.5 -34.5t-32 -50.5t-11.5 -61v-304h-56v506h54v-86q8 18 23 35t36 30.5t48.5 21.5t60.5 8z" />
    <glyph glyph-name="o" unicode="o" horiz-adv-x="627" 
d="M313 515q54 0 100.5 -18t81 -52t54.5 -82.5t20 -109.5t-20 -109.5t-54.5 -82.5t-81 -52t-100.5 -18t-100.5 18t-81 52t-54 82.5t-19.5 109.5t19.5 109.5t54 82.5t81 52t100.5 18zM313 465q-42 0 -78.5 -14.5t-63 -41.5t-42 -66.5t-15.5 -89.5t15.5 -89.5t42 -67t63 -42
t78.5 -14.5t78 14.5t63 42t42.5 67t15.5 89.5t-15.5 89.5t-42.5 66.5t-63 41.5t-78 14.5z" />
    <glyph glyph-name="p" unicode="p" horiz-adv-x="645" 
d="M342 515q51 0 96 -17.5t78 -51.5t52 -82.5t19 -110.5t-19 -110.5t-52 -82.5t-78 -51.5t-96 -17.5q-72 0 -120.5 29t-70.5 74v-349h-56v761h53v-98q23 46 72.5 76.5t121.5 30.5zM337 465q-40 0 -74 -12t-59 -36t-39 -61t-14 -86v-35q0 -49 14 -85.5t39 -61t59 -36.5
t74 -12t75.5 14t62 41t41.5 66.5t15 90.5q0 52 -15 92t-41.5 67t-62 40.5t-75.5 13.5z" />
    <glyph glyph-name="q" unicode="q" horiz-adv-x="645" 
d="M303 515q72 0 121.5 -30.5t71.5 -76.5v98h54v-761h-56v349q-22 -45 -70.5 -74t-120.5 -29q-52 0 -96.5 17.5t-77.5 51.5t-52 82.5t-19 110.5t19 110.5t52 82.5t77.5 51.5t96.5 17.5zM308 465q-41 0 -76.5 -13.5t-61.5 -40.5t-41 -67t-15 -92q0 -51 15 -90.5t41 -66.5
t61.5 -41t76.5 -14q39 0 73 12t59 36.5t39 61t14 85.5v35q0 49 -14 86t-39 61t-59 36t-73 12z" />
    <glyph glyph-name="r" unicode="r" horiz-adv-x="321" 
d="M303 459q-35 0 -63.5 -12t-48 -32.5t-30 -48t-10.5 -58.5v-308h-56v506h54v-83q6 16 19 32.5t32 29t45 20.5t58 8v-54z" />
    <glyph glyph-name="s" unicode="s" horiz-adv-x="495" 
d="M241 514q80 1 123.5 -39t52.5 -103l-56 -4q-6 45 -36.5 71.5t-85.5 25.5q-60 1 -89 -25t-29 -68q0 -25 10 -39t27.5 -23t42 -14t53.5 -12q41 -10 74 -21t56 -26.5t35 -38.5t12 -57q0 -74 -51 -112t-133 -38q-81 0 -131.5 37t-61.5 107l56 4q8 -50 44.5 -74.5t93.5 -24.5
q56 0 91.5 23.5t35.5 73.5q0 24 -8.5 39.5t-26 26.5t-44.5 18.5t-65 16.5q-35 8 -65.5 16.5t-53 22t-35 36t-12.5 58.5q0 64 44.5 104t131.5 39z" />
    <glyph glyph-name="t" unicode="t" horiz-adv-x="333" 
d="M260 46q17 0 30 1.5t23 3.5v-51q-11 -2 -26.5 -3.5t-37.5 -1.5q-62 0 -101.5 35.5t-39.5 117.5l1 309h-96v49h96l1 179h57l-1 -179h145v-49h-145l-2 -299q0 -62 27.5 -87t68.5 -25z" />
    <glyph glyph-name="u" unicode="u" horiz-adv-x="585" 
d="M437 0v86q-7 -16 -20.5 -33t-33.5 -30.5t-46.5 -22.5t-60.5 -9q-42 0 -76.5 14.5t-58.5 41t-37 63.5t-13 82v314h55v-307q0 -70 37 -112.5t103 -42.5q35 0 62.5 13t46.5 35t29 50.5t10 59.5v304h56v-506h-53z" />
    <glyph glyph-name="v" unicode="v" horiz-adv-x="509" 
d="M232 0l-219 506h62l180 -421l178 421h63l-219 -506h-45z" />
    <glyph glyph-name="w" unicode="w" horiz-adv-x="806" 
d="M557 0l-153 411l-155 -411h-44l-192 506h61l155 -416l154 416h40l155 -416l154 416h61l-191 -506h-45z" />
    <glyph glyph-name="x" unicode="x" horiz-adv-x="496" 
d="M476 0h-68l-160 223l-162 -223h-66l186 262l-175 244h67l150 -207l148 207h67l-175 -245z" />
    <glyph glyph-name="y" unicode="y" horiz-adv-x="509" 
d="M109 -255l115 273l-203 488h62l172 -424l172 424h62l-318 -761h-62z" />
    <glyph glyph-name="z" unicode="z" horiz-adv-x="444" 
d="M99 46h315v-46h-382v38l302 422h-295v46h361v-37z" />
    <glyph glyph-name="braceleft" unicode="{" horiz-adv-x="225" 
d="M195 670q-105 0 -69 -178q6 -30 10 -59t1.5 -52t-13.5 -39t-34 -22q23 -6 34 -22t13.5 -39t-1.5 -51.5t-10 -59.5q-36 -178 69 -178h6v-47h-6q-79 0 -113.5 56.5t-10.5 165.5q7 33 12 61t2 48t-15.5 31.5t-39.5 11.5h-8v47h8q27 0 39.5 11t15.5 31.5t-2 48.5t-12 61
q-24 109 10.5 165t113.5 56h6v-47h-6z" />
    <glyph glyph-name="bar" unicode="|" horiz-adv-x="236" 
d="M90 -67v815h55v-815h-55z" />
    <glyph glyph-name="braceright" unicode="}" horiz-adv-x="225" 
d="M29 717q80 0 114 -56t10 -165q-8 -33 -12.5 -61t-1.5 -48.5t15.5 -31.5t39.5 -11h8v-47h-8q-27 0 -39.5 -11.5t-15.5 -31.5t1.5 -48t12.5 -61q24 -109 -10 -165.5t-114 -56.5h-6v47h6q54 0 70.5 44t-0.5 134q-6 31 -10 59.5t-1.5 51.5t13 39t33.5 22q-23 6 -33.5 22
t-13 39t1.5 52t10 59q17 90 0.5 134t-70.5 44h-6v47h6z" />
    <glyph glyph-name="asciitilde" unicode="~" horiz-adv-x="532" 
d="M505 391q-29 -37 -61.5 -58.5t-83.5 -21.5q-36 0 -60 10t-44 22.5t-39.5 22.5t-46.5 10q-20 0 -36 -4t-29.5 -11.5t-26 -19t-25.5 -26.5l-27 37q30 37 61 57t78 20q29 0 50 -10t41 -22.5t43 -22.5t56 -10q43 0 70 16t54 47z" />
    <glyph glyph-name="exclamdown" unicode="&#xa1;" horiz-adv-x="257" 
d="M129 421q-19 0 -32 12.5t-13 31.5t13 31.5t32 12.5q18 0 30.5 -12.5t12.5 -31.5t-12.5 -31.5t-30.5 -12.5zM158 311l3 -559h-64l3 559h58z" />
    <glyph glyph-name="cent" unicode="&#xa2;" horiz-adv-x="570" 
d="M524 167q-14 -78 -66.5 -124t-134.5 -51v-110h-47v110q-47 4 -87 23.5t-69 52.5t-45.5 79.5t-16.5 105.5t16.5 105.5t45.5 79.5t69 52.5t87 23.5v113h47v-113q40 -3 74.5 -17t60.5 -38t43 -57t22 -73l-55 -5q-8 67 -54 104.5t-113 37.5q-40 0 -74 -14t-59 -41t-39 -67
t-14 -91t14.5 -91t39.5 -67t59 -41t74 -14q69 0 113 35t54 96z" />
    <glyph glyph-name="sterling" unicode="&#xa3;" horiz-adv-x="537" 
d="M507 0h-468v49q56 29 84.5 77.5t22.5 129.5l-6 83h-111v47h107l-9 129q-5 56 3.5 101t31.5 76.5t60 48t89 16.5q46 0 80 -13t56.5 -35.5t34 -54.5t11.5 -69l-58 -3q0 52 -30.5 87.5t-94.5 35.5q-74 0 -104 -47.5t-24 -131.5l10 -140h184v-47h-180l6 -83q3 -39 -3 -69.5
t-19 -55t-30.5 -43.5t-36.5 -35h394v-53z" />
    <glyph glyph-name="currency" unicode="&#xa4;" horiz-adv-x="581" 
d="M465 253q0 -38 -9 -69t-26 -56l122 -122l-36 -35l-121 121q-45 -34 -105 -34q-59 0 -104 34l-121 -121l-36 35l123 123q-36 50 -36 124t36 124l-123 123l36 35l122 -122q45 34 103 34q59 0 104 -34l122 122l36 -35l-123 -123q36 -50 36 -124zM291 99q27 0 50 10.5t40 30
t27 48.5t10 65t-10 64.5t-27 48t-40 30t-50 10.5q-54 0 -91 -40t-37 -113q0 -74 37 -114t91 -40z" />
    <glyph glyph-name="yen" unicode="&#xa5;" horiz-adv-x="666" 
d="M507 346v-37h-145v-103h145v-37h-145v-169h-59v169h-143v37h143v103h-143v37h127l-267 402h69l244 -368l244 368h68l-267 -402h129z" />
    <glyph glyph-name="brokenbar" unicode="&#xa6;" horiz-adv-x="236" 
d="M90 429v319h55v-319h-55zM90 -67v319h55v-319h-55z" />
    <glyph glyph-name="section" unicode="&#xa7;" horiz-adv-x="510" 
d="M376 247q38 -17 57.5 -44.5t19.5 -74.5q0 -38 -14.5 -67t-40.5 -49t-62 -30t-79 -10q-44 0 -81.5 10t-64.5 29.5t-43 48.5t-16 66l56 2q2 -53 43 -82t106 -29q60 0 100 26.5t40 81.5q0 28 -11.5 46t-32 30t-48.5 20t-62 15q-38 8 -70.5 19t-56 27.5t-37 40.5t-13.5 59
q0 44 17.5 70t48.5 48q-30 16 -46 42t-16 68q0 36 13.5 63t37 46t56 28.5t70.5 9.5q82 0 134 -37.5t53 -107.5l-55 -2q-2 49 -38 75t-93 26q-51 0 -86.5 -24.5t-35.5 -76.5q0 -26 10 -42.5t28 -27.5t43 -18t55 -13q39 -9 72 -20t56.5 -27.5t36.5 -40.5t13 -58
q0 -44 -17 -69.5t-47 -46.5zM117 384q0 -26 11 -43t30.5 -28.5t46 -19t58.5 -14.5q17 -4 33.5 -7t30.5 -8q29 18 45 38.5t16 58.5q0 26 -10.5 42.5t-30 28t-46.5 19t-59 14.5q-18 4 -34 7.5t-30 8.5q-28 -18 -44.5 -39.5t-16.5 -57.5z" />
    <glyph glyph-name="dieresis" unicode="&#xa8;" horiz-adv-x="254" 
d="M63 719q16 0 27.5 -10.5t11.5 -27.5q0 -16 -11.5 -26t-27.5 -10t-27 10t-11 26q0 17 11 27.5t27 10.5zM191 719q16 0 27 -10.5t11 -27.5q0 -16 -11 -26t-27 -10t-27 10t-11 26q0 17 11 27.5t27 10.5z" />
    <glyph glyph-name="copyright" unicode="&#xa9;" horiz-adv-x="576" 
d="M288 758q54 0 101 -19.5t81.5 -53t54 -79.5t19.5 -99t-19.5 -99t-54 -79.5t-81.5 -53t-101 -19.5t-101 19.5t-81.5 53t-54 79.5t-19.5 99t19.5 99t54 79.5t81.5 53t101 19.5zM288 735q-49 0 -91.5 -17.5t-73.5 -48t-48.5 -72.5t-17.5 -90t17.5 -90t48.5 -72.5t73.5 -48
t91.5 -17.5t91.5 17.5t73.5 48t48.5 72.5t17.5 90t-17.5 90t-48.5 72.5t-73.5 48t-91.5 17.5zM289 663q54 0 92 -29.5t44 -81.5l-34 -2q-5 41 -34 61.5t-68 20.5q-48 0 -80 -32.5t-32 -92.5t32.5 -92.5t80.5 -32.5q39 0 67 20t35 56l34 -2q-8 -49 -45 -77t-91 -28
q-31 0 -57.5 11t-46.5 31t-31.5 49t-11.5 65q0 37 11.5 66t31 49t46.5 30.5t57 10.5z" />
    <glyph glyph-name="ordfeminine" unicode="&#xaa;" horiz-adv-x="433" 
d="M214 755q75 0 111.5 -40t36.5 -116v-256h-48v67q-17 -33 -53 -53.5t-84 -20.5q-58 0 -94.5 27t-36.5 82q0 30 11.5 52t32 36.5t49 22.5t62.5 10l111 7v29q0 53 -24.5 81.5t-73.5 28.5q-27 0 -46.5 -8.5t-33 -22.5t-20 -32t-6.5 -37l-49 2q0 27 10 52t30 45t48.5 32
t66.5 12zM206 527q-50 -4 -79 -20.5t-29 -58.5q0 -39 24 -54.5t62 -15.5q23 0 46 6.5t41 23t29.5 42.5t11.5 65v20z" />
    <glyph glyph-name="guillemotleft" unicode="&#xab;" horiz-adv-x="505" 
d="M80 252l166 -183l-44 -29l-187 212l187 211l44 -29zM317 252l166 -183l-44 -29l-187 212l187 211l44 -29z" />
    <glyph glyph-name="logicalnot" unicode="&#xac;" horiz-adv-x="532" 
d="M439 175v176h-398v45h443v-221h-45z" />
    <glyph glyph-name="registered" unicode="&#xae;" horiz-adv-x="576" 
d="M288 758q54 0 101 -19.5t81.5 -53t54 -79.5t19.5 -99t-19.5 -99t-54 -79.5t-81.5 -53t-101 -19.5t-101 19.5t-81.5 53t-54 79.5t-19.5 99t19.5 99t54 79.5t81.5 53t101 19.5zM288 279q49 0 91.5 17.5t73.5 48t48.5 72.5t17.5 90t-17.5 90t-48.5 72.5t-73.5 48t-91.5 17.5
t-91.5 -17.5t-73.5 -48t-48.5 -72.5t-17.5 -90t17.5 -90t48.5 -72.5t73.5 -48t91.5 -17.5zM395 570q0 -35 -15 -56.5t-40 -29.5l71 -131h-36l-68 125h-4h-83v-125h-33v306h116q39 0 65.5 -22t26.5 -67zM295 508q26 0 46 13.5t20 48.5q0 34 -20 47t-46 13h-75v-122h75z" />
    <glyph glyph-name="macron" unicode="&#xaf;" horiz-adv-x="283" 
d="M19 643v44h245v-44h-245z" />
    <glyph glyph-name="degree" unicode="&#xb0;" horiz-adv-x="332" 
d="M165 756q61 0 98.5 -34.5t37.5 -99.5v-22q0 -64 -37.5 -99t-98.5 -35q-60 0 -96.5 35t-36.5 99v22q0 65 36.5 99.5t96.5 34.5zM165 720q-43 0 -68 -25.5t-25 -73.5v-19q0 -48 25.5 -74t67.5 -26q43 0 69.5 26t26.5 74v19q0 48 -26.5 73.5t-69.5 25.5z" />
    <glyph glyph-name="plusminus" unicode="&#xb1;" horiz-adv-x="546" 
d="M511 490v-52h-211v-215h-55v215h-212v52h212v209h55v-209h211zM33 101v53h478v-53h-478z" />
    <glyph glyph-name="acute" unicode="&#xb4;" horiz-adv-x="220" 
d="M21 593l113 191h63l-130 -191h-46z" />
    <glyph glyph-name="paragraph" unicode="&#xb6;" horiz-adv-x="644" 
d="M553 705v-772h-44v772h-148v-772h-45v451h-66q-44 0 -80.5 11.5t-63.5 34.5t-42 57.5t-15 79.5t15 78.5t42 56.5t63.5 34.5t80.5 11.5h372v-43h-69z" />
    <glyph glyph-name="periodcentered" unicode="&#xb7;" horiz-adv-x="190" 
d="M91 325q20 0 32.5 -12.5t12.5 -31.5t-12.5 -31.5t-32.5 -12.5q-18 0 -30.5 12.5t-12.5 31.5t12.5 31.5t30.5 12.5z" />
    <glyph glyph-name="cedilla" unicode="&#xb8;" horiz-adv-x="274" 
d="M129 -59q51 -2 82.5 -24.5t31.5 -66.5q0 -23 -9.5 -40t-26 -28.5t-37.5 -17t-43 -5.5q-30 0 -54 6.5t-44 17.5l11 34q17 -10 37 -16t45 -6q30 0 54 13t24 42q0 31 -23 45.5t-65 14.5q-14 0 -24 -3l24 99h31z" />
    <glyph glyph-name="ordmasculine" unicode="&#xba;" horiz-adv-x="502" 
d="M250 755q43 0 81 -14.5t65.5 -41.5t43.5 -66t16 -88t-16 -87.5t-43.5 -65.5t-65.5 -41.5t-81 -14.5t-80.5 14.5t-65 41.5t-43.5 65.5t-16 87.5t16 88t43.5 66t65 41.5t80.5 14.5zM251 712q-32 0 -60 -11.5t-49 -33t-33 -52.5t-12 -70t12 -69.5t33 -52t49 -32.5t60 -11
q33 0 61 11t49 32.5t33 52t12 69.5t-12 70t-33 52.5t-49 33t-61 11.5z" />
    <glyph glyph-name="guillemotright" unicode="&#xbb;" horiz-adv-x="505" 
d="M66 40l-44 29l166 183l-166 182l44 29l187 -211zM302 40l-44 29l166 183l-166 182l44 29l188 -211z" />
    <glyph glyph-name="onequarter" unicode="&#xbc;" horiz-adv-x="666" 
d="M17 0l537 748h58l-537 -748h-58zM116 322v349l-81 -63l-21 34l118 91h29v-411h-45zM645 144v-40h-72v-104h-44v104h-186v35l189 272h41v-267h72zM529 144v204l-145 -204h145z" />
    <glyph glyph-name="onehalf" unicode="&#xbd;" horiz-adv-x="699" 
d="M17 0l537 748h58l-537 -748h-58zM116 322v349l-81 -63l-21 34l118 91h29v-411h-45zM545 416q60 0 89.5 -33.5t29.5 -86.5q0 -49 -21.5 -85.5t-57.5 -74.5l-93 -96h178v-40h-246v31l128 132q33 33 50.5 63t17.5 71q0 35 -19 57t-55 22q-38 0 -59 -22t-22 -64l-43 3
q1 58 33.5 90.5t89.5 32.5z" />
    <glyph glyph-name="threequarters" unicode="&#xbe;" horiz-adv-x="764" 
d="M115 0l537 748h58l-537 -748h-58zM158 738q55 0 86 -29.5t31 -80.5q0 -37 -19 -60.5t-39 -31.5q26 -7 47.5 -32.5t21.5 -67.5q0 -56 -35 -87.5t-92 -31.5q-60 0 -92.5 32t-35.5 87l44 4q4 -39 25 -60.5t59 -21.5t60.5 21t22.5 59t-25 57t-63 19h-39v39h39q32 0 55 19.5
t23 53.5q0 35 -20.5 53.5t-53.5 18.5q-34 0 -54.5 -19.5t-22.5 -57.5l-44 2q2 54 33.5 84.5t87.5 30.5zM743 144v-40h-72v-104h-44v104h-186v35l189 272h41v-267h72zM627 144v204l-145 -204h145z" />
    <glyph glyph-name="questiondown" unicode="&#xbf;" horiz-adv-x="485" 
d="M250 426q-19 0 -32 13t-13 32q0 18 13 31t32 13q18 0 30.5 -13t12.5 -31q0 -19 -12.5 -32t-30.5 -13zM242 -252q-53 0 -94 16t-69 44t-42.5 66t-14.5 83q0 34 7.5 60t21.5 47t34 39t46 36q25 18 41.5 35t26.5 34.5t14.5 37t4.5 44.5v27h59v-29q0 -27 -4.5 -49t-16 -42
t-30 -39.5t-45.5 -40.5q-23 -17 -41.5 -33t-31 -34.5t-19.5 -41t-7 -50.5q0 -33 10.5 -61.5t30.5 -50t50 -33.5t69 -12q76 0 116.5 38.5t48.5 104.5l59 -4q-8 -89 -66.5 -140.5t-157.5 -51.5z" />
    <glyph glyph-name="Agrave" unicode="&#xc0;" horiz-adv-x="707" 
d="M324 795l-183 135h80l159 -135h-56zM623 0l-88 217h-362l-89 -217h-65l309 748h51l309 -748h-65zM513 267l-159 390l-160 -390h319z" />
    <glyph glyph-name="Aacute" unicode="&#xc1;" horiz-adv-x="707" 
d="M325 795l159 135h80l-184 -135h-55zM623 0l-88 217h-362l-89 -217h-65l309 748h51l309 -748h-65zM513 267l-159 390l-160 -390h319z" />
    <glyph glyph-name="Acircumflex" unicode="&#xc2;" horiz-adv-x="707" 
d="M451 795l-97 98l-96 -98h-50l121 135h52l120 -135h-50zM623 0l-88 217h-362l-89 -217h-65l309 748h51l309 -748h-65zM513 267l-159 390l-160 -390h319z" />
    <glyph glyph-name="Atilde" unicode="&#xc3;" horiz-adv-x="707" 
d="M282 923q23 0 40.5 -10t32.5 -22t30.5 -22t34.5 -10q26 0 39 16.5t14 40.5h34q1 -20 -4.5 -38.5t-16 -32t-26 -21.5t-34.5 -8q-23 0 -40.5 10t-32.5 22t-30.5 22t-34.5 10q-26 0 -39.5 -16.5t-13.5 -40.5h-34q-2 41 20 70.5t61 29.5zM623 0l-88 217h-362l-89 -217h-65
l309 748h51l309 -748h-65zM513 267l-159 390l-160 -390h319z" />
    <glyph glyph-name="Adieresis" unicode="&#xc4;" horiz-adv-x="707" 
d="M291 901q16 0 27.5 -11t11.5 -26q0 -17 -11.5 -27.5t-27.5 -10.5t-27 10.5t-11 27.5q0 15 11 26t27 11zM419 901q16 0 27 -11t11 -26q0 -17 -11 -27.5t-27 -10.5t-27 10.5t-11 27.5q0 15 11 26t27 11zM623 0l-88 217h-362l-89 -217h-65l309 748h51l309 -748h-65zM513 267
l-159 390l-160 -390h319z" />
    <glyph glyph-name="Aring" unicode="&#xc5;" horiz-adv-x="707" 
d="M354 979q40 0 68 -26t28 -67t-28 -67t-68 -26q-42 0 -70 26t-28 67t28 67t70 26zM354 944q-26 0 -43.5 -16t-17.5 -42t17.5 -42.5t43.5 -16.5t43 16.5t17 42.5t-17 42t-43 16zM623 0l-88 217h-362l-89 -217h-65l309 748h51l309 -748h-65zM513 267l-159 390l-160 -390h319
z" />
    <glyph glyph-name="AE" unicode="&#xc6;" horiz-adv-x="1002" 
d="M573 414h350v-52h-350v-309h394v-53h-453v217h-287l-144 -217h-72l496 748h460v-52h-394v-282zM514 654l-255 -387h255v387z" />
    <glyph glyph-name="Ccedilla" unicode="&#xc7;" horiz-adv-x="799" 
d="M755 249q-10 -59 -37.5 -105.5t-69 -79.5t-94.5 -52t-115 -21l-12 -55q51 -2 82.5 -24.5t31.5 -66.5q0 -23 -9.5 -40t-26 -28.5t-37.5 -17t-43 -5.5q-30 0 -54 6.5t-44 17.5l11 34q17 -10 37 -16t45 -6q30 0 54 13t24 42q0 31 -23 45.5t-65 14.5q-14 0 -24 -3l22 89
q-75 3 -138.5 29.5t-110 75.5t-73 119t-26.5 159q0 91 27 162.5t75 120.5t114 74.5t144 25.5q65 0 122.5 -19t101.5 -54t73 -85.5t37 -113.5l-61 -6q-7 53 -30.5 94.5t-60 70.5t-83.5 44.5t-101 15.5q-65 0 -119.5 -22t-94.5 -64.5t-62 -104t-22 -139.5q0 -80 23.5 -141.5
t64 -103.5t95.5 -63.5t118 -21.5q53 0 99 14t81.5 41t59.5 66t33 89z" />
    <glyph glyph-name="Egrave" unicode="&#xc8;" horiz-adv-x="588" 
d="M299 795l-183 135h80l159 -135h-56zM157 696v-282h350v-52h-350v-309h394v-53h-453v748h453v-52h-394z" />
    <glyph glyph-name="Eacute" unicode="&#xc9;" horiz-adv-x="588" 
d="M300 795l159 135h80l-184 -135h-55zM157 696v-282h350v-52h-350v-309h394v-53h-453v748h453v-52h-394z" />
    <glyph glyph-name="Ecircumflex" unicode="&#xca;" horiz-adv-x="588" 
d="M425 795l-97 98l-96 -98h-50l121 135h52l120 -135h-50zM157 696v-282h350v-52h-350v-309h394v-53h-453v748h453v-52h-394z" />
    <glyph glyph-name="Edieresis" unicode="&#xcb;" horiz-adv-x="588" 
d="M265 901q16 0 27.5 -11t11.5 -26q0 -17 -11.5 -27.5t-27.5 -10.5t-27 10.5t-11 27.5q0 15 11 26t27 11zM393 901q16 0 27 -11t11 -26q0 -17 -11 -27.5t-27 -10.5t-27 10.5t-11 27.5q0 15 11 26t27 11zM157 696v-282h350v-52h-350v-309h394v-53h-453v748h453v-52h-394z
" />
    <glyph glyph-name="Igrave" unicode="&#xcc;" horiz-adv-x="255" 
d="M99 795l-183 135h80l159 -135h-56zM98 0v748h59v-748h-59z" />
    <glyph glyph-name="Iacute" unicode="&#xcd;" horiz-adv-x="255" 
d="M100 795l159 135h80l-184 -135h-55zM98 0v748h59v-748h-59z" />
    <glyph glyph-name="Icircumflex" unicode="&#xce;" horiz-adv-x="255" 
d="M226 795l-97 98l-96 -98h-50l121 135h52l120 -135h-50zM98 0v748h59v-748h-59z" />
    <glyph glyph-name="Idieresis" unicode="&#xcf;" horiz-adv-x="255" 
d="M66 901q16 0 27.5 -11t11.5 -26q0 -17 -11.5 -27.5t-27.5 -10.5t-27 10.5t-11 27.5q0 15 11 26t27 11zM194 901q16 0 27 -11t11 -26q0 -17 -11 -27.5t-27 -10.5t-27 10.5t-11 27.5q0 15 11 26t27 11zM98 0v748h59v-748h-59z" />
    <glyph glyph-name="Eth" unicode="&#xd0;" horiz-adv-x="787" 
d="M403 748q76 0 140.5 -25t112 -73t74.5 -117.5t27 -158.5t-27.5 -158.5t-75.5 -117.5t-113 -73t-140 -25h-282v351h-118v46h118v351h284zM401 51q64 0 118 21t94 62t62.5 101.5t22.5 138.5t-22 138.5t-61.5 101.5t-93.5 62t-118 21h-225v-300h171v-46h-171v-300h223z" />
    <glyph glyph-name="Ntilde" unicode="&#xd1;" horiz-adv-x="743" 
d="M298 923q23 0 40.5 -10t32.5 -22t30.5 -22t34.5 -10q26 0 39 16.5t14 40.5h34q1 -20 -4.5 -38.5t-16 -32t-26 -21.5t-34.5 -8q-23 0 -40.5 10t-32.5 22t-30.5 22t-34.5 10q-26 0 -39.5 -16.5t-13.5 -40.5h-34q-2 41 20 70.5t61 29.5zM595 0l-438 637v-637h-59v748h49
l438 -638v638h60v-748h-50z" />
    <glyph glyph-name="Ograve" unicode="&#xd2;" horiz-adv-x="861" 
d="M388 795l-183 135h80l159 -135h-56zM431 757q77 0 144.5 -26t117.5 -75.5t78.5 -120.5t28.5 -161t-28.5 -161t-78.5 -120.5t-117.5 -75.5t-144.5 -26q-78 0 -145.5 26t-117.5 75.5t-79 120.5t-29 161t29 161t79 120.5t117.5 75.5t145.5 26zM431 704q-65 0 -121.5 -22
t-98.5 -64.5t-66 -104t-24 -139.5t24 -139.5t66 -103.5t98.5 -64.5t121.5 -22.5q64 0 120.5 22.5t98.5 64.5t66 103.5t24 139.5t-24 139.5t-66 104t-98.5 64.5t-120.5 22z" />
    <glyph glyph-name="Oacute" unicode="&#xd3;" horiz-adv-x="861" 
d="M389 795l159 135h80l-184 -135h-55zM431 757q77 0 144.5 -26t117.5 -75.5t78.5 -120.5t28.5 -161t-28.5 -161t-78.5 -120.5t-117.5 -75.5t-144.5 -26q-78 0 -145.5 26t-117.5 75.5t-79 120.5t-29 161t29 161t79 120.5t117.5 75.5t145.5 26zM431 704q-65 0 -121.5 -22
t-98.5 -64.5t-66 -104t-24 -139.5t24 -139.5t66 -103.5t98.5 -64.5t121.5 -22.5q64 0 120.5 22.5t98.5 64.5t66 103.5t24 139.5t-24 139.5t-66 104t-98.5 64.5t-120.5 22z" />
    <glyph glyph-name="Ocircumflex" unicode="&#xd4;" horiz-adv-x="861" 
d="M514 795l-97 98l-96 -98h-50l121 135h52l120 -135h-50zM431 757q77 0 144.5 -26t117.5 -75.5t78.5 -120.5t28.5 -161t-28.5 -161t-78.5 -120.5t-117.5 -75.5t-144.5 -26q-78 0 -145.5 26t-117.5 75.5t-79 120.5t-29 161t29 161t79 120.5t117.5 75.5t145.5 26zM431 704
q-65 0 -121.5 -22t-98.5 -64.5t-66 -104t-24 -139.5t24 -139.5t66 -103.5t98.5 -64.5t121.5 -22.5q64 0 120.5 22.5t98.5 64.5t66 103.5t24 139.5t-24 139.5t-66 104t-98.5 64.5t-120.5 22z" />
    <glyph glyph-name="Otilde" unicode="&#xd5;" horiz-adv-x="861" 
d="M346 923q23 0 40.5 -10t32.5 -22t30.5 -22t34.5 -10q26 0 39 16.5t14 40.5h34q1 -20 -4.5 -38.5t-16 -32t-26 -21.5t-34.5 -8q-23 0 -40.5 10t-32.5 22t-30.5 22t-34.5 10q-26 0 -39.5 -16.5t-13.5 -40.5h-34q-2 41 20 70.5t61 29.5zM431 757q77 0 144.5 -26t117.5 -75.5
t78.5 -120.5t28.5 -161t-28.5 -161t-78.5 -120.5t-117.5 -75.5t-144.5 -26q-78 0 -145.5 26t-117.5 75.5t-79 120.5t-29 161t29 161t79 120.5t117.5 75.5t145.5 26zM431 704q-65 0 -121.5 -22t-98.5 -64.5t-66 -104t-24 -139.5t24 -139.5t66 -103.5t98.5 -64.5t121.5 -22.5
q64 0 120.5 22.5t98.5 64.5t66 103.5t24 139.5t-24 139.5t-66 104t-98.5 64.5t-120.5 22z" />
    <glyph glyph-name="Odieresis" unicode="&#xd6;" horiz-adv-x="861" 
d="M354 901q16 0 27.5 -11t11.5 -26q0 -17 -11.5 -27.5t-27.5 -10.5t-27 10.5t-11 27.5q0 15 11 26t27 11zM482 901q16 0 27 -11t11 -26q0 -17 -11 -27.5t-27 -10.5t-27 10.5t-11 27.5q0 15 11 26t27 11zM431 757q77 0 144.5 -26t117.5 -75.5t78.5 -120.5t28.5 -161
t-28.5 -161t-78.5 -120.5t-117.5 -75.5t-144.5 -26q-78 0 -145.5 26t-117.5 75.5t-79 120.5t-29 161t29 161t79 120.5t117.5 75.5t145.5 26zM431 704q-65 0 -121.5 -22t-98.5 -64.5t-66 -104t-24 -139.5t24 -139.5t66 -103.5t98.5 -64.5t121.5 -22.5q64 0 120.5 22.5
t98.5 64.5t66 103.5t24 139.5t-24 139.5t-66 104t-98.5 64.5t-120.5 22z" />
    <glyph glyph-name="multiply" unicode="&#xd7;" horiz-adv-x="511" 
d="M294 369l163 -164l-37 -37l-164 163l-165 -164l-37 37l165 165l-163 164l37 37l163 -165l161 161l37 -38z" />
    <glyph glyph-name="Oslash" unicode="&#xd8;" horiz-adv-x="836" 
d="M674 673q58 -50 92 -125t34 -174q0 -90 -28.5 -161t-78.5 -120.5t-117.5 -75.5t-144.5 -26q-130 0 -225 69l-68 -88l-37 28l69 90q-51 50 -80.5 121.5t-29.5 162.5q0 90 29 161t79 120.5t117.5 75.5t145.5 26q57 0 109 -14.5t97 -42.5l59 78l37 -28zM121 374
q0 -76 22.5 -135.5t62.5 -101.5l397 519q-37 23 -80.5 35.5t-91.5 12.5q-65 0 -121.5 -22t-98.5 -64.5t-66 -104t-24 -139.5zM431 44q64 0 120.5 22.5t98.5 64.5t66 103.5t24 139.5q0 84 -27 147.5t-74 106.5l-399 -523q79 -61 191 -61z" />
    <glyph glyph-name="Ugrave" unicode="&#xd9;" horiz-adv-x="758" 
d="M348 795l-183 135h80l159 -135h-56zM666 269q0 -69 -20.5 -121t-58 -87t-91 -52.5t-118.5 -17.5t-118 17.5t-90.5 52.5t-58 87t-20.5 121v479h59v-478q0 -113 61.5 -169.5t166.5 -56.5q52 0 94.5 14t72.5 42.5t46 70.5t16 99v478h59v-479z" />
    <glyph glyph-name="Uacute" unicode="&#xda;" horiz-adv-x="758" 
d="M348 795l159 135h80l-184 -135h-55zM666 269q0 -69 -20.5 -121t-58 -87t-91 -52.5t-118.5 -17.5t-118 17.5t-90.5 52.5t-58 87t-20.5 121v479h59v-478q0 -113 61.5 -169.5t166.5 -56.5q52 0 94.5 14t72.5 42.5t46 70.5t16 99v478h59v-479z" />
    <glyph glyph-name="Ucircumflex" unicode="&#xdb;" horiz-adv-x="758" 
d="M474 795l-97 98l-96 -98h-50l121 135h52l120 -135h-50zM666 269q0 -69 -20.5 -121t-58 -87t-91 -52.5t-118.5 -17.5t-118 17.5t-90.5 52.5t-58 87t-20.5 121v479h59v-478q0 -113 61.5 -169.5t166.5 -56.5q52 0 94.5 14t72.5 42.5t46 70.5t16 99v478h59v-479z" />
    <glyph glyph-name="Udieresis" unicode="&#xdc;" horiz-adv-x="758" 
d="M314 901q16 0 27.5 -11t11.5 -26q0 -17 -11.5 -27.5t-27.5 -10.5t-27 10.5t-11 27.5q0 15 11 26t27 11zM442 901q16 0 27 -11t11 -26q0 -17 -11 -27.5t-27 -10.5t-27 10.5t-11 27.5q0 15 11 26t27 11zM666 269q0 -69 -20.5 -121t-58 -87t-91 -52.5t-118.5 -17.5
t-118 17.5t-90.5 52.5t-58 87t-20.5 121v479h59v-478q0 -113 61.5 -169.5t166.5 -56.5q52 0 94.5 14t72.5 42.5t46 70.5t16 99v478h59v-479z" />
    <glyph glyph-name="Yacute" unicode="&#xdd;" horiz-adv-x="666" 
d="M304 795l159 135h80l-184 -135h-55zM362 0h-59v322l-283 426h69l244 -368l244 368h68l-283 -426v-322z" />
    <glyph glyph-name="Thorn" unicode="&#xde;" horiz-adv-x="624" 
d="M358 639q46 0 86.5 -14t70.5 -41t47.5 -67.5t17.5 -93.5q0 -54 -17.5 -94.5t-47.5 -67.5t-70.5 -41t-86.5 -14h-201v-206h-59v748h59v-109h201zM157 259h194q34 0 64.5 10t53.5 30.5t37 51.5t14 72t-14 71.5t-37 51t-53.5 30.5t-64.5 10h-194v-327z" />
    <glyph glyph-name="germandbls" unicode="&#xdf;" horiz-adv-x="621" 
d="M288 785q88 0 138.5 -41.5t50.5 -110.5q0 -37 -14.5 -60t-31.5 -42t-31.5 -38t-14.5 -47q0 -23 13.5 -40.5t34 -34t44 -34t44 -40.5t34 -54t13.5 -74q0 -42 -15 -75t-42 -55.5t-64.5 -34.5t-82.5 -12q-32 0 -56.5 4t-41.5 12l12 47q17 -6 36.5 -11t45.5 -5q67 0 109 35
t42 99q0 37 -13.5 63.5t-34 47t-44 37.5t-44 35t-34 38.5t-13.5 49.5q0 35 14.5 56.5t31.5 39.5t31.5 36.5t14.5 47.5q0 52 -34 82t-97 30q-64 0 -102.5 -36t-38.5 -93v-607h-56v609q0 39 14 71.5t40 55.5t62 36t80 13z" />
    <glyph glyph-name="agrave" unicode="&#xe0;" horiz-adv-x="535" 
d="M252 593l-131 191h64l112 -191h-45zM260 515q91 0 137.5 -50.5t46.5 -141.5v-323h-57v76q-28 -42 -71 -63.5t-97 -21.5q-72 0 -116.5 35t-44.5 104q0 37 13.5 64t38 44.5t58.5 27t75 11.5l144 9v36q0 67 -31 104.5t-95 37.5q-33 0 -58 -11t-41.5 -28.5t-24.5 -40
t-8 -46.5l-57 2q0 33 12.5 64t36.5 56t59 40t80 15zM249 230q-62 -4 -98.5 -26t-36.5 -73q0 -50 31.5 -70.5t81.5 -20.5q31 0 60.5 9t51.5 29.5t35.5 54t13.5 82.5v23z" />
    <glyph glyph-name="aacute" unicode="&#xe1;" horiz-adv-x="535" 
d="M251 593l113 191h63l-130 -191h-46zM260 515q91 0 137.5 -50.5t46.5 -141.5v-323h-57v76q-28 -42 -71 -63.5t-97 -21.5q-72 0 -116.5 35t-44.5 104q0 37 13.5 64t38 44.5t58.5 27t75 11.5l144 9v36q0 67 -31 104.5t-95 37.5q-33 0 -58 -11t-41.5 -28.5t-24.5 -40
t-8 -46.5l-57 2q0 33 12.5 64t36.5 56t59 40t80 15zM249 230q-62 -4 -98.5 -26t-36.5 -73q0 -50 31.5 -70.5t81.5 -20.5q31 0 60.5 9t51.5 29.5t35.5 54t13.5 82.5v23z" />
    <glyph glyph-name="acircumflex" unicode="&#xe2;" horiz-adv-x="535" 
d="M374 594l-99 125l-98 -125h-49l121 166h52l122 -166h-49zM260 515q91 0 137.5 -50.5t46.5 -141.5v-323h-57v76q-28 -42 -71 -63.5t-97 -21.5q-72 0 -116.5 35t-44.5 104q0 37 13.5 64t38 44.5t58.5 27t75 11.5l144 9v36q0 67 -31 104.5t-95 37.5q-33 0 -58 -11
t-41.5 -28.5t-24.5 -40t-8 -46.5l-57 2q0 33 12.5 64t36.5 56t59 40t80 15zM249 230q-62 -4 -98.5 -26t-36.5 -73q0 -50 31.5 -70.5t81.5 -20.5q31 0 60.5 9t51.5 29.5t35.5 54t13.5 82.5v23z" />
    <glyph glyph-name="atilde" unicode="&#xe3;" horiz-adv-x="535" 
d="M201 723q23 0 40.5 -10t32.5 -22t30.5 -22t34.5 -10q26 0 39 16.5t14 40.5h34q1 -20 -4.5 -38.5t-16 -32t-26 -21.5t-34.5 -8q-23 0 -40.5 10t-32.5 22t-30.5 22t-34.5 10q-26 0 -39.5 -16.5t-13.5 -40.5h-34q-2 41 20 70.5t61 29.5zM260 515q91 0 137.5 -50.5
t46.5 -141.5v-323h-57v76q-28 -42 -71 -63.5t-97 -21.5q-72 0 -116.5 35t-44.5 104q0 37 13.5 64t38 44.5t58.5 27t75 11.5l144 9v36q0 67 -31 104.5t-95 37.5q-33 0 -58 -11t-41.5 -28.5t-24.5 -40t-8 -46.5l-57 2q0 33 12.5 64t36.5 56t59 40t80 15zM249 230
q-62 -4 -98.5 -26t-36.5 -73q0 -50 31.5 -70.5t81.5 -20.5q31 0 60.5 9t51.5 29.5t35.5 54t13.5 82.5v23z" />
    <glyph glyph-name="adieresis" unicode="&#xe4;" horiz-adv-x="535" 
d="M207 719q16 0 27.5 -10.5t11.5 -27.5q0 -16 -11.5 -26t-27.5 -10t-27 10t-11 26q0 17 11 27.5t27 10.5zM335 719q16 0 27 -10.5t11 -27.5q0 -16 -11 -26t-27 -10t-27 10t-11 26q0 17 11 27.5t27 10.5zM260 515q91 0 137.5 -50.5t46.5 -141.5v-323h-57v76
q-28 -42 -71 -63.5t-97 -21.5q-72 0 -116.5 35t-44.5 104q0 37 13.5 64t38 44.5t58.5 27t75 11.5l144 9v36q0 67 -31 104.5t-95 37.5q-33 0 -58 -11t-41.5 -28.5t-24.5 -40t-8 -46.5l-57 2q0 33 12.5 64t36.5 56t59 40t80 15zM249 230q-62 -4 -98.5 -26t-36.5 -73
q0 -50 31.5 -70.5t81.5 -20.5q31 0 60.5 9t51.5 29.5t35.5 54t13.5 82.5v23z" />
    <glyph glyph-name="aring" unicode="&#xe5;" horiz-adv-x="535" 
d="M275 786q43 0 73.5 -28t30.5 -71q0 -44 -30.5 -71.5t-73.5 -27.5q-45 0 -75.5 27.5t-30.5 71.5q0 43 30.5 71t75.5 28zM274 749q-29 0 -47.5 -17.5t-18.5 -44.5q0 -28 18.5 -45t47.5 -17t47.5 17t18.5 45q0 27 -18.5 44.5t-47.5 17.5zM260 515q91 0 137.5 -50.5
t46.5 -141.5v-323h-57v76q-28 -42 -71 -63.5t-97 -21.5q-72 0 -116.5 35t-44.5 104q0 37 13.5 64t38 44.5t58.5 27t75 11.5l144 9v36q0 67 -31 104.5t-95 37.5q-33 0 -58 -11t-41.5 -28.5t-24.5 -40t-8 -46.5l-57 2q0 33 12.5 64t36.5 56t59 40t80 15zM249 230
q-62 -4 -98.5 -26t-36.5 -73q0 -50 31.5 -70.5t81.5 -20.5q31 0 60.5 9t51.5 29.5t35.5 54t13.5 82.5v23z" />
    <glyph glyph-name="ae" unicode="&#xe6;" horiz-adv-x="917" 
d="M447 232q1 -46 16 -81.5t39.5 -60t58 -37.5t71.5 -13q67 0 110 29t58 82l56 -4q-17 -70 -76 -113t-146 -43q-71 0 -127 31.5t-87 91.5q-27 -60 -79 -91.5t-120 -31.5q-73 0 -118 35.5t-45 103.5q0 37 13.5 64t38 44.5t58.5 27t75 11.5l144 9v22q0 74 -31 116t-95 42
q-33 0 -58 -11t-41.5 -29t-24.5 -41t-8 -47l-57 2q0 33 12.5 64t36.5 56t59 40t80 15q63 0 104.5 -28t61.5 -82q32 54 85.5 82t120.5 28q54 0 97 -18t72 -50.5t44.5 -78t15.5 -100.5v-36h-414zM631 465q-38 0 -71 -12t-57.5 -35.5t-39.5 -58.5t-16 -80h358q0 40 -11 74.5
t-32.5 59t-54.5 38.5t-76 14zM249 231q-62 -5 -98.5 -26.5t-36.5 -72.5q0 -50 31.5 -71t81.5 -21q30 0 59 9t51.5 29t36.5 53.5t14 83.5v24z" />
    <glyph glyph-name="ccedilla" unicode="&#xe7;" horiz-adv-x="570" 
d="M524 167q-14 -78 -68 -124.5t-139 -51.5l-12 -54q51 -2 82.5 -24.5t31.5 -66.5q0 -23 -9.5 -40t-26 -28.5t-37.5 -17t-43 -5.5q-30 0 -54 6.5t-44 17.5l11 34q17 -10 37 -16t45 -6q30 0 54 13t24 42q0 31 -23 45.5t-65 14.5q-14 0 -24 -3l21 88q-49 3 -90.5 22t-72 52
t-47.5 80.5t-17 107.5q0 63 18.5 111.5t51 82t77 51t96.5 17.5q44 0 82.5 -13t67.5 -37t48 -58.5t24 -77.5l-55 -5q-8 67 -54 104.5t-113 37.5q-40 0 -74 -14t-59 -41t-39 -67t-14 -91t14.5 -91t39.5 -67t59 -41t74 -14q69 0 113 35t54 96z" />
    <glyph glyph-name="egrave" unicode="&#xe8;" horiz-adv-x="587" 
d="M146 784h64l112 -191h-45zM117 232q1 -46 15.5 -81.5t39.5 -60t58 -37.5t72 -13q66 0 109.5 29t57.5 82l56 -4q-17 -70 -75.5 -113t-145.5 -43q-53 0 -98 17.5t-78 51t-51.5 82.5t-18.5 111t18.5 111t51 82.5t77 51t97.5 17.5q54 0 96.5 -18t72 -50.5t44.5 -78t15 -100.5
v-36h-413zM301 465q-38 0 -71 -12t-57.5 -35.5t-39.5 -58.5t-16 -80h358q0 40 -11 74.5t-33 59t-54.5 38.5t-75.5 14z" />
    <glyph glyph-name="eacute" unicode="&#xe9;" horiz-adv-x="587" 
d="M276 593l113 191h63l-130 -191h-46zM117 232q1 -46 15.5 -81.5t39.5 -60t58 -37.5t72 -13q66 0 109.5 29t57.5 82l56 -4q-17 -70 -75.5 -113t-145.5 -43q-53 0 -98 17.5t-78 51t-51.5 82.5t-18.5 111t18.5 111t51 82.5t77 51t97.5 17.5q54 0 96.5 -18t72 -50.5t44.5 -78
t15 -100.5v-36h-413zM301 465q-38 0 -71 -12t-57.5 -35.5t-39.5 -58.5t-16 -80h358q0 40 -11 74.5t-33 59t-54.5 38.5t-75.5 14z" />
    <glyph glyph-name="ecircumflex" unicode="&#xea;" horiz-adv-x="587" 
d="M153 594l121 166h52l122 -166h-49l-99 125l-98 -125h-49zM117 232q1 -46 15.5 -81.5t39.5 -60t58 -37.5t72 -13q66 0 109.5 29t57.5 82l56 -4q-17 -70 -75.5 -113t-145.5 -43q-53 0 -98 17.5t-78 51t-51.5 82.5t-18.5 111t18.5 111t51 82.5t77 51t97.5 17.5
q54 0 96.5 -18t72 -50.5t44.5 -78t15 -100.5v-36h-413zM301 465q-38 0 -71 -12t-57.5 -35.5t-39.5 -58.5t-16 -80h358q0 40 -11 74.5t-33 59t-54.5 38.5t-75.5 14z" />
    <glyph glyph-name="edieresis" unicode="&#xeb;" horiz-adv-x="587" 
d="M233 645q-16 0 -27 10t-11 26q0 17 11 27.5t27 10.5t27.5 -10.5t11.5 -27.5q0 -16 -11.5 -26t-27.5 -10zM361 645q-16 0 -27 10t-11 26q0 17 11 27.5t27 10.5t27 -10.5t11 -27.5q0 -16 -11 -26t-27 -10zM117 232q1 -46 15.5 -81.5t39.5 -60t58 -37.5t72 -13
q66 0 109.5 29t57.5 82l56 -4q-17 -70 -75.5 -113t-145.5 -43q-53 0 -98 17.5t-78 51t-51.5 82.5t-18.5 111t18.5 111t51 82.5t77 51t97.5 17.5q54 0 96.5 -18t72 -50.5t44.5 -78t15 -100.5v-36h-413zM301 465q-38 0 -71 -12t-57.5 -35.5t-39.5 -58.5t-16 -80h358
q0 40 -11 74.5t-33 59t-54.5 38.5t-75.5 14z" />
    <glyph glyph-name="igrave" unicode="&#xec;" 
d="M101 593l-131 191h64l112 -191h-45zM95 0v506h56v-506h-56z" />
    <glyph glyph-name="iacute" unicode="&#xed;" 
d="M100 593l113 191h63l-130 -191h-46zM95 0v506h56v-506h-56z" />
    <glyph glyph-name="icircumflex" unicode="&#xee;" 
d="M223 594l-99 125l-98 -125h-49l121 166h52l122 -166h-49zM95 0v506h56v-506h-56z" />
    <glyph glyph-name="idieresis" unicode="&#xef;" 
d="M57 719q16 0 27.5 -10.5t11.5 -27.5q0 -16 -11.5 -26t-27.5 -10t-27 10t-11 26q0 17 11 27.5t27 10.5zM185 719q16 0 27 -10.5t11 -27.5q0 -16 -11 -26t-27 -10t-27 10t-11 26q0 17 11 27.5t27 10.5zM95 0v506h56v-506h-56z" />
    <glyph glyph-name="eth" unicode="&#xf0;" horiz-adv-x="603" 
d="M380 685q76 -69 114 -181t38 -254q0 -65 -18.5 -113.5t-51 -80.5t-76 -48.5t-93.5 -16.5t-93 16.5t-75 48t-50.5 77t-18.5 103.5q0 57 18.5 102.5t50 78t74.5 49.5t93 17q51 0 94 -18t75 -49q-30 158 -122 240l-108 -79l-26 28l104 74q-75 50 -181 51v47
q67 0 122.5 -17.5t100.5 -50.5l111 79l25 -25zM295 40q37 0 70.5 13t58 38t39 62t14.5 86q0 45 -13.5 81t-37.5 61.5t-57.5 39t-73.5 13.5t-73.5 -14t-58 -39.5t-38 -62t-13.5 -82.5t14 -82.5t38.5 -61.5t58 -38.5t72.5 -13.5z" />
    <glyph glyph-name="ntilde" unicode="&#xf1;" horiz-adv-x="604" 
d="M237 723q23 0 40.5 -10t32.5 -22t30.5 -22t34.5 -10q26 0 39 16.5t14 40.5h34q1 -20 -4.5 -38.5t-16 -32t-26 -21.5t-34.5 -8q-23 0 -40.5 10t-32.5 22t-30.5 22t-34.5 10q-26 0 -39.5 -16.5t-13.5 -40.5h-34q-2 41 20 70.5t61 29.5zM317 515q42 0 78 -14.5t62 -41.5
t40.5 -64.5t14.5 -83.5v-311h-56v304q0 72 -41 115.5t-107 43.5q-35 0 -64 -13t-49.5 -34.5t-32 -50.5t-11.5 -61v-304h-56v506h54v-86q8 18 23 35t36 30.5t48.5 21.5t60.5 8z" />
    <glyph glyph-name="ograve" unicode="&#xf2;" horiz-adv-x="627" 
d="M290 593l-131 191h64l112 -191h-45zM313 515q54 0 100.5 -18t81 -52t54.5 -82.5t20 -109.5t-20 -109.5t-54.5 -82.5t-81 -52t-100.5 -18t-100.5 18t-81 52t-54 82.5t-19.5 109.5t19.5 109.5t54 82.5t81 52t100.5 18zM313 465q-42 0 -78.5 -14.5t-63 -41.5t-42 -66.5
t-15.5 -89.5t15.5 -89.5t42 -67t63 -42t78.5 -14.5t78 14.5t63 42t42.5 67t15.5 89.5t-15.5 89.5t-42.5 66.5t-63 41.5t-78 14.5z" />
    <glyph glyph-name="oacute" unicode="&#xf3;" horiz-adv-x="627" 
d="M289 593l113 191h63l-130 -191h-46zM313 515q54 0 100.5 -18t81 -52t54.5 -82.5t20 -109.5t-20 -109.5t-54.5 -82.5t-81 -52t-100.5 -18t-100.5 18t-81 52t-54 82.5t-19.5 109.5t19.5 109.5t54 82.5t81 52t100.5 18zM313 465q-42 0 -78.5 -14.5t-63 -41.5t-42 -66.5
t-15.5 -89.5t15.5 -89.5t42 -67t63 -42t78.5 -14.5t78 14.5t63 42t42.5 67t15.5 89.5t-15.5 89.5t-42.5 66.5t-63 41.5t-78 14.5z" />
    <glyph glyph-name="ocircumflex" unicode="&#xf4;" horiz-adv-x="627" 
d="M412 594l-99 125l-98 -125h-49l121 166h52l122 -166h-49zM313 515q54 0 100.5 -18t81 -52t54.5 -82.5t20 -109.5t-20 -109.5t-54.5 -82.5t-81 -52t-100.5 -18t-100.5 18t-81 52t-54 82.5t-19.5 109.5t19.5 109.5t54 82.5t81 52t100.5 18zM313 465q-42 0 -78.5 -14.5
t-63 -41.5t-42 -66.5t-15.5 -89.5t15.5 -89.5t42 -67t63 -42t78.5 -14.5t78 14.5t63 42t42.5 67t15.5 89.5t-15.5 89.5t-42.5 66.5t-63 41.5t-78 14.5z" />
    <glyph glyph-name="otilde" unicode="&#xf5;" horiz-adv-x="627" 
d="M239 723q23 0 40.5 -10t32.5 -22t30.5 -22t34.5 -10q26 0 39 16.5t14 40.5h34q1 -20 -4.5 -38.5t-16 -32t-26 -21.5t-34.5 -8q-23 0 -40.5 10t-32.5 22t-30.5 22t-34.5 10q-26 0 -39.5 -16.5t-13.5 -40.5h-34q-2 41 20 70.5t61 29.5zM313 515q54 0 100.5 -18t81 -52
t54.5 -82.5t20 -109.5t-20 -109.5t-54.5 -82.5t-81 -52t-100.5 -18t-100.5 18t-81 52t-54 82.5t-19.5 109.5t19.5 109.5t54 82.5t81 52t100.5 18zM313 465q-42 0 -78.5 -14.5t-63 -41.5t-42 -66.5t-15.5 -89.5t15.5 -89.5t42 -67t63 -42t78.5 -14.5t78 14.5t63 42t42.5 67
t15.5 89.5t-15.5 89.5t-42.5 66.5t-63 41.5t-78 14.5z" />
    <glyph glyph-name="odieresis" unicode="&#xf6;" horiz-adv-x="627" 
d="M245 719q16 0 27.5 -10.5t11.5 -27.5q0 -16 -11.5 -26t-27.5 -10t-27 10t-11 26q0 17 11 27.5t27 10.5zM373 719q16 0 27 -10.5t11 -27.5q0 -16 -11 -26t-27 -10t-27 10t-11 26q0 17 11 27.5t27 10.5zM313 515q54 0 100.5 -18t81 -52t54.5 -82.5t20 -109.5t-20 -109.5
t-54.5 -82.5t-81 -52t-100.5 -18t-100.5 18t-81 52t-54 82.5t-19.5 109.5t19.5 109.5t54 82.5t81 52t100.5 18zM313 465q-42 0 -78.5 -14.5t-63 -41.5t-42 -66.5t-15.5 -89.5t15.5 -89.5t42 -67t63 -42t78.5 -14.5t78 14.5t63 42t42.5 67t15.5 89.5t-15.5 89.5t-42.5 66.5
t-63 41.5t-78 14.5z" />
    <glyph glyph-name="divide" unicode="&#xf7;" horiz-adv-x="546" 
d="M272 612q20 0 33 -13t13 -31q0 -19 -13 -31.5t-33 -12.5q-17 0 -30 12.5t-13 31.5q0 18 13 31t30 13zM33 344v52h478v-52h-478zM272 216q20 0 33 -12.5t13 -32.5q0 -17 -13 -30t-33 -13q-17 0 -30 13t-13 30q0 20 13 32.5t30 12.5z" />
    <glyph glyph-name="oslash" unicode="&#xf8;" horiz-adv-x="627" 
d="M490 450q37 -35 58 -84.5t21 -112.5q0 -61 -20 -109.5t-54.5 -82.5t-81 -52t-100.5 -18q-80 0 -142 39l-44 -57l-32 24l44 58q-38 34 -59.5 84t-21.5 114q0 61 19.5 109.5t54 82.5t81 52t100.5 18q83 0 145 -41l41 54l32 -24zM114 253q0 -51 15.5 -90t41.5 -66l255 335
q-48 33 -113 33q-42 0 -78.5 -14.5t-63 -41.5t-42 -66.5t-15.5 -89.5zM313 40q42 0 78 14.5t63 42t42.5 67t15.5 89.5q0 49 -14.5 87.5t-40.5 65.5l-255 -335q50 -31 111 -31z" />
    <glyph glyph-name="ugrave" unicode="&#xf9;" horiz-adv-x="585" 
d="M272 593l-131 191h64l112 -191h-45zM437 0v86q-7 -16 -20.5 -33t-33.5 -30.5t-46.5 -22.5t-60.5 -9q-42 0 -76.5 14.5t-58.5 41t-37 63.5t-13 82v314h55v-307q0 -70 37 -112.5t103 -42.5q35 0 62.5 13t46.5 35t29 50.5t10 59.5v304h56v-506h-53z" />
    <glyph glyph-name="uacute" unicode="&#xfa;" horiz-adv-x="585" 
d="M271 593l113 191h63l-130 -191h-46zM437 0v86q-7 -16 -20.5 -33t-33.5 -30.5t-46.5 -22.5t-60.5 -9q-42 0 -76.5 14.5t-58.5 41t-37 63.5t-13 82v314h55v-307q0 -70 37 -112.5t103 -42.5q35 0 62.5 13t46.5 35t29 50.5t10 59.5v304h56v-506h-53z" />
    <glyph glyph-name="ucircumflex" unicode="&#xfb;" horiz-adv-x="585" 
d="M394 594l-99 125l-98 -125h-49l121 166h52l122 -166h-49zM437 0v86q-7 -16 -20.5 -33t-33.5 -30.5t-46.5 -22.5t-60.5 -9q-42 0 -76.5 14.5t-58.5 41t-37 63.5t-13 82v314h55v-307q0 -70 37 -112.5t103 -42.5q35 0 62.5 13t46.5 35t29 50.5t10 59.5v304h56v-506h-53z" />
    <glyph glyph-name="udieresis" unicode="&#xfc;" horiz-adv-x="585" 
d="M228 719q16 0 27.5 -10.5t11.5 -27.5q0 -16 -11.5 -26t-27.5 -10t-27 10t-11 26q0 17 11 27.5t27 10.5zM356 719q16 0 27 -10.5t11 -27.5q0 -16 -11 -26t-27 -10t-27 10t-11 26q0 17 11 27.5t27 10.5zM437 0v86q-7 -16 -20.5 -33t-33.5 -30.5t-46.5 -22.5t-60.5 -9
q-42 0 -76.5 14.5t-58.5 41t-37 63.5t-13 82v314h55v-307q0 -70 37 -112.5t103 -42.5q35 0 62.5 13t46.5 35t29 50.5t10 59.5v304h56v-506h-53z" />
    <glyph glyph-name="yacute" unicode="&#xfd;" horiz-adv-x="509" 
d="M231 593l113 191h63l-130 -191h-46zM109 -255l115 273l-203 488h62l172 -424l172 424h62l-318 -761h-62z" />
    <glyph glyph-name="thorn" unicode="&#xfe;" horiz-adv-x="643" 
d="M151 408q22 47 70.5 77t120.5 30q51 0 96 -17.5t78 -51.5t52 -82.5t19 -110.5t-19 -110.5t-52 -82.5t-78 -51.5t-96 -17.5q-72 0 -120.5 29.5t-70.5 76.5v-352h-56v1032h56v-369zM337 465q-40 0 -74 -12t-59 -36t-39 -61t-14 -86v-35q0 -49 14 -85.5t39 -61t59 -36.5
t74 -12t75.5 14t62 41t41.5 66.5t15 90.5q0 52 -15 92t-41.5 67t-62 40.5t-75.5 13.5z" />
    <glyph glyph-name="ydieresis" unicode="&#xff;" horiz-adv-x="509" 
d="M187 719q16 0 27.5 -10.5t11.5 -27.5q0 -16 -11.5 -26t-27.5 -10t-27 10t-11 26q0 17 11 27.5t27 10.5zM315 719q16 0 27 -10.5t11 -27.5q0 -16 -11 -26t-27 -10t-27 10t-11 26q0 17 11 27.5t27 10.5zM109 -255l115 273l-203 488h62l172 -424l172 424h62l-318 -761h-62z
" />
    <glyph glyph-name="Amacron" unicode="&#x100;" horiz-adv-x="707" 
d="M232 844v44h245v-44h-245zM623 0l-88 217h-362l-89 -217h-65l309 748h51l309 -748h-65zM513 267l-159 390l-160 -390h319z" />
    <glyph glyph-name="amacron" unicode="&#x101;" horiz-adv-x="535" 
d="M152 643v44h245v-44h-245zM260 515q91 0 137.5 -50.5t46.5 -141.5v-323h-57v76q-28 -42 -71 -63.5t-97 -21.5q-72 0 -116.5 35t-44.5 104q0 37 13.5 64t38 44.5t58.5 27t75 11.5l144 9v36q0 67 -31 104.5t-95 37.5q-33 0 -58 -11t-41.5 -28.5t-24.5 -40t-8 -46.5l-57 2
q0 33 12.5 64t36.5 56t59 40t80 15zM249 230q-62 -4 -98.5 -26t-36.5 -73q0 -50 31.5 -70.5t81.5 -20.5q31 0 60.5 9t51.5 29.5t35.5 54t13.5 82.5v23z" />
    <glyph glyph-name="Abreve" unicode="&#x102;" horiz-adv-x="707" 
d="M496 926q0 -57 -39 -87t-103 -30t-103 30t-39 87h47q0 -35 25.5 -56t69.5 -21t69.5 21t25.5 56h47zM623 0l-88 217h-362l-89 -217h-65l309 748h51l309 -748h-65zM513 267l-159 390l-160 -390h319z" />
    <glyph glyph-name="abreve" unicode="&#x103;" horiz-adv-x="535" 
d="M416 718q0 -57 -39 -87t-103 -30t-103 30t-39 87h47q0 -35 25.5 -55.5t69.5 -20.5t69.5 20.5t25.5 55.5h47zM260 515q91 0 137.5 -50.5t46.5 -141.5v-323h-57v76q-28 -42 -71 -63.5t-97 -21.5q-72 0 -116.5 35t-44.5 104q0 37 13.5 64t38 44.5t58.5 27t75 11.5l144 9v36
q0 67 -31 104.5t-95 37.5q-33 0 -58 -11t-41.5 -28.5t-24.5 -40t-8 -46.5l-57 2q0 33 12.5 64t36.5 56t59 40t80 15zM249 230q-62 -4 -98.5 -26t-36.5 -73q0 -50 31.5 -70.5t81.5 -20.5q31 0 60.5 9t51.5 29.5t35.5 54t13.5 82.5v23z" />
    <glyph glyph-name="Aogonek" unicode="&#x104;" horiz-adv-x="707" 
d="M617 -153q18 0 32 3t28 9l6 -31q-16 -6 -32.5 -10t-39.5 -4q-43 0 -71.5 20.5t-28.5 58.5q0 39 28.5 66.5t79.5 50.5l-84 207h-362l-89 -217h-65l309 748h51l309 -748h-30q-48 -23 -76 -46t-28 -56q0 -26 18 -38.5t45 -12.5zM354 657l-160 -390h319z" />
    <glyph glyph-name="aogonek" unicode="&#x105;" horiz-adv-x="535" 
d="M456 -171q-16 -6 -32.5 -10t-39.5 -4q-43 0 -71.5 20.5t-28.5 58.5t27.5 65t75.5 50v67q-28 -42 -71 -63.5t-97 -21.5q-72 0 -116.5 35t-44.5 104q0 37 13.5 64t38 44.5t58.5 27t75 11.5l144 9v36q0 67 -31 104.5t-95 37.5q-33 0 -58 -11t-41.5 -28.5t-24.5 -40t-8 -46.5
l-57 2q0 33 12.5 64t36.5 56t59 40t80 15q91 0 137.5 -50.5t46.5 -141.5v-323h-15q-48 -23 -75 -45.5t-27 -55.5q0 -26 18 -38.5t45 -12.5q18 0 32 3t28 9zM227 40q31 0 60.5 9t51.5 29.5t35.5 54t13.5 82.5v23l-139 -8q-62 -4 -98.5 -26t-36.5 -73q0 -50 31.5 -70.5
t81.5 -20.5z" />
    <glyph glyph-name="Cacute" unicode="&#x106;" horiz-adv-x="799" 
d="M381 795l159 135h80l-184 -135h-55zM420 757q65 0 122.5 -19t101.5 -54t73 -85.5t37 -113.5l-61 -6q-7 53 -30.5 94.5t-60 70.5t-83.5 44.5t-101 15.5q-65 0 -119.5 -22t-94.5 -64.5t-62 -104t-22 -139.5q0 -80 23.5 -141.5t64 -103.5t95.5 -63.5t118 -21.5q53 0 99 14
t81.5 41t59.5 66t33 89l61 -5q-11 -60 -39.5 -108t-72 -81.5t-99.5 -51t-121 -17.5q-77 0 -143.5 25.5t-115.5 74.5t-76.5 120.5t-27.5 162.5t27 162.5t75 120.5t114 74.5t144 25.5z" />
    <glyph glyph-name="cacute" unicode="&#x107;" horiz-adv-x="570" 
d="M269 593l113 191h63l-130 -191h-46zM301 515q44 0 82.5 -13t67.5 -37t48 -58.5t24 -77.5l-55 -5q-8 67 -54 104.5t-113 37.5q-40 0 -74 -14t-59 -41t-39 -67t-14 -91t14.5 -91t39.5 -67t59 -41t74 -14q69 0 113 35t54 96l55 -4q-14 -82 -72.5 -129t-149.5 -47
q-52 0 -96.5 17.5t-77.5 51t-51.5 82t-18.5 111.5t18.5 111.5t51 82t77 51t96.5 17.5z" />
    <glyph glyph-name="Ccircumflex" unicode="&#x108;" horiz-adv-x="799" 
d="M507 795l-97 98l-96 -98h-50l121 135h52l120 -135h-50zM420 757q65 0 122.5 -19t101.5 -54t73 -85.5t37 -113.5l-61 -6q-7 53 -30.5 94.5t-60 70.5t-83.5 44.5t-101 15.5q-65 0 -119.5 -22t-94.5 -64.5t-62 -104t-22 -139.5q0 -80 23.5 -141.5t64 -103.5t95.5 -63.5
t118 -21.5q53 0 99 14t81.5 41t59.5 66t33 89l61 -5q-11 -60 -39.5 -108t-72 -81.5t-99.5 -51t-121 -17.5q-77 0 -143.5 25.5t-115.5 74.5t-76.5 120.5t-27.5 162.5t27 162.5t75 120.5t114 74.5t144 25.5z" />
    <glyph glyph-name="ccircumflex" unicode="&#x109;" horiz-adv-x="570" 
d="M392 594l-99 125l-98 -125h-49l121 166h52l122 -166h-49zM301 515q44 0 82.5 -13t67.5 -37t48 -58.5t24 -77.5l-55 -5q-8 67 -54 104.5t-113 37.5q-40 0 -74 -14t-59 -41t-39 -67t-14 -91t14.5 -91t39.5 -67t59 -41t74 -14q69 0 113 35t54 96l55 -4q-14 -82 -72.5 -129
t-149.5 -47q-52 0 -96.5 17.5t-77.5 51t-51.5 82t-18.5 111.5t18.5 111.5t51 82t77 51t96.5 17.5z" />
    <glyph glyph-name="Cdotaccent" unicode="&#x10a;" horiz-adv-x="799" 
d="M411 900q17 0 29.5 -13t12.5 -30t-12.5 -30t-29.5 -13q-18 0 -31 13t-13 30t13 30t31 13zM420 757q65 0 122.5 -19t101.5 -54t73 -85.5t37 -113.5l-61 -6q-7 53 -30.5 94.5t-60 70.5t-83.5 44.5t-101 15.5q-65 0 -119.5 -22t-94.5 -64.5t-62 -104t-22 -139.5
q0 -80 23.5 -141.5t64 -103.5t95.5 -63.5t118 -21.5q53 0 99 14t81.5 41t59.5 66t33 89l61 -5q-11 -60 -39.5 -108t-72 -81.5t-99.5 -51t-121 -17.5q-77 0 -143.5 25.5t-115.5 74.5t-76.5 120.5t-27.5 162.5t27 162.5t75 120.5t114 74.5t144 25.5z" />
    <glyph glyph-name="cdotaccent" unicode="&#x10b;" horiz-adv-x="570" 
d="M294 723q17 0 29.5 -13t12.5 -30t-12.5 -30t-29.5 -13q-18 0 -31 13t-13 30t13 30t31 13zM301 515q44 0 82.5 -13t67.5 -37t48 -58.5t24 -77.5l-55 -5q-8 67 -54 104.5t-113 37.5q-40 0 -74 -14t-59 -41t-39 -67t-14 -91t14.5 -91t39.5 -67t59 -41t74 -14q69 0 113 35
t54 96l55 -4q-14 -82 -72.5 -129t-149.5 -47q-52 0 -96.5 17.5t-77.5 51t-51.5 82t-18.5 111.5t18.5 111.5t51 82t77 51t96.5 17.5z" />
    <glyph glyph-name="Ccaron" unicode="&#x10c;" horiz-adv-x="799" 
d="M385 795l-121 135h50l96 -98l97 98h50l-120 -135h-52zM420 757q65 0 122.5 -19t101.5 -54t73 -85.5t37 -113.5l-61 -6q-7 53 -30.5 94.5t-60 70.5t-83.5 44.5t-101 15.5q-65 0 -119.5 -22t-94.5 -64.5t-62 -104t-22 -139.5q0 -80 23.5 -141.5t64 -103.5t95.5 -63.5
t118 -21.5q53 0 99 14t81.5 41t59.5 66t33 89l61 -5q-11 -60 -39.5 -108t-72 -81.5t-99.5 -51t-121 -17.5q-77 0 -143.5 25.5t-115.5 74.5t-76.5 120.5t-27.5 162.5t27 162.5t75 120.5t114 74.5t144 25.5z" />
    <glyph glyph-name="ccaron" unicode="&#x10d;" horiz-adv-x="570" 
d="M267 592l-121 165h49l98 -125l99 125h49l-122 -165h-52zM301 515q44 0 82.5 -13t67.5 -37t48 -58.5t24 -77.5l-55 -5q-8 67 -54 104.5t-113 37.5q-40 0 -74 -14t-59 -41t-39 -67t-14 -91t14.5 -91t39.5 -67t59 -41t74 -14q69 0 113 35t54 96l55 -4q-14 -82 -72.5 -129
t-149.5 -47q-52 0 -96.5 17.5t-77.5 51t-51.5 82t-18.5 111.5t18.5 111.5t51 82t77 51t96.5 17.5z" />
    <glyph glyph-name="Dcaron" unicode="&#x10e;" horiz-adv-x="797" 
d="M327 795l-121 135h50l96 -98l97 98h50l-120 -135h-52zM382 748q76 0 140.5 -25t112 -73t74.5 -117.5t27 -158.5t-27.5 -158.5t-75.5 -117.5t-113 -73t-140 -25h-282v748h284zM157 51h223q64 0 118 21t94 62t62.5 101.5t22.5 138.5t-22 138.5t-61.5 101.5t-93.5 62
t-118 21h-225v-646z" />
    <glyph glyph-name="dcaron" unicode="&#x10f;" horiz-adv-x="724" 
d="M550 777v-777h-54v97q-22 -46 -71.5 -76t-121.5 -30q-52 0 -96.5 17.5t-77.5 51t-52 82t-19 110.5t19 111t52 82.5t77.5 51.5t96.5 18q72 0 120.5 -29t70.5 -74v365h56zM666 736q20 0 30.5 -14t10.5 -37q0 -52 -21.5 -95.5t-70.5 -73.5v27q26 21 38.5 48.5t14.5 58.5h-1
q-17 0 -30 12.5t-13 30.5t12 30.5t30 12.5zM493 270q0 49 -14 86t-39 61t-59 36t-73 12q-41 0 -76.5 -13.5t-61.5 -40.5t-41 -66.5t-15 -91.5t15 -91.5t41 -66.5t61.5 -41t76.5 -14q39 0 73 12t59 36.5t39 61t14 86.5v34z" />
    <glyph glyph-name="Dcroat" unicode="&#x110;" horiz-adv-x="787" 
d="M403 748q76 0 140.5 -25t112 -73t74.5 -117.5t27 -158.5t-27.5 -158.5t-75.5 -117.5t-113 -73t-140 -25h-282v351h-118v46h118v351h284zM401 51q64 0 118 21t94 62t62.5 101.5t22.5 138.5t-22 138.5t-61.5 101.5t-93.5 62t-118 21h-225v-300h171v-46h-171v-300h223z" />
    <glyph glyph-name="dcroat" unicode="&#x111;" horiz-adv-x="636" 
d="M550 620v-620h-54v97q-22 -46 -71.5 -76t-121.5 -30q-52 0 -96.5 17.5t-77.5 51t-52 82t-19 110.5t19 111t52 82.5t77.5 51.5t96.5 18q72 0 120.5 -29t70.5 -74v208h-102v44h102v113h56v-113h87v-44h-87zM493 270q0 49 -14 86t-39 61t-59 36t-73 12q-41 0 -76.5 -13.5
t-61.5 -40.5t-41 -66.5t-15 -91.5t15 -91.5t41 -66.5t61.5 -41t76.5 -14q39 0 73 12t59 36.5t39 61t14 86.5v34z" />
    <glyph glyph-name="Emacron" unicode="&#x112;" horiz-adv-x="588" 
d="M206 844v44h245v-44h-245zM157 696v-282h350v-52h-350v-309h394v-53h-453v748h453v-52h-394z" />
    <glyph glyph-name="emacron" unicode="&#x113;" horiz-adv-x="587" 
d="M178 643v44h245v-44h-245zM117 232q1 -46 15.5 -81.5t39.5 -60t58 -37.5t72 -13q66 0 109.5 29t57.5 82l56 -4q-17 -70 -75.5 -113t-145.5 -43q-53 0 -98 17.5t-78 51t-51.5 82.5t-18.5 111t18.5 111t51 82.5t77 51t97.5 17.5q54 0 96.5 -18t72 -50.5t44.5 -78t15 -100.5
v-36h-413zM301 465q-38 0 -71 -12t-57.5 -35.5t-39.5 -58.5t-16 -80h358q0 40 -11 74.5t-33 59t-54.5 38.5t-75.5 14z" />
    <glyph glyph-name="Ebreve" unicode="&#x114;" horiz-adv-x="588" 
d="M470 926q0 -57 -39 -87t-103 -30t-103 30t-39 87h47q0 -35 25.5 -56t69.5 -21t69.5 21t25.5 56h47zM157 696v-282h350v-52h-350v-309h394v-53h-453v748h453v-52h-394z" />
    <glyph glyph-name="ebreve" unicode="&#x115;" horiz-adv-x="587" 
d="M300 601q-64 0 -103 30t-39 87h47q0 -35 25.5 -55.5t69.5 -20.5t69.5 20.5t25.5 55.5h47q0 -57 -39 -87t-103 -30zM117 232q1 -46 15.5 -81.5t39.5 -60t58 -37.5t72 -13q66 0 109.5 29t57.5 82l56 -4q-17 -70 -75.5 -113t-145.5 -43q-53 0 -98 17.5t-78 51t-51.5 82.5
t-18.5 111t18.5 111t51 82.5t77 51t97.5 17.5q54 0 96.5 -18t72 -50.5t44.5 -78t15 -100.5v-36h-413zM301 465q-38 0 -71 -12t-57.5 -35.5t-39.5 -58.5t-16 -80h358q0 40 -11 74.5t-33 59t-54.5 38.5t-75.5 14z" />
    <glyph glyph-name="Edotaccent" unicode="&#x116;" horiz-adv-x="588" 
d="M330 900q17 0 29.5 -13t12.5 -30t-12.5 -30t-29.5 -13q-18 0 -31 13t-13 30t13 30t31 13zM157 696v-282h350v-52h-350v-309h394v-53h-453v748h453v-52h-394z" />
    <glyph glyph-name="edotaccent" unicode="&#x117;" horiz-adv-x="587" 
d="M302 637q-18 0 -31 13t-13 30t13 30t31 13q17 0 29.5 -13t12.5 -30t-12.5 -30t-29.5 -13zM117 232q1 -46 15.5 -81.5t39.5 -60t58 -37.5t72 -13q66 0 109.5 29t57.5 82l56 -4q-17 -70 -75.5 -113t-145.5 -43q-53 0 -98 17.5t-78 51t-51.5 82.5t-18.5 111t18.5 111
t51 82.5t77 51t97.5 17.5q54 0 96.5 -18t72 -50.5t44.5 -78t15 -100.5v-36h-413zM301 465q-38 0 -71 -12t-57.5 -35.5t-39.5 -58.5t-16 -80h358q0 40 -11 74.5t-33 59t-54.5 38.5t-75.5 14z" />
    <glyph glyph-name="Eogonek" unicode="&#x118;" horiz-adv-x="588" 
d="M564 -172q-16 -6 -32.5 -10t-39.5 -4q-43 0 -71.5 20.5t-28.5 58.5q0 35 22.5 60.5t64.5 46.5h-381v748h453v-52h-394v-282h350v-52h-350v-309h394v-53h-12q-48 -23 -76 -46t-28 -56q0 -26 18 -38.5t45 -12.5q18 0 32 3t28 9z" />
    <glyph glyph-name="eogonek" unicode="&#x119;" horiz-adv-x="587" 
d="M117 232q1 -46 15.5 -81.5t39.5 -60t58 -37.5t72 -13q66 0 109.5 29t57.5 82l56 -4q-14 -59 -58 -99t-110 -52q-46 -22 -72.5 -45t-26.5 -55q0 -26 18 -38.5t45 -12.5q18 0 32 3t28 9l6 -31q-16 -6 -32.5 -10t-39.5 -4q-43 0 -71.5 20.5t-28.5 58.5q0 32 19.5 56t55.5 44
q-50 3 -92.5 21.5t-73.5 52t-48.5 81t-17.5 107.5q0 62 18.5 111t51 82.5t77 51t97.5 17.5q54 0 96.5 -18t72 -50.5t44.5 -78t15 -100.5v-36h-413zM301 465q-38 0 -71 -12t-57.5 -35.5t-39.5 -58.5t-16 -80h358q0 40 -11 74.5t-33 59t-54.5 38.5t-75.5 14z" />
    <glyph glyph-name="Ecaron" unicode="&#x11a;" horiz-adv-x="588" 
d="M303 795l-121 135h50l96 -98l97 98h50l-120 -135h-52zM157 696v-282h350v-52h-350v-309h394v-53h-453v748h453v-52h-394z" />
    <glyph glyph-name="ecaron" unicode="&#x11b;" horiz-adv-x="587" 
d="M153 757h49l98 -125l99 125h49l-122 -165h-52zM117 232q1 -46 15.5 -81.5t39.5 -60t58 -37.5t72 -13q66 0 109.5 29t57.5 82l56 -4q-17 -70 -75.5 -113t-145.5 -43q-53 0 -98 17.5t-78 51t-51.5 82.5t-18.5 111t18.5 111t51 82.5t77 51t97.5 17.5q54 0 96.5 -18t72 -50.5
t44.5 -78t15 -100.5v-36h-413zM301 465q-38 0 -71 -12t-57.5 -35.5t-39.5 -58.5t-16 -80h358q0 40 -11 74.5t-33 59t-54.5 38.5t-75.5 14z" />
    <glyph glyph-name="Gcircumflex" unicode="&#x11c;" horiz-adv-x="814" 
d="M267 795l121 135h52l120 -135h-50l-97 98l-96 -98h-50zM757 344q0 -84 -24 -149.5t-68.5 -111t-107 -69t-139.5 -23.5q-76 0 -141.5 25.5t-113.5 74.5t-75.5 120.5t-27.5 162.5t27 162.5t75 120.5t113 74.5t142 25.5q64 0 121 -18t101.5 -52.5t74 -84t38.5 -113.5
l-61 -10q-7 53 -30.5 94.5t-59.5 70.5t-83 44.5t-101 15.5q-65 0 -119 -21.5t-94 -63.5t-62 -103.5t-22 -141.5t22.5 -141.5t62.5 -103.5t94.5 -63.5t117.5 -21.5q59 0 108.5 16.5t86 50t58 84t25.5 118.5h-274v53h336v-22z" />
    <glyph glyph-name="gcircumflex" unicode="&#x11d;" horiz-adv-x="642" 
d="M414 594l-99 125l-98 -125h-49l121 166h52l122 -166h-49zM303 515q72 0 121.5 -30.5t71.5 -76.5v98h54v-540q0 -54 -17.5 -97t-48.5 -72t-74.5 -44.5t-95.5 -15.5q-50 0 -90.5 13t-70.5 35.5t-49.5 54t-27.5 68.5l57 2q6 -29 22 -52.5t40 -40t54 -25t63 -8.5
q40 0 73.5 11.5t57.5 34t37.5 56t13.5 76.5v132q-22 -45 -70.5 -74t-120.5 -29q-52 0 -96.5 17.5t-77.5 51.5t-52 82.5t-19 110.5t19 110.5t52 82.5t77.5 51.5t96.5 17.5zM308 465q-41 0 -76.5 -13.5t-61.5 -40.5t-41 -67t-15 -92q0 -51 15 -90.5t41 -66.5t61.5 -41
t76.5 -14q39 0 73 12t59 36.5t39 61t14 85.5v35q0 49 -14 86t-39 61t-59 36t-73 12z" />
    <glyph glyph-name="Gbreve" unicode="&#x11e;" horiz-adv-x="814" 
d="M413 809q-64 0 -103 30t-39 87h47q0 -35 25.5 -56t69.5 -21t69.5 21t25.5 56h47q0 -57 -39 -87t-103 -30zM757 344q0 -84 -24 -149.5t-68.5 -111t-107 -69t-139.5 -23.5q-76 0 -141.5 25.5t-113.5 74.5t-75.5 120.5t-27.5 162.5t27 162.5t75 120.5t113 74.5t142 25.5
q64 0 121 -18t101.5 -52.5t74 -84t38.5 -113.5l-61 -10q-7 53 -30.5 94.5t-59.5 70.5t-83 44.5t-101 15.5q-65 0 -119 -21.5t-94 -63.5t-62 -103.5t-22 -141.5t22.5 -141.5t62.5 -103.5t94.5 -63.5t117.5 -21.5q59 0 108.5 16.5t86 50t58 84t25.5 118.5h-274v53h336v-22z
" />
    <glyph glyph-name="gbreve" unicode="&#x11f;" horiz-adv-x="642" 
d="M457 718q0 -57 -39 -87t-103 -30t-103 30t-39 87h47q0 -35 25.5 -55.5t69.5 -20.5t69.5 20.5t25.5 55.5h47zM303 515q72 0 121.5 -30.5t71.5 -76.5v98h54v-540q0 -54 -17.5 -97t-48.5 -72t-74.5 -44.5t-95.5 -15.5q-50 0 -90.5 13t-70.5 35.5t-49.5 54t-27.5 68.5l57 2
q6 -29 22 -52.5t40 -40t54 -25t63 -8.5q40 0 73.5 11.5t57.5 34t37.5 56t13.5 76.5v132q-22 -45 -70.5 -74t-120.5 -29q-52 0 -96.5 17.5t-77.5 51.5t-52 82.5t-19 110.5t19 110.5t52 82.5t77.5 51.5t96.5 17.5zM308 465q-41 0 -76.5 -13.5t-61.5 -40.5t-41 -67t-15 -92
q0 -51 15 -90.5t41 -66.5t61.5 -41t76.5 -14q39 0 73 12t59 36.5t39 61t14 85.5v35q0 49 -14 86t-39 61t-59 36t-73 12z" />
    <glyph glyph-name="Gdotaccent" unicode="&#x120;" horiz-adv-x="814" 
d="M415 814q-18 0 -31 13t-13 30t13 30t31 13q17 0 29.5 -13t12.5 -30t-12.5 -30t-29.5 -13zM757 344q0 -84 -24 -149.5t-68.5 -111t-107 -69t-139.5 -23.5q-76 0 -141.5 25.5t-113.5 74.5t-75.5 120.5t-27.5 162.5t27 162.5t75 120.5t113 74.5t142 25.5q64 0 121 -18
t101.5 -52.5t74 -84t38.5 -113.5l-61 -10q-7 53 -30.5 94.5t-59.5 70.5t-83 44.5t-101 15.5q-65 0 -119 -21.5t-94 -63.5t-62 -103.5t-22 -141.5t22.5 -141.5t62.5 -103.5t94.5 -63.5t117.5 -21.5q59 0 108.5 16.5t86 50t58 84t25.5 118.5h-274v53h336v-22z" />
    <glyph glyph-name="gdotaccent" unicode="&#x121;" horiz-adv-x="642" 
d="M317 723q17 0 29.5 -13t12.5 -30t-12.5 -30t-29.5 -13q-18 0 -31 13t-13 30t13 30t31 13zM303 515q72 0 121.5 -30.5t71.5 -76.5v98h54v-540q0 -54 -17.5 -97t-48.5 -72t-74.5 -44.5t-95.5 -15.5q-50 0 -90.5 13t-70.5 35.5t-49.5 54t-27.5 68.5l57 2q6 -29 22 -52.5
t40 -40t54 -25t63 -8.5q40 0 73.5 11.5t57.5 34t37.5 56t13.5 76.5v132q-22 -45 -70.5 -74t-120.5 -29q-52 0 -96.5 17.5t-77.5 51.5t-52 82.5t-19 110.5t19 110.5t52 82.5t77.5 51.5t96.5 17.5zM308 465q-41 0 -76.5 -13.5t-61.5 -40.5t-41 -67t-15 -92q0 -51 15 -90.5
t41 -66.5t61.5 -41t76.5 -14q39 0 73 12t59 36.5t39 61t14 85.5v35q0 49 -14 86t-39 61t-59 36t-73 12z" />
    <glyph glyph-name="Gcommaaccent" unicode="&#x122;" horiz-adv-x="814" 
d="M757 344q0 -84 -24 -149.5t-68.5 -111t-107 -69t-139.5 -23.5q-76 0 -141.5 25.5t-113.5 74.5t-75.5 120.5t-27.5 162.5t27 162.5t75 120.5t113 74.5t142 25.5q64 0 121 -18t101.5 -52.5t74 -84t38.5 -113.5l-61 -10q-7 53 -30.5 94.5t-59.5 70.5t-83 44.5t-101 15.5
q-65 0 -119 -21.5t-94 -63.5t-62 -103.5t-22 -141.5t22.5 -141.5t62.5 -103.5t94.5 -63.5t117.5 -21.5q59 0 108.5 16.5t86 50t58 84t25.5 118.5h-274v53h336v-22zM415 -45q20 0 30.5 -14t10.5 -37q0 -52 -21.5 -95.5t-70.5 -73.5v27q26 21 38.5 48.5t14.5 58.5h-1
q-17 0 -30 12.5t-13 30.5t12 30.5t30 12.5z" />
    <glyph glyph-name="gcommaaccent" unicode="&#x123;" horiz-adv-x="642" 
d="M370 756q0 -52 -21.5 -95.5t-70.5 -73.5v27q26 21 38.5 48.5t14.5 58.5h-1q-17 0 -30 12.5t-13 30.5t12 30.5t30 12.5q20 0 30.5 -14t10.5 -37zM550 -34q0 -54 -17.5 -97t-48.5 -72t-74.5 -44.5t-95.5 -15.5q-50 0 -90.5 13t-70.5 35.5t-49.5 54t-27.5 68.5l57 2
q6 -29 22 -52.5t40 -40t54 -25t63 -8.5q40 0 73.5 11.5t57.5 34t37.5 56t13.5 76.5v132q-22 -45 -70.5 -74t-120.5 -29q-52 0 -96.5 17.5t-77.5 51.5t-52 82.5t-19 110.5t19 110.5t52 82.5t77.5 51.5t96.5 17.5q72 0 121.5 -30.5t71.5 -76.5v98h54v-540zM493 270
q0 49 -14 86t-39 61t-59 36t-73 12q-41 0 -76.5 -13.5t-61.5 -40.5t-41 -67t-15 -92q0 -51 15 -90.5t41 -66.5t61.5 -41t76.5 -14q39 0 73 12t59 36.5t39 61t14 85.5v35z" />
    <glyph glyph-name="Hcircumflex" unicode="&#x124;" horiz-adv-x="748" 
d="M470 795l-97 98l-96 -98h-50l121 135h52l120 -135h-50zM591 0v363h-434v-363h-59v748h59v-332h434v332h60v-748h-60z" />
    <glyph glyph-name="hcircumflex" unicode="&#x125;" horiz-adv-x="596" 
d="M220 796l-96 98l-97 -98h-50l121 135h52l120 -135h-50zM151 423q8 17 22.5 33.5t35.5 29.5t48 21t60 8q42 0 78 -14.5t62 -41.5t40.5 -64.5t14.5 -83.5v-311h-56v304q0 72 -41 115.5t-107 43.5q-35 0 -64 -13t-49.5 -34.5t-32 -50.5t-11.5 -61v-304h-56v777h56v-354z" />
    <glyph glyph-name="Hbar" unicode="&#x126;" horiz-adv-x="755" 
d="M654 556v-556h-59v363h-435v-363h-59v556h-94v46h94v146h59v-146h435v146h59v-146h94v-46h-94zM160 556v-140h435v140h-435z" />
    <glyph glyph-name="hbar" unicode="&#x127;" horiz-adv-x="596" 
d="M317 515q42 0 78 -14.5t62 -41.5t40.5 -64.5t14.5 -83.5v-311h-56v304q0 72 -41 115.5t-107 43.5q-35 0 -64 -13t-49.5 -34.5t-32 -50.5t-11.5 -61v-304h-56v620h-89v44h89v113h56v-113h100v-44h-100v-197q8 17 22.5 33.5t35.5 29.5t48 21t60 8z" />
    <glyph glyph-name="Itilde" unicode="&#x128;" horiz-adv-x="255" 
d="M57 923q23 0 40.5 -10t32.5 -22t30.5 -22t34.5 -10q26 0 39 16.5t14 40.5h34q1 -20 -4.5 -38.5t-16 -32t-26 -21.5t-34.5 -8q-23 0 -40.5 10t-32.5 22t-30.5 22t-34.5 10q-26 0 -39.5 -16.5t-13.5 -40.5h-34q-2 41 20 70.5t61 29.5zM98 0v748h59v-748h-59z" />
    <glyph glyph-name="itilde" unicode="&#x129;" 
d="M51 723q23 0 40.5 -10t32.5 -22t30.5 -22t34.5 -10q26 0 39 16.5t14 40.5h34q1 -20 -4.5 -38.5t-16 -32t-26 -21.5t-34.5 -8q-23 0 -40.5 10t-32.5 22t-30.5 22t-34.5 10q-26 0 -39.5 -16.5t-13.5 -40.5h-34q-2 41 20 70.5t61 29.5zM95 0v506h56v-506h-56z" />
    <glyph glyph-name="Imacron" unicode="&#x12a;" horiz-adv-x="255" 
d="M7 844v44h245v-44h-245zM98 0v748h59v-748h-59z" />
    <glyph glyph-name="imacron" unicode="&#x12b;" 
d="M2 643v44h245v-44h-245zM95 0v506h56v-506h-56z" />
    <glyph glyph-name="Ibreve" unicode="&#x12c;" horiz-adv-x="255" 
d="M271 926q0 -57 -39 -87t-103 -30t-103 30t-39 87h47q0 -35 25.5 -56t69.5 -21t69.5 21t25.5 56h47zM98 0v748h59v-748h-59z" />
    <glyph glyph-name="ibreve" unicode="&#x12d;" 
d="M266 718q0 -57 -39 -87t-103 -30t-103 30t-39 87h47q0 -35 25.5 -55.5t69.5 -20.5t69.5 20.5t25.5 55.5h47zM95 0v506h56v-506h-56z" />
    <glyph glyph-name="Iogonek" unicode="&#x12e;" horiz-adv-x="255" 
d="M159 -171q-16 -6 -32.5 -10t-39.5 -4q-43 0 -71.5 20.5t-28.5 58.5q0 39 29.5 67t81.5 51v736h59v-748h-25q-48 -23 -75 -45.5t-27 -55.5q0 -26 18 -38.5t45 -12.5q18 0 32 3t28 9z" />
    <glyph glyph-name="iogonek" unicode="&#x12f;" 
d="M126 637q-18 0 -31 13t-13 30t13 30t31 13q17 0 29.5 -13t12.5 -30t-12.5 -30t-29.5 -13zM97 -152q18 0 32 3t28 9l6 -31q-16 -6 -32.5 -10t-39.5 -4q-43 0 -71.5 20.5t-28.5 58.5t27.5 65.5t76.5 49.5v497h56v-506h-15q-48 -23 -75 -45.5t-27 -55.5q0 -26 18 -38.5
t45 -12.5z" />
    <glyph glyph-name="Idotaccent" unicode="&#x130;" horiz-adv-x="255" 
d="M130 900q17 0 29.5 -13t12.5 -30t-12.5 -30t-29.5 -13q-18 0 -31 13t-13 30t13 30t31 13zM98 0v748h59v-748h-59z" />
    <glyph glyph-name="dotlessi" unicode="&#x131;" 
d="M95 0v506h56v-506h-56z" />
    <glyph glyph-name="Jcircumflex" unicode="&#x134;" horiz-adv-x="561" 
d="M540 795l-97 98l-96 -98h-50l121 135h52l120 -135h-50zM470 222q0 -112 -58 -171.5t-160 -59.5t-161.5 60t-64.5 163l59 9q5 -87 49.5 -133t117.5 -46q75 0 117 44.5t42 132.5v527h59v-526z" />
    <glyph glyph-name="jcircumflex" unicode="&#x135;" 
d="M221 594l-99 125l-98 -125h-49l121 166h52l122 -166h-49zM152 -89q0 -89 -40 -130t-107 -41q-20 0 -34.5 4t-26.5 10l20 46q8 -3 15.5 -6.5t19.5 -3.5q46 0 72 28.5t26 90.5v597h55v-595z" />
    <glyph glyph-name="Kcommaaccent" unicode="&#x136;" horiz-adv-x="653" 
d="M558 0l-311 379l-90 -97v-282h-59v748h59v-379l353 379h76l-300 -323l346 -425h-74zM337 -40q20 0 30.5 -14t10.5 -37q0 -52 -21.5 -95.5t-70.5 -73.5v27q26 21 38.5 48.5t14.5 58.5h-1q-17 0 -30 12.5t-13 30.5t12 30.5t30 12.5z" />
    <glyph glyph-name="kcommaaccent" unicode="&#x137;" horiz-adv-x="515" 
d="M429 0l-220 244l-58 -57v-187h-56v777h56v-515l253 244h71l-226 -222l254 -284h-74zM279 -40q20 0 30.5 -14t10.5 -37q0 -52 -21.5 -95.5t-70.5 -73.5v27q26 21 38.5 48.5t14.5 58.5h-1q-17 0 -30 12.5t-13 30.5t12 30.5t30 12.5z" />
    <glyph glyph-name="Lacute" unicode="&#x139;" horiz-adv-x="591" 
d="M101 795l159 135h80l-184 -135h-55zM557 53v-53h-459v748h59v-695h400z" />
    <glyph glyph-name="lacute" unicode="&#x13a;" 
d="M96 807l159 135h80l-184 -135h-55zM95 0v777h56v-777h-56z" />
    <glyph glyph-name="Lcommaaccent" unicode="&#x13b;" horiz-adv-x="591" 
d="M557 0h-459v748h59v-695h400v-53zM336 -40q20 0 30.5 -14t10.5 -37q0 -52 -21.5 -95.5t-70.5 -73.5v27q26 21 38.5 48.5t14.5 58.5h-1q-17 0 -30 12.5t-13 30.5t12 30.5t30 12.5z" />
    <glyph glyph-name="lcommaaccent" unicode="&#x13c;" 
d="M95 0v777h56v-777h-56zM123 -40q20 0 30.5 -14t10.5 -37q0 -52 -21.5 -95.5t-70.5 -73.5v27q26 21 38.5 48.5t14.5 58.5h-1q-17 0 -30 12.5t-13 30.5t12 30.5t30 12.5z" />
    <glyph glyph-name="Lcaron" unicode="&#x13d;" horiz-adv-x="591" 
d="M557 53v-53h-459v748h59v-695h400zM562 685q0 -52 -21.5 -95.5t-70.5 -73.5v27q26 21 38.5 48.5t14.5 58.5h-1q-17 0 -30 12.5t-13 30.5t12 30.5t30 12.5q20 0 30.5 -14t10.5 -37z" />
    <glyph glyph-name="lcaron" unicode="&#x13e;" horiz-adv-x="333" 
d="M151 777v-777h-56v777h56zM277 736q20 0 30.5 -14t10.5 -37q0 -52 -21.5 -95.5t-70.5 -73.5v27q26 21 38.5 48.5t14.5 58.5h-1q-17 0 -30 12.5t-13 30.5t12 30.5t30 12.5z" />
    <glyph glyph-name="Ldot" unicode="&#x13f;" horiz-adv-x="591" 
d="M557 53v-53h-459v748h59v-695h400zM430 415q20 0 32.5 -12.5t12.5 -31.5t-12.5 -31.5t-32.5 -12.5q-18 0 -30.5 12.5t-12.5 31.5t12.5 31.5t30.5 12.5z" />
    <glyph glyph-name="ldot" unicode="&#x140;" horiz-adv-x="351" 
d="M95 0v777h56v-777h-56zM281 325q20 0 32.5 -12.5t12.5 -31.5t-12.5 -31.5t-32.5 -12.5q-18 0 -30.5 12.5t-12.5 31.5t12.5 31.5t30.5 12.5z" />
    <glyph glyph-name="Lslash" unicode="&#x141;" horiz-adv-x="601" 
d="M570 0h-459v266l-106 -40l-8 46l114 43v433h59v-411l123 47l9 -45l-132 -50v-236h400v-53z" />
    <glyph glyph-name="lslash" unicode="&#x142;" horiz-adv-x="267" 
d="M162 0h-56v259l-107 -44l-11 45l118 49v468h56v-445l107 44l11 -45l-118 -49v-282z" />
    <glyph glyph-name="Nacute" unicode="&#x143;" horiz-adv-x="743" 
d="M341 795l159 135h80l-184 -135h-55zM595 0l-438 637v-637h-59v748h49l438 -638v638h60v-748h-50z" />
    <glyph glyph-name="nacute" unicode="&#x144;" horiz-adv-x="604" 
d="M286 593l113 191h63l-130 -191h-46zM317 515q42 0 78 -14.5t62 -41.5t40.5 -64.5t14.5 -83.5v-311h-56v304q0 72 -41 115.5t-107 43.5q-35 0 -64 -13t-49.5 -34.5t-32 -50.5t-11.5 -61v-304h-56v506h54v-86q8 18 23 35t36 30.5t48.5 21.5t60.5 8z" />
    <glyph glyph-name="Ncommaaccent" unicode="&#x145;" horiz-adv-x="743" 
d="M645 0h-50l-438 637v-637h-59v748h49l438 -638v638h60v-748zM376 -40q20 0 30.5 -14t10.5 -37q0 -52 -21.5 -95.5t-70.5 -73.5v27q26 21 38.5 48.5t14.5 58.5h-1q-17 0 -30 12.5t-13 30.5t12 30.5t30 12.5z" />
    <glyph glyph-name="ncommaaccent" unicode="&#x146;" horiz-adv-x="604" 
d="M317 515q42 0 78 -14.5t62 -41.5t40.5 -64.5t14.5 -83.5v-311h-56v304q0 72 -41 115.5t-107 43.5q-35 0 -64 -13t-49.5 -34.5t-32 -50.5t-11.5 -61v-304h-56v506h54v-86q8 18 23 35t36 30.5t48.5 21.5t60.5 8zM309 -40q20 0 30.5 -14t10.5 -37q0 -52 -21.5 -95.5
t-70.5 -73.5v27q26 21 38.5 48.5t14.5 58.5h-1q-17 0 -30 12.5t-13 30.5t12 30.5t30 12.5z" />
    <glyph glyph-name="Ncaron" unicode="&#x147;" horiz-adv-x="743" 
d="M345 795l-121 135h50l96 -98l97 98h50l-120 -135h-52zM595 0l-438 637v-637h-59v748h49l438 -638v638h60v-748h-50z" />
    <glyph glyph-name="ncaron" unicode="&#x148;" horiz-adv-x="604" 
d="M284 592l-121 165h49l98 -125l99 125h49l-122 -165h-52zM317 515q42 0 78 -14.5t62 -41.5t40.5 -64.5t14.5 -83.5v-311h-56v304q0 72 -41 115.5t-107 43.5q-35 0 -64 -13t-49.5 -34.5t-32 -50.5t-11.5 -61v-304h-56v506h54v-86q8 18 23 35t36 30.5t48.5 21.5t60.5 8z" />
    <glyph glyph-name="Eng" unicode="&#x14a;" horiz-adv-x="743" 
d="M645 -39q0 -101 -58.5 -158.5t-160.5 -57.5v52q74 0 116.5 45t42.5 133v40l-428 622v-637h-59v748h49l438 -638v638h60v-787z" />
    <glyph glyph-name="eng" unicode="&#x14b;" horiz-adv-x="604" 
d="M513 -88q0 -84 -41.5 -127.5t-115.5 -43.5v49q46 0 73 30t27 90v394q0 72 -41 115.5t-107 43.5q-35 0 -64 -13t-49.5 -34.5t-32 -50.5t-11.5 -61v-304h-56v506h54v-86q8 18 23 35t36 30.5t48.5 21.5t60.5 8q42 0 78 -14.5t62 -41.5t40.5 -64.5t14.5 -83.5v-152h1v-247z
" />
    <glyph glyph-name="Omacron" unicode="&#x14c;" horiz-adv-x="861" 
d="M295 844v44h245v-44h-245zM431 757q77 0 144.5 -26t117.5 -75.5t78.5 -120.5t28.5 -161t-28.5 -161t-78.5 -120.5t-117.5 -75.5t-144.5 -26q-78 0 -145.5 26t-117.5 75.5t-79 120.5t-29 161t29 161t79 120.5t117.5 75.5t145.5 26zM431 704q-65 0 -121.5 -22t-98.5 -64.5
t-66 -104t-24 -139.5t24 -139.5t66 -103.5t98.5 -64.5t121.5 -22.5q64 0 120.5 22.5t98.5 64.5t66 103.5t24 139.5t-24 139.5t-66 104t-98.5 64.5t-120.5 22z" />
    <glyph glyph-name="omacron" unicode="&#x14d;" horiz-adv-x="627" 
d="M190 643v44h245v-44h-245zM313 515q54 0 100.5 -18t81 -52t54.5 -82.5t20 -109.5t-20 -109.5t-54.5 -82.5t-81 -52t-100.5 -18t-100.5 18t-81 52t-54 82.5t-19.5 109.5t19.5 109.5t54 82.5t81 52t100.5 18zM313 465q-42 0 -78.5 -14.5t-63 -41.5t-42 -66.5t-15.5 -89.5
t15.5 -89.5t42 -67t63 -42t78.5 -14.5t78 14.5t63 42t42.5 67t15.5 89.5t-15.5 89.5t-42.5 66.5t-63 41.5t-78 14.5z" />
    <glyph glyph-name="Obreve" unicode="&#x14e;" horiz-adv-x="861" 
d="M559 926q0 -57 -39 -87t-103 -30t-103 30t-39 87h47q0 -35 25.5 -56t69.5 -21t69.5 21t25.5 56h47zM431 757q77 0 144.5 -26t117.5 -75.5t78.5 -120.5t28.5 -161t-28.5 -161t-78.5 -120.5t-117.5 -75.5t-144.5 -26q-78 0 -145.5 26t-117.5 75.5t-79 120.5t-29 161t29 161
t79 120.5t117.5 75.5t145.5 26zM431 704q-65 0 -121.5 -22t-98.5 -64.5t-66 -104t-24 -139.5t24 -139.5t66 -103.5t98.5 -64.5t121.5 -22.5q64 0 120.5 22.5t98.5 64.5t66 103.5t24 139.5t-24 139.5t-66 104t-98.5 64.5t-120.5 22z" />
    <glyph glyph-name="obreve" unicode="&#x14f;" horiz-adv-x="627" 
d="M454 718q0 -57 -39 -87t-103 -30t-103 30t-39 87h47q0 -35 25.5 -55.5t69.5 -20.5t69.5 20.5t25.5 55.5h47zM313 515q54 0 100.5 -18t81 -52t54.5 -82.5t20 -109.5t-20 -109.5t-54.5 -82.5t-81 -52t-100.5 -18t-100.5 18t-81 52t-54 82.5t-19.5 109.5t19.5 109.5t54 82.5
t81 52t100.5 18zM313 465q-42 0 -78.5 -14.5t-63 -41.5t-42 -66.5t-15.5 -89.5t15.5 -89.5t42 -67t63 -42t78.5 -14.5t78 14.5t63 42t42.5 67t15.5 89.5t-15.5 89.5t-42.5 66.5t-63 41.5t-78 14.5z" />
    <glyph glyph-name="Ohungarumlaut" unicode="&#x150;" horiz-adv-x="861" 
d="M312 798l60 137h54l-68 -137h-46zM466 798l60 137h54l-68 -137h-46zM431 757q77 0 144.5 -26t117.5 -75.5t78.5 -120.5t28.5 -161t-28.5 -161t-78.5 -120.5t-117.5 -75.5t-144.5 -26q-78 0 -145.5 26t-117.5 75.5t-79 120.5t-29 161t29 161t79 120.5t117.5 75.5t145.5 26
zM431 704q-65 0 -121.5 -22t-98.5 -64.5t-66 -104t-24 -139.5t24 -139.5t66 -103.5t98.5 -64.5t121.5 -22.5q64 0 120.5 22.5t98.5 64.5t66 103.5t24 139.5t-24 139.5t-66 104t-98.5 64.5t-120.5 22z" />
    <glyph glyph-name="ohungarumlaut" unicode="&#x151;" horiz-adv-x="627" 
d="M208 607l63 146h53l-70 -146h-46zM362 607l63 146h54l-71 -146h-46zM313 515q54 0 100.5 -18t81 -52t54.5 -82.5t20 -109.5t-20 -109.5t-54.5 -82.5t-81 -52t-100.5 -18t-100.5 18t-81 52t-54 82.5t-19.5 109.5t19.5 109.5t54 82.5t81 52t100.5 18zM313 465
q-42 0 -78.5 -14.5t-63 -41.5t-42 -66.5t-15.5 -89.5t15.5 -89.5t42 -67t63 -42t78.5 -14.5t78 14.5t63 42t42.5 67t15.5 89.5t-15.5 89.5t-42.5 66.5t-63 41.5t-78 14.5z" />
    <glyph glyph-name="OE" unicode="&#x152;" horiz-adv-x="1230" 
d="M800 414h350v-52h-350v-309h394v-53h-453v153q-49 -78 -130 -120t-180 -42q-78 0 -145.5 26t-117.5 75.5t-79 120.5t-29 161t29 161t79 120.5t117.5 75.5t145.5 26q99 0 180 -42t130 -120v153h453v-52h-394v-282zM431 44q64 0 120.5 22.5t98.5 64.5t66 103.5t24 139.5
t-24 139.5t-66 104t-98.5 64.5t-120.5 22q-65 0 -121.5 -22t-98.5 -64.5t-66 -104t-24 -139.5t24 -139.5t66 -103.5t98.5 -64.5t121.5 -22.5z" />
    <glyph glyph-name="oe" unicode="&#x153;" horiz-adv-x="1042" 
d="M571 232q1 -46 15.5 -81.5t39.5 -60t58 -37.5t72 -13q66 0 109.5 29t57.5 82l56 -4q-17 -70 -75.5 -113t-146.5 -43q-73 0 -130.5 34t-87.5 97q-32 -63 -91.5 -97t-134.5 -34q-54 0 -100.5 18t-81 52t-54 82.5t-19.5 109.5t19.5 109.5t54 82.5t81 52t100.5 18
q75 0 134.5 -34t91.5 -97q30 64 87 97.5t130 33.5q54 0 96.5 -18t72 -50.5t44.5 -78t15 -100.5v-36h-413zM313 40q42 0 78 14.5t63 42t42.5 67t15.5 89.5t-15.5 89.5t-42.5 66.5t-63 41.5t-78 14.5t-78.5 -14.5t-63 -41.5t-42 -66.5t-15.5 -89.5t15.5 -89.5t42 -67t63 -42
t78.5 -14.5zM755 465q-38 0 -71 -12t-57.5 -35.5t-39.5 -58.5t-16 -80h358q0 40 -11 74.5t-33 59t-54.5 38.5t-75.5 14z" />
    <glyph glyph-name="Racute" unicode="&#x154;" horiz-adv-x="675" 
d="M283 795l159 135h80l-184 -135h-55zM389 316l-18 -1h-214v-315h-59v748h273q46 0 86.5 -13t71 -40t48 -67.5t17.5 -95.5q0 -86 -40.5 -136.5t-103.5 -69.5l184 -326h-66zM364 368q34 0 64.5 9.5t54 29.5t37.5 51t14 74t-14 74t-37.5 51t-54 29.5t-64.5 9.5h-207v-328h207
z" />
    <glyph glyph-name="racute" unicode="&#x155;" horiz-adv-x="321" 
d="M157 593l113 191h63l-130 -191h-46zM303 459q-35 0 -63.5 -12t-48 -32.5t-30 -48t-10.5 -58.5v-308h-56v506h54v-83q6 16 19 32.5t32 29t45 20.5t58 8v-54z" />
    <glyph glyph-name="Rcommaaccent" unicode="&#x156;" horiz-adv-x="675" 
d="M568 0l-179 316l-18 -1h-214v-315h-59v748h273q46 0 86.5 -13t71 -40t48 -67.5t17.5 -95.5q0 -86 -40.5 -136.5t-103.5 -69.5l184 -326h-66zM364 368q34 0 64.5 9.5t54 29.5t37.5 51t14 74t-14 74t-37.5 51t-54 29.5t-64.5 9.5h-207v-328h207zM350 -40q20 0 30.5 -14
t10.5 -37q0 -52 -21.5 -95.5t-70.5 -73.5v27q26 21 38.5 48.5t14.5 58.5h-1q-17 0 -30 12.5t-13 30.5t12 30.5t30 12.5z" />
    <glyph glyph-name="rcommaaccent" unicode="&#x157;" horiz-adv-x="321" 
d="M149 423q6 16 19 32.5t32 29t45 20.5t58 8v-54q-35 0 -63.5 -12t-48 -32.5t-30 -48t-10.5 -58.5v-308h-56v506h54v-83zM125 -40q20 0 30.5 -14t10.5 -37q0 -52 -21.5 -95.5t-70.5 -73.5v27q26 21 38.5 48.5t14.5 58.5h-1q-17 0 -30 12.5t-13 30.5t12 30.5t30 12.5z" />
    <glyph glyph-name="Rcaron" unicode="&#x158;" horiz-adv-x="675" 
d="M166 930h50l96 -98l97 98h50l-120 -135h-52zM389 316l-18 -1h-214v-315h-59v748h273q46 0 86.5 -13t71 -40t48 -67.5t17.5 -95.5q0 -86 -40.5 -136.5t-103.5 -69.5l184 -326h-66zM364 368q34 0 64.5 9.5t54 29.5t37.5 51t14 74t-14 74t-37.5 51t-54 29.5t-64.5 9.5h-207
v-328h207z" />
    <glyph glyph-name="rcaron" unicode="&#x159;" horiz-adv-x="321" 
d="M155 592l-121 165h49l98 -125l99 125h49l-122 -165h-52zM303 459q-35 0 -63.5 -12t-48 -32.5t-30 -48t-10.5 -58.5v-308h-56v506h54v-83q6 16 19 32.5t32 29t45 20.5t58 8v-54z" />
    <glyph glyph-name="Sacute" unicode="&#x15a;" horiz-adv-x="652" 
d="M297 795l159 135h80l-184 -135h-55zM326 757q52 0 96 -13t76.5 -38t52 -61.5t22.5 -83.5l-59 -4q-6 71 -56.5 109.5t-130.5 38.5q-47 0 -82.5 -12t-59 -32t-35 -47t-11.5 -58q0 -40 15 -65t41.5 -41t63 -26.5t80.5 -20.5q62 -14 110 -29t81 -37.5t50.5 -55.5t17.5 -82
q0 -54 -20.5 -93.5t-56 -65t-82.5 -37.5t-101 -12q-56 0 -105 13.5t-86 40t-59.5 64.5t-26.5 88l60 4q3 -37 21 -66t47 -49.5t67 -31.5t82 -11q42 0 78.5 9t63.5 27.5t42.5 47t15.5 68.5t-15.5 65t-44 41.5t-69 27.5t-91.5 23q-50 12 -93.5 25.5t-76 35t-51 55t-18.5 86.5
q0 41 15 78t46 64.5t77 44t109 16.5z" />
    <glyph glyph-name="sacute" unicode="&#x15b;" horiz-adv-x="495" 
d="M216 593l113 191h63l-130 -191h-46zM241 514q80 1 123.5 -39t52.5 -103l-56 -4q-6 45 -36.5 71.5t-85.5 25.5q-60 1 -89 -25t-29 -68q0 -25 10 -39t27.5 -23t42 -14t53.5 -12q41 -10 74 -21t56 -26.5t35 -38.5t12 -57q0 -74 -51 -112t-133 -38q-81 0 -131.5 37t-61.5 107
l56 4q8 -50 44.5 -74.5t93.5 -24.5q56 0 91.5 23.5t35.5 73.5q0 24 -8.5 39.5t-26 26.5t-44.5 18.5t-65 16.5q-35 8 -65.5 16.5t-53 22t-35 36t-12.5 58.5q0 64 44.5 104t131.5 39z" />
    <glyph glyph-name="Scircumflex" unicode="&#x15c;" horiz-adv-x="652" 
d="M423 795l-97 98l-96 -98h-50l121 135h52l120 -135h-50zM326 757q52 0 96 -13t76.5 -38t52 -61.5t22.5 -83.5l-59 -4q-6 71 -56.5 109.5t-130.5 38.5q-47 0 -82.5 -12t-59 -32t-35 -47t-11.5 -58q0 -40 15 -65t41.5 -41t63 -26.5t80.5 -20.5q62 -14 110 -29t81 -37.5
t50.5 -55.5t17.5 -82q0 -54 -20.5 -93.5t-56 -65t-82.5 -37.5t-101 -12q-56 0 -105 13.5t-86 40t-59.5 64.5t-26.5 88l60 4q3 -37 21 -66t47 -49.5t67 -31.5t82 -11q42 0 78.5 9t63.5 27.5t42.5 47t15.5 68.5t-15.5 65t-44 41.5t-69 27.5t-91.5 23q-50 12 -93.5 25.5t-76 35
t-51 55t-18.5 86.5q0 41 15 78t46 64.5t77 44t109 16.5z" />
    <glyph glyph-name="scircumflex" unicode="&#x15d;" horiz-adv-x="495" 
d="M339 594l-99 125l-98 -125h-49l121 166h52l122 -166h-49zM241 514q80 1 123.5 -39t52.5 -103l-56 -4q-6 45 -36.5 71.5t-85.5 25.5q-60 1 -89 -25t-29 -68q0 -25 10 -39t27.5 -23t42 -14t53.5 -12q41 -10 74 -21t56 -26.5t35 -38.5t12 -57q0 -74 -51 -112t-133 -38
q-81 0 -131.5 37t-61.5 107l56 4q8 -50 44.5 -74.5t93.5 -24.5q56 0 91.5 23.5t35.5 73.5q0 24 -8.5 39.5t-26 26.5t-44.5 18.5t-65 16.5q-35 8 -65.5 16.5t-53 22t-35 36t-12.5 58.5q0 64 44.5 104t131.5 39z" />
    <glyph glyph-name="Scedilla" unicode="&#x15e;" horiz-adv-x="652" 
d="M598 199q0 -52 -19 -90.5t-52 -64t-77.5 -38.5t-95.5 -15l-12 -55q51 -2 82.5 -24.5t31.5 -66.5q0 -23 -9.5 -40t-26 -28.5t-37.5 -17t-43 -5.5q-30 0 -54 6.5t-44 17.5l11 34q17 -10 37 -16t45 -6q30 0 54 13t24 42q0 31 -23 45.5t-65 14.5q-14 0 -24 -3l22 89
q-54 2 -100 16.5t-81 40.5t-56 63.5t-25 85.5l60 4q3 -37 21 -66t47 -49.5t67 -31.5t82 -11q42 0 78.5 9t63.5 27.5t42.5 47t15.5 68.5t-15.5 65t-44 41.5t-69 27.5t-91.5 23q-50 12 -93.5 25.5t-76 35t-51 55t-18.5 86.5q0 41 15 78t46 64.5t77 44t109 16.5q52 0 96 -13
t76.5 -38t52 -61.5t22.5 -83.5l-59 -4q-6 71 -56.5 109.5t-130.5 38.5q-47 0 -82.5 -12t-59 -32t-35 -47t-11.5 -58q0 -40 15 -65t41.5 -41t63 -26.5t80.5 -20.5q62 -14 110 -29t81 -37.5t50.5 -55.5t17.5 -82z" />
    <glyph glyph-name="scedilla" unicode="&#x15f;" horiz-adv-x="495" 
d="M431 141q0 -71 -46.5 -108.5t-121.5 -41.5l-12 -55q51 -2 82.5 -24.5t31.5 -66.5q0 -23 -9.5 -40t-26 -28.5t-37.5 -17t-43 -5.5q-30 0 -54 6.5t-44 17.5l11 34q17 -10 37 -16t45 -6q30 0 54 13t24 42q0 31 -23 45.5t-65 14.5q-14 0 -24 -3l22 89q-75 4 -121.5 41
t-56.5 103l56 4q8 -50 44.5 -74.5t93.5 -24.5q56 0 91.5 23.5t35.5 73.5q0 24 -8.5 39.5t-26 26.5t-44.5 18.5t-65 16.5q-35 8 -65.5 16.5t-53 22t-35 36t-12.5 58.5q0 64 44.5 104t131.5 39q80 1 123.5 -39t52.5 -103l-56 -4q-6 45 -36.5 71.5t-85.5 25.5q-60 1 -89 -25
t-29 -68q0 -25 10 -39t27.5 -23t42 -14t53.5 -12q41 -10 74 -21t56 -26.5t35 -38.5t12 -57z" />
    <glyph glyph-name="Scaron" unicode="&#x160;" horiz-adv-x="652" 
d="M301 795l-121 135h50l96 -98l97 98h50l-120 -135h-52zM326 757q52 0 96 -13t76.5 -38t52 -61.5t22.5 -83.5l-59 -4q-6 71 -56.5 109.5t-130.5 38.5q-47 0 -82.5 -12t-59 -32t-35 -47t-11.5 -58q0 -40 15 -65t41.5 -41t63 -26.5t80.5 -20.5q62 -14 110 -29t81 -37.5
t50.5 -55.5t17.5 -82q0 -54 -20.5 -93.5t-56 -65t-82.5 -37.5t-101 -12q-56 0 -105 13.5t-86 40t-59.5 64.5t-26.5 88l60 4q3 -37 21 -66t47 -49.5t67 -31.5t82 -11q42 0 78.5 9t63.5 27.5t42.5 47t15.5 68.5t-15.5 65t-44 41.5t-69 27.5t-91.5 23q-50 12 -93.5 25.5t-76 35
t-51 55t-18.5 86.5q0 41 15 78t46 64.5t77 44t109 16.5z" />
    <glyph glyph-name="scaron" unicode="&#x161;" horiz-adv-x="495" 
d="M214 592l-121 165h49l98 -125l99 125h49l-122 -165h-52zM241 514q80 1 123.5 -39t52.5 -103l-56 -4q-6 45 -36.5 71.5t-85.5 25.5q-60 1 -89 -25t-29 -68q0 -25 10 -39t27.5 -23t42 -14t53.5 -12q41 -10 74 -21t56 -26.5t35 -38.5t12 -57q0 -74 -51 -112t-133 -38
q-81 0 -131.5 37t-61.5 107l56 4q8 -50 44.5 -74.5t93.5 -24.5q56 0 91.5 23.5t35.5 73.5q0 24 -8.5 39.5t-26 26.5t-44.5 18.5t-65 16.5q-35 8 -65.5 16.5t-53 22t-35 36t-12.5 58.5q0 64 44.5 104t131.5 39z" />
    <glyph glyph-name="Tcaron" unicode="&#x164;" horiz-adv-x="677" 
d="M314 795l-121 135h50l96 -98l97 98h50l-120 -135h-52zM368 696v-696h-59v696h-292v52h643v-52h-292z" />
    <glyph glyph-name="tcaron" unicode="&#x165;" horiz-adv-x="475" 
d="M419 736q20 0 30.5 -14t10.5 -37q0 -52 -21.5 -95.5t-70.5 -73.5v27q26 21 38.5 48.5t14.5 58.5h-1q-17 0 -30 12.5t-13 30.5t12 30.5t30 12.5zM164 158q0 -62 27.5 -87t68.5 -25q17 0 30 1.5t23 3.5v-51q-11 -2 -26.5 -3.5t-37.5 -1.5q-62 0 -101.5 35.5t-39.5 117.5
l1 309h-96v49h96l1 179h57l-1 -179h145v-49h-145z" />
    <glyph glyph-name="Tbar" unicode="&#x166;" horiz-adv-x="677" 
d="M368 399h150v-47h-150v-352h-59v352h-150v47h150v297h-292v52h643v-52h-292v-297z" />
    <glyph glyph-name="tbar" unicode="&#x167;" horiz-adv-x="333" 
d="M260 46q17 0 30 1.5t23 3.5v-51q-11 -2 -26.5 -3.5t-37.5 -1.5q-62 0 -101.5 35.5t-39.5 117.5v104h-95v41h96v164h-96v49h96l1 179h57l-1 -179h145v-49h-145l-1 -164h146v-41h-146l-1 -94q0 -62 27.5 -87t68.5 -25z" />
    <glyph glyph-name="Utilde" unicode="&#x168;" horiz-adv-x="758" 
d="M306 923q23 0 40.5 -10t32.5 -22t30.5 -22t34.5 -10q26 0 39 16.5t14 40.5h34q1 -20 -4.5 -38.5t-16 -32t-26 -21.5t-34.5 -8q-23 0 -40.5 10t-32.5 22t-30.5 22t-34.5 10q-26 0 -39.5 -16.5t-13.5 -40.5h-34q-2 41 20 70.5t61 29.5zM666 269q0 -69 -20.5 -121t-58 -87
t-91 -52.5t-118.5 -17.5t-118 17.5t-90.5 52.5t-58 87t-20.5 121v479h59v-478q0 -113 61.5 -169.5t166.5 -56.5q52 0 94.5 14t72.5 42.5t46 70.5t16 99v478h59v-479z" />
    <glyph glyph-name="utilde" unicode="&#x169;" horiz-adv-x="585" 
d="M222 723q23 0 40.5 -10t32.5 -22t30.5 -22t34.5 -10q26 0 39 16.5t14 40.5h34q1 -20 -4.5 -38.5t-16 -32t-26 -21.5t-34.5 -8q-23 0 -40.5 10t-32.5 22t-30.5 22t-34.5 10q-26 0 -39.5 -16.5t-13.5 -40.5h-34q-2 41 20 70.5t61 29.5zM437 0v86q-7 -16 -20.5 -33
t-33.5 -30.5t-46.5 -22.5t-60.5 -9q-42 0 -76.5 14.5t-58.5 41t-37 63.5t-13 82v314h55v-307q0 -70 37 -112.5t103 -42.5q35 0 62.5 13t46.5 35t29 50.5t10 59.5v304h56v-506h-53z" />
    <glyph glyph-name="Umacron" unicode="&#x16a;" horiz-adv-x="758" 
d="M255 844v44h245v-44h-245zM666 269q0 -69 -20.5 -121t-58 -87t-91 -52.5t-118.5 -17.5t-118 17.5t-90.5 52.5t-58 87t-20.5 121v479h59v-478q0 -113 61.5 -169.5t166.5 -56.5q52 0 94.5 14t72.5 42.5t46 70.5t16 99v478h59v-479z" />
    <glyph glyph-name="umacron" unicode="&#x16b;" horiz-adv-x="585" 
d="M173 643v44h245v-44h-245zM437 0v86q-7 -16 -20.5 -33t-33.5 -30.5t-46.5 -22.5t-60.5 -9q-42 0 -76.5 14.5t-58.5 41t-37 63.5t-13 82v314h55v-307q0 -70 37 -112.5t103 -42.5q35 0 62.5 13t46.5 35t29 50.5t10 59.5v304h56v-506h-53z" />
    <glyph glyph-name="Ubreve" unicode="&#x16c;" horiz-adv-x="758" 
d="M519 926q0 -57 -39 -87t-103 -30t-103 30t-39 87h47q0 -35 25.5 -56t69.5 -21t69.5 21t25.5 56h47zM666 269q0 -69 -20.5 -121t-58 -87t-91 -52.5t-118.5 -17.5t-118 17.5t-90.5 52.5t-58 87t-20.5 121v479h59v-478q0 -113 61.5 -169.5t166.5 -56.5q52 0 94.5 14
t72.5 42.5t46 70.5t16 99v478h59v-479z" />
    <glyph glyph-name="ubreve" unicode="&#x16d;" horiz-adv-x="585" 
d="M437 718q0 -57 -39 -87t-103 -30t-103 30t-39 87h47q0 -35 25.5 -55.5t69.5 -20.5t69.5 20.5t25.5 55.5h47zM437 0v86q-7 -16 -20.5 -33t-33.5 -30.5t-46.5 -22.5t-60.5 -9q-42 0 -76.5 14.5t-58.5 41t-37 63.5t-13 82v314h55v-307q0 -70 37 -112.5t103 -42.5
q35 0 62.5 13t46.5 35t29 50.5t10 59.5v304h56v-506h-53z" />
    <glyph glyph-name="Uring" unicode="&#x16e;" horiz-adv-x="758" 
d="M377 979q40 0 68 -26t28 -67t-28 -67t-68 -26q-42 0 -70 26t-28 67t28 67t70 26zM377 944q-26 0 -43.5 -16t-17.5 -42t17.5 -42.5t43.5 -16.5t43 16.5t17 42.5t-17 42t-43 16zM666 269q0 -69 -20.5 -121t-58 -87t-91 -52.5t-118.5 -17.5t-118 17.5t-90.5 52.5t-58 87
t-20.5 121v479h59v-478q0 -113 61.5 -169.5t166.5 -56.5q52 0 94.5 14t72.5 42.5t46 70.5t16 99v478h59v-479z" />
    <glyph glyph-name="uring" unicode="&#x16f;" horiz-adv-x="585" 
d="M296 786q43 0 73.5 -28t30.5 -71q0 -44 -30.5 -71.5t-73.5 -27.5q-45 0 -75.5 27.5t-30.5 71.5q0 43 30.5 71t75.5 28zM295 749q-29 0 -47.5 -17.5t-18.5 -44.5q0 -28 18.5 -45t47.5 -17t47.5 17t18.5 45q0 27 -18.5 44.5t-47.5 17.5zM437 0v86q-7 -16 -20.5 -33
t-33.5 -30.5t-46.5 -22.5t-60.5 -9q-42 0 -76.5 14.5t-58.5 41t-37 63.5t-13 82v314h55v-307q0 -70 37 -112.5t103 -42.5q35 0 62.5 13t46.5 35t29 50.5t10 59.5v304h56v-506h-53z" />
    <glyph glyph-name="Uhungarumlaut" unicode="&#x170;" horiz-adv-x="758" 
d="M272 798l60 137h54l-68 -137h-46zM426 798l60 137h54l-68 -137h-46zM666 269q0 -69 -20.5 -121t-58 -87t-91 -52.5t-118.5 -17.5t-118 17.5t-90.5 52.5t-58 87t-20.5 121v479h59v-478q0 -113 61.5 -169.5t166.5 -56.5q52 0 94.5 14t72.5 42.5t46 70.5t16 99v478h59v-479z
" />
    <glyph glyph-name="uhungarumlaut" unicode="&#x171;" horiz-adv-x="585" 
d="M191 607l63 146h53l-70 -146h-46zM345 607l63 146h54l-71 -146h-46zM437 0v86q-7 -16 -20.5 -33t-33.5 -30.5t-46.5 -22.5t-60.5 -9q-42 0 -76.5 14.5t-58.5 41t-37 63.5t-13 82v314h55v-307q0 -70 37 -112.5t103 -42.5q35 0 62.5 13t46.5 35t29 50.5t10 59.5v304h56
v-506h-53z" />
    <glyph glyph-name="Uogonek" unicode="&#x172;" horiz-adv-x="758" 
d="M666 269q0 -113 -53.5 -180.5t-147.5 -88.5q-48 -23 -75 -46t-27 -55q0 -26 18 -38.5t45 -12.5q18 0 32 3t28 9l6 -31q-16 -6 -32.5 -10t-39.5 -4q-43 0 -71.5 20.5t-28.5 58.5q0 31 18 54t51 43h-11q-65 0 -118 17.5t-90.5 52.5t-58 87t-20.5 121v479h59v-478
q0 -113 61.5 -169.5t166.5 -56.5q52 0 94.5 14t72.5 42.5t46 70.5t16 99v478h59v-479z" />
    <glyph glyph-name="uogonek" unicode="&#x173;" horiz-adv-x="585" 
d="M504 -172q-16 -6 -32.5 -10t-39.5 -4q-43 0 -71.5 20.5t-28.5 58.5t28 65.5t77 50.5v77q-7 -16 -20.5 -33t-33.5 -30.5t-46.5 -22.5t-60.5 -9q-42 0 -76.5 14.5t-58.5 41t-37 63.5t-13 82v314h55v-307q0 -70 37 -112.5t103 -42.5q35 0 62.5 13t46.5 35t29 50.5t10 59.5
v304h56v-506h-11q-48 -23 -76 -46t-28 -56q0 -26 18 -38.5t45 -12.5q18 0 32 3t28 9z" />
    <glyph glyph-name="Wcircumflex" unicode="&#x174;" horiz-adv-x="1115" 
d="M654 795l-97 98l-96 -98h-50l121 135h52l120 -135h-50zM779 0l-222 639l-221 -639h-50l-262 748h65l223 -646l221 646h49l222 -646l223 646h63l-261 -748h-50z" />
    <glyph glyph-name="wcircumflex" unicode="&#x175;" horiz-adv-x="806" 
d="M502 594l-99 125l-98 -125h-49l121 166h52l122 -166h-49zM557 0l-153 411l-155 -411h-44l-192 506h61l155 -416l154 416h40l155 -416l154 416h61l-191 -506h-45z" />
    <glyph glyph-name="Ycircumflex" unicode="&#x176;" horiz-adv-x="666" 
d="M430 795l-97 98l-96 -98h-50l121 135h52l120 -135h-50zM362 0h-59v322l-283 426h69l244 -368l244 368h68l-283 -426v-322z" />
    <glyph glyph-name="ycircumflex" unicode="&#x177;" horiz-adv-x="509" 
d="M354 594l-99 125l-98 -125h-49l121 166h52l122 -166h-49zM109 -255l115 273l-203 488h62l172 -424l172 424h62l-318 -761h-62z" />
    <glyph glyph-name="Ydieresis" unicode="&#x178;" horiz-adv-x="666" 
d="M270 901q16 0 27.5 -11t11.5 -26q0 -17 -11.5 -27.5t-27.5 -10.5t-27 10.5t-11 27.5q0 15 11 26t27 11zM398 901q16 0 27 -11t11 -26q0 -17 -11 -27.5t-27 -10.5t-27 10.5t-11 27.5q0 15 11 26t27 11zM362 0h-59v322l-283 426h69l244 -368l244 368h68l-283 -426v-322z
" />
    <glyph glyph-name="Zacute" unicode="&#x179;" horiz-adv-x="614" 
d="M279 795l159 135h80l-184 -135h-55zM113 53h466v-53h-542v45l459 651h-441v52h517v-45z" />
    <glyph glyph-name="zacute" unicode="&#x17a;" horiz-adv-x="444" 
d="M200 593l113 191h63l-130 -191h-46zM99 46h315v-46h-382v38l302 422h-295v46h361v-37z" />
    <glyph glyph-name="Zdotaccent" unicode="&#x17b;" horiz-adv-x="614" 
d="M309 900q17 0 29.5 -13t12.5 -30t-12.5 -30t-29.5 -13q-18 0 -31 13t-13 30t13 30t31 13zM113 53h466v-53h-542v45l459 651h-441v52h517v-45z" />
    <glyph glyph-name="zdotaccent" unicode="&#x17c;" horiz-adv-x="444" 
d="M226 723q17 0 29.5 -13t12.5 -30t-12.5 -30t-29.5 -13q-18 0 -31 13t-13 30t13 30t31 13zM99 46h315v-46h-382v38l302 422h-295v46h361v-37z" />
    <glyph glyph-name="Zcaron" unicode="&#x17d;" horiz-adv-x="614" 
d="M282 795l-121 135h50l96 -98l97 98h50l-120 -135h-52zM113 53h466v-53h-542v45l459 651h-441v52h517v-45z" />
    <glyph glyph-name="zcaron" unicode="&#x17e;" horiz-adv-x="444" 
d="M198 592l-121 165h49l98 -125l99 125h49l-122 -165h-52zM99 46h315v-46h-382v38l302 422h-295v46h361v-37z" />
    <glyph glyph-name="florin" unicode="&#x192;" horiz-adv-x="425" 
d="M325 785q45 0 74.5 -12.5t52.5 -32.5l-25 -46q-17 17 -40 29t-56 12q-41 0 -66 -23t-34 -80l-22 -126h164v-48h-173l-106 -600h-57l106 600h-116v48h124l24 136q14 78 52.5 110.5t97.5 32.5z" />
    <glyph glyph-name="Aringacute" unicode="&#x1fa;" horiz-adv-x="707" 
d="M357 772q-41 0 -69 26t-28 67q0 27 13 48t34 32l139 110h74l-143 -99q33 -6 55 -31t22 -60q0 -41 -28 -67t-69 -26zM417 865q0 26 -17 42t-43 16t-43.5 -16t-17.5 -42t17.5 -42.5t43.5 -16.5t43 16.5t17 42.5zM623 0l-88 217h-362l-89 -217h-65l309 748h51l309 -748h-65z
M354 657l-160 -390h319z" />
    <glyph glyph-name="aringacute" unicode="&#x1fb;" horiz-adv-x="535" 
d="M268 586q-41 0 -69 26t-28 67q0 28 13 49t35 32l139 108h74l-145 -98q34 -5 56 -30t22 -61q0 -41 -28 -67t-69 -26zM329 679q0 27 -17.5 43t-43.5 16t-43.5 -16t-17.5 -43q0 -26 17.5 -42t43.5 -16t43.5 16t17.5 42zM260 515q91 0 137.5 -50.5t46.5 -141.5v-323h-57v76
q-28 -42 -71 -63.5t-97 -21.5q-72 0 -116.5 35t-44.5 104q0 37 13.5 64t38 44.5t58.5 27t75 11.5l144 9v36q0 67 -31 104.5t-95 37.5q-33 0 -58 -11t-41.5 -28.5t-24.5 -40t-8 -46.5l-57 2q0 33 12.5 64t36.5 56t59 40t80 15zM249 230q-62 -4 -98.5 -26t-36.5 -73
q0 -50 31.5 -70.5t81.5 -20.5q31 0 60.5 9t51.5 29.5t35.5 54t13.5 82.5v23z" />
    <glyph glyph-name="AEacute" unicode="&#x1fc;" horiz-adv-x="1002" 
d="M616 795l159 135h80l-184 -135h-55zM573 414h350v-52h-350v-309h394v-53h-453v217h-287l-144 -217h-72l496 748h460v-52h-394v-282zM514 654l-255 -387h255v387z" />
    <glyph glyph-name="aeacute" unicode="&#x1fd;" horiz-adv-x="917" 
d="M418 593l113 191h63l-130 -191h-46zM447 232q1 -46 16 -81.5t39.5 -60t58 -37.5t71.5 -13q67 0 110 29t58 82l56 -4q-17 -70 -76 -113t-146 -43q-71 0 -127 31.5t-87 91.5q-27 -60 -79 -91.5t-120 -31.5q-73 0 -118 35.5t-45 103.5q0 37 13.5 64t38 44.5t58.5 27t75 11.5
l144 9v22q0 74 -31 116t-95 42q-33 0 -58 -11t-41.5 -29t-24.5 -41t-8 -47l-57 2q0 33 12.5 64t36.5 56t59 40t80 15q63 0 104.5 -28t61.5 -82q32 54 85.5 82t120.5 28q54 0 97 -18t72 -50.5t44.5 -78t15.5 -100.5v-36h-414zM631 465q-38 0 -71 -12t-57.5 -35.5t-39.5 -58.5
t-16 -80h358q0 40 -11 74.5t-32.5 59t-54.5 38.5t-76 14zM249 231q-62 -5 -98.5 -26.5t-36.5 -72.5q0 -50 31.5 -71t81.5 -21q30 0 59 9t51.5 29t36.5 53.5t14 83.5v24z" />
    <glyph glyph-name="Oslashacute" unicode="&#x1fe;" horiz-adv-x="836" 
d="M389 795l159 135h80l-184 -135h-55zM674 673q58 -50 92 -125t34 -174q0 -90 -28.5 -161t-78.5 -120.5t-117.5 -75.5t-144.5 -26q-130 0 -225 69l-68 -88l-37 28l69 90q-51 50 -80.5 121.5t-29.5 162.5q0 90 29 161t79 120.5t117.5 75.5t145.5 26q57 0 109 -14.5t97 -42.5
l59 78l37 -28zM121 374q0 -76 22.5 -135.5t62.5 -101.5l397 519q-37 23 -80.5 35.5t-91.5 12.5q-65 0 -121.5 -22t-98.5 -64.5t-66 -104t-24 -139.5zM431 44q64 0 120.5 22.5t98.5 64.5t66 103.5t24 139.5q0 84 -27 147.5t-74 106.5l-399 -523q79 -61 191 -61z" />
    <glyph glyph-name="oslashacute" unicode="&#x1ff;" horiz-adv-x="627" 
d="M289 593l113 191h63l-130 -191h-46zM490 450q37 -35 58 -84.5t21 -112.5q0 -61 -20 -109.5t-54.5 -82.5t-81 -52t-100.5 -18q-80 0 -142 39l-44 -57l-32 24l44 58q-38 34 -59.5 84t-21.5 114q0 61 19.5 109.5t54 82.5t81 52t100.5 18q83 0 145 -41l41 54l32 -24zM114 253
q0 -51 15.5 -90t41.5 -66l255 335q-48 33 -113 33q-42 0 -78.5 -14.5t-63 -41.5t-42 -66.5t-15.5 -89.5zM313 40q42 0 78 14.5t63 42t42.5 67t15.5 89.5q0 49 -14.5 87.5t-40.5 65.5l-255 -335q50 -31 111 -31z" />
    <glyph glyph-name="Scommaaccent" unicode="&#x218;" horiz-adv-x="652" 
d="M339 403q62 -14 110 -29t81 -37.5t50.5 -55.5t17.5 -82q0 -54 -20.5 -93.5t-56 -65t-82.5 -37.5t-101 -12q-56 0 -105 13.5t-86 40t-59.5 64.5t-26.5 88l60 4q3 -37 21 -66t47 -49.5t67 -31.5t82 -11q42 0 78.5 9t63.5 27.5t42.5 47t15.5 68.5t-15.5 65t-44 41.5
t-69 27.5t-91.5 23q-50 12 -93.5 25.5t-76 35t-51 55t-18.5 86.5q0 41 15 78t46 64.5t77 44t109 16.5q52 0 96 -13t76.5 -38t52 -61.5t22.5 -83.5l-59 -4q-6 71 -56.5 109.5t-130.5 38.5q-47 0 -82.5 -12t-59 -32t-35 -47t-11.5 -58q0 -40 15 -65t41.5 -41t63 -26.5
t80.5 -20.5zM337 -45q20 0 30.5 -14t10.5 -37q0 -52 -21.5 -95.5t-70.5 -73.5v27q26 21 38.5 48.5t14.5 58.5h-1q-17 0 -30 12.5t-13 30.5t12 30.5t30 12.5z" />
    <glyph glyph-name="scommaaccent" unicode="&#x219;" horiz-adv-x="495" 
d="M254 284q41 -10 74 -21t56 -26.5t35 -38.5t12 -57q0 -74 -51 -112t-133 -38q-81 0 -131.5 37t-61.5 107l56 4q8 -50 44.5 -74.5t93.5 -24.5q56 0 91.5 23.5t35.5 73.5q0 24 -8.5 39.5t-26 26.5t-44.5 18.5t-65 16.5q-35 8 -65.5 16.5t-53 22t-35 36t-12.5 58.5
q0 64 44.5 104t131.5 39q80 1 123.5 -39t52.5 -103l-56 -4q-6 45 -36.5 71.5t-85.5 25.5q-60 1 -89 -25t-29 -68q0 -25 10 -39t27.5 -23t42 -14t53.5 -12zM246 -45q20 0 30.5 -14t10.5 -37q0 -52 -21.5 -95.5t-70.5 -73.5v27q26 21 38.5 48.5t14.5 58.5h-1q-17 0 -30 12.5
t-13 30.5t12 30.5t30 12.5z" />
    <glyph glyph-name="uni021A" unicode="&#x21a;" horiz-adv-x="677" 
d="M660 696h-292v-696h-59v696h-292v52h643v-52zM339 -40q20 0 30.5 -14t10.5 -37q0 -52 -21.5 -95.5t-70.5 -73.5v27q26 21 38.5 48.5t14.5 58.5h-1q-17 0 -30 12.5t-13 30.5t12 30.5t30 12.5z" />
    <glyph glyph-name="uni021B" unicode="&#x21b;" horiz-adv-x="333" 
d="M260 46q17 0 30 1.5t23 3.5v-51q-11 -2 -26.5 -3.5t-37.5 -1.5q-62 0 -101.5 35.5t-39.5 117.5l1 309h-96v49h96l1 179h57l-1 -179h145v-49h-145l-2 -299q0 -62 27.5 -87t68.5 -25zM201 -48q20 0 30.5 -14t10.5 -37q0 -52 -21.5 -95.5t-70.5 -73.5v27q26 21 38.5 48.5
t14.5 58.5h-1q-17 0 -30 12.5t-13 30.5t12 30.5t30 12.5z" />
    <glyph glyph-name="dotlessj" unicode="&#x237;" 
d="M152 -89q0 -89 -40 -130t-107 -41q-20 0 -34.5 4t-26.5 10l20 46q8 -3 15.5 -6.5t19.5 -3.5q46 0 72 28.5t26 90.5v597h55v-595z" />
    <glyph glyph-name="circumflex" unicode="&#x2c6;" horiz-adv-x="334" 
d="M266 594l-99 125l-98 -125h-49l121 166h52l122 -166h-49z" />
    <glyph glyph-name="caron" unicode="&#x2c7;" horiz-adv-x="334" 
d="M141 592l-121 165h49l98 -125l99 125h49l-122 -165h-52z" />
    <glyph glyph-name="breve" unicode="&#x2d8;" horiz-adv-x="334" 
d="M308 718q0 -57 -39 -87t-103 -30t-103 30t-39 87h47q0 -35 25.5 -55.5t69.5 -20.5t69.5 20.5t25.5 55.5h47z" />
    <glyph glyph-name="dotaccent" unicode="&#x2d9;" horiz-adv-x="134" 
d="M68 723q17 0 29.5 -13t12.5 -30t-12.5 -30t-29.5 -13q-18 0 -31 13t-13 30t13 30t31 13z" />
    <glyph glyph-name="ring" unicode="&#x2da;" horiz-adv-x="257" 
d="M130 786q43 0 73.5 -28t30.5 -71q0 -44 -30.5 -71.5t-73.5 -27.5q-45 0 -75.5 27.5t-30.5 71.5q0 43 30.5 71t75.5 28zM129 749q-29 0 -47.5 -17.5t-18.5 -44.5q0 -28 18.5 -45t47.5 -17t47.5 17t18.5 45q0 27 -18.5 44.5t-47.5 17.5z" />
    <glyph glyph-name="ogonek" unicode="&#x2db;" horiz-adv-x="230" 
d="M182 3q-48 -23 -76 -46t-28 -56q0 -26 18 -38.5t45 -12.5q18 0 32 3t28 9l6 -31q-16 -6 -32.5 -10t-39.5 -4q-43 0 -71.5 20.5t-28.5 58.5q0 45 37 75t101 54z" />
    <glyph glyph-name="tilde" unicode="&#x2dc;" horiz-adv-x="349" 
d="M103 723q23 0 40.5 -10t32.5 -22t30.5 -22t34.5 -10q26 0 39 16.5t14 40.5h34q1 -20 -4.5 -38.5t-16 -32t-26 -21.5t-34.5 -8q-23 0 -40.5 10t-32.5 22t-30.5 22t-34.5 10q-26 0 -39.5 -16.5t-13.5 -40.5h-34q-2 41 20 70.5t61 29.5z" />
    <glyph glyph-name="hungarumlaut" unicode="&#x2dd;" horiz-adv-x="312" 
d="M22 607l63 146h53l-70 -146h-46zM176 607l63 146h54l-71 -146h-46z" />
    <glyph glyph-name="uni0326" unicode="&#x326;" horiz-adv-x="0" 
d="M91 -40q20 0 30.5 -14t10.5 -37q0 -53 -21.5 -96t-70.5 -73v26q26 21 38.5 49t14.5 59h-1q-17 0 -30 12.5t-13 30.5t12 30.5t30 12.5z" />
    <glyph glyph-name="Omega" unicode="&#x3a9;" horiz-adv-x="776" 
d="M388 715q77 0 137 -26t100.5 -72t61.5 -109t21 -136q0 -57 -16 -107.5t-39.5 -92.5t-51 -74.5t-49.5 -52.5h200v-45h-264v40q27 19 57 52.5t55.5 76.5t42.5 94t17 107q0 64 -18 119.5t-52.5 95.5t-85 63t-116.5 23t-116.5 -23t-85.5 -63t-53 -95.5t-18 -119.5
q0 -56 17 -107t43 -94t56 -76.5t57 -52.5v-40h-265v45h201q-23 20 -50 52.5t-50.5 74.5t-39.5 92.5t-16 107.5q0 73 21 135.5t61.5 108.5t100.5 72.5t137 26.5z" />
    <glyph glyph-name="mu" unicode="&#x3bc;" horiz-adv-x="589" 
d="M495 0h-53v86q-7 -16 -20.5 -33t-34 -30.5t-47 -22.5t-60.5 -9q-79 0 -129 50v-296h-56v761h56v-307q0 -70 37 -112.5t103 -42.5q34 0 61.5 13t47 35t29.5 50.5t10 59.5v304h56v-506z" />
    <glyph glyph-name="pi" unicode="&#x3c0;" horiz-adv-x="629" 
d="M597 495q-18 -37 -47.5 -63t-81.5 -26h-28l-36 -302q-5 -30 5 -46.5t40 -16.5q17 0 31.5 6.5t28.5 18.5l26 -35q-21 -18 -43 -28t-51 -10q-52 0 -70.5 30t-13.5 79l38 304h-140l-29 -232q-9 -63 -22 -102.5t-28 -71.5h-54q11 21 19.5 41t15.5 41.5t12 46.5t10 56l27 221
h-47q-34 0 -58 -13t-41 -28l-26 38q22 20 52.5 36.5t82.5 16.5h273q45 0 69.5 17.5t41.5 47.5z" />
    <glyph glyph-name="Wgrave" unicode="&#x1e80;" horiz-adv-x="1115" 
d="M527 795l-183 135h80l159 -135h-56zM779 0l-222 639l-221 -639h-50l-262 748h65l223 -646l221 646h49l222 -646l223 646h63l-261 -748h-50z" />
    <glyph glyph-name="wgrave" unicode="&#x1e81;" horiz-adv-x="806" 
d="M380 593l-131 191h64l112 -191h-45zM557 0l-153 411l-155 -411h-44l-192 506h61l155 -416l154 416h40l155 -416l154 416h61l-191 -506h-45z" />
    <glyph glyph-name="Wacute" unicode="&#x1e82;" horiz-adv-x="1115" 
d="M528 795l159 135h80l-184 -135h-55zM779 0l-222 639l-221 -639h-50l-262 748h65l223 -646l221 646h49l222 -646l223 646h63l-261 -748h-50z" />
    <glyph glyph-name="wacute" unicode="&#x1e83;" horiz-adv-x="806" 
d="M379 593l113 191h63l-130 -191h-46zM557 0l-153 411l-155 -411h-44l-192 506h61l155 -416l154 416h40l155 -416l154 416h61l-191 -506h-45z" />
    <glyph glyph-name="Wdieresis" unicode="&#x1e84;" horiz-adv-x="1115" 
d="M494 901q16 0 27.5 -11t11.5 -26q0 -17 -11.5 -27.5t-27.5 -10.5t-27 10.5t-11 27.5q0 15 11 26t27 11zM622 901q16 0 27 -11t11 -26q0 -17 -11 -27.5t-27 -10.5t-27 10.5t-11 27.5q0 15 11 26t27 11zM779 0l-222 639l-221 -639h-50l-262 748h65l223 -646l221 646h49
l222 -646l223 646h63l-261 -748h-50z" />
    <glyph glyph-name="wdieresis" unicode="&#x1e85;" horiz-adv-x="806" 
d="M336 719q16 0 27.5 -10.5t11.5 -27.5q0 -16 -11.5 -26t-27.5 -10t-27 10t-11 26q0 17 11 27.5t27 10.5zM464 719q16 0 27 -10.5t11 -27.5q0 -16 -11 -26t-27 -10t-27 10t-11 26q0 17 11 27.5t27 10.5zM557 0l-153 411l-155 -411h-44l-192 506h61l155 -416l154 416h40
l155 -416l154 416h61l-191 -506h-45z" />
    <glyph glyph-name="Ygrave" unicode="&#x1ef2;" horiz-adv-x="666" 
d="M303 795l-183 135h80l159 -135h-56zM362 0h-59v322l-283 426h69l244 -368l244 368h68l-283 -426v-322z" />
    <glyph glyph-name="ygrave" unicode="&#x1ef3;" horiz-adv-x="509" 
d="M232 593l-131 191h64l112 -191h-45zM109 -255l115 273l-203 488h62l172 -424l172 424h62l-318 -761h-62z" />
    <glyph glyph-name="endash" unicode="&#x2013;" horiz-adv-x="561" 
d="M45 235v53h471v-53h-471z" />
    <glyph glyph-name="emdash" unicode="&#x2014;" horiz-adv-x="793" 
d="M45 235v53h703v-53h-703z" />
    <glyph glyph-name="quoteleft" unicode="&#x2018;" horiz-adv-x="161" 
d="M134 709q-26 -21 -39 -48.5t-14 -59.5h1q17 0 30 -12t13 -30t-12 -30.5t-30 -12.5q-20 0 -30.5 14t-10.5 37q0 52 21.5 95.5t70.5 73.5v-27z" />
    <glyph glyph-name="quoteright" unicode="&#x2019;" horiz-adv-x="161" 
d="M77 736q20 0 31 -14t11 -37q0 -53 -21.5 -96t-70.5 -73v26q26 21 38.5 49t14.5 59h-1q-17 0 -30 12.5t-13 30.5t12 30.5t29 12.5z" />
    <glyph glyph-name="quotesinglbase" unicode="&#x201a;" horiz-adv-x="161" 
d="M77 78q20 0 31 -14t11 -37q0 -52 -21.5 -95.5t-70.5 -73.5v27q26 21 38.5 48.5t14.5 58.5h-1q-17 0 -30 12.5t-13 30.5t12 30.5t29 12.5z" />
    <glyph glyph-name="quotedblleft" unicode="&#x201c;" horiz-adv-x="306" 
d="M35 567q0 52 21.5 95.5t70.5 73.5v-27q-26 -21 -38.5 -48.5t-14.5 -58.5h1q17 0 30 -12.5t13 -30.5t-12 -30.5t-30 -12.5q-20 0 -30.5 14t-10.5 37zM272 709q-26 -21 -38.5 -48.5t-14.5 -58.5h1q17 0 30 -12.5t13 -30.5t-12 -30.5t-30 -12.5q-20 0 -30.5 14t-10.5 37
q0 52 21.5 95.5t70.5 73.5v-27z" />
    <glyph glyph-name="quotedblright" unicode="&#x201d;" horiz-adv-x="306" 
d="M71 736q20 0 30.5 -14t10.5 -37q0 -52 -21.5 -95.5t-70.5 -73.5v27q26 21 38.5 48.5t14.5 58.5h-1q-17 0 -30 12.5t-13 30.5t12 30.5t30 12.5zM216 736q20 0 30.5 -14t10.5 -37q0 -52 -21.5 -95.5t-70.5 -73.5v27q26 21 38.5 48.5t14.5 58.5h-1q-17 0 -30 12.5t-13 30.5
t12 30.5t30 12.5z" />
    <glyph glyph-name="quotedblbase" unicode="&#x201e;" horiz-adv-x="306" 
d="M77 78q20 0 31 -14t11 -37q0 -52 -21.5 -95.5t-70.5 -73.5v27q26 21 38.5 48.5t14.5 58.5h-1q-17 0 -30 12.5t-13 30.5t12 30.5t29 12.5zM223 78q20 0 31 -14t11 -37q0 -52 -22 -95.5t-71 -73.5v27q26 21 39 48.5t15 58.5h-2q-17 0 -29.5 12.5t-12.5 30.5t11.5 30.5
t29.5 12.5z" />
    <glyph glyph-name="dagger" unicode="&#x2020;" horiz-adv-x="472" 
d="M449 534v-51h-185v-550h-56v550h-186v51h186v214h56v-214h185z" />
    <glyph glyph-name="daggerdbl" unicode="&#x2021;" horiz-adv-x="472" 
d="M449 534v-51h-185v-284h185v-52h-185v-214h-56v214h-186v52h186v284h-186v51h186v214h56v-214h185z" />
    <glyph glyph-name="bullet" unicode="&#x2022;" horiz-adv-x="349" 
d="M175 372q24 0 45 -9t37 -25t25 -37.5t9 -45.5q0 -25 -9 -46.5t-25 -37.5t-37 -25t-45 -9q-25 0 -46.5 9t-37.5 25t-25 37.5t-9 46.5q0 24 9 45.5t25 37.5t37.5 25t46.5 9z" />
    <glyph glyph-name="ellipsis" unicode="&#x2026;" horiz-adv-x="545" 
d="M91 79q20 0 32.5 -12.5t12.5 -31.5t-12.5 -31.5t-32.5 -12.5q-18 0 -30.5 12.5t-12.5 31.5t12.5 31.5t30.5 12.5zM269 79q19 0 32 -12.5t13 -31.5t-13 -31.5t-32 -12.5q-18 0 -30.5 12.5t-12.5 31.5t12.5 31.5t30.5 12.5zM448 79q19 0 32 -12.5t13 -31.5t-13 -31.5
t-32 -12.5q-18 0 -30.5 12.5t-12.5 31.5t12.5 31.5t30.5 12.5z" />
    <glyph glyph-name="perthousand" unicode="&#x2030;" horiz-adv-x="1194" 
d="M199 757q34 0 62.5 -12t49.5 -34t32.5 -54.5t11.5 -72.5t-11.5 -72t-32.5 -54.5t-49.5 -34.5t-62.5 -12q-33 0 -62 12t-50 34.5t-33 54.5t-12 72t12 72.5t33 54.5t50 34t62 12zM105 0l546 748h56l-546 -748h-56zM198 716q-48 0 -81 -34.5t-33 -97.5t33 -98t81 -35
q49 0 82 35t33 98t-32.5 97.5t-82.5 34.5zM613 337q34 0 62.5 -11.5t49.5 -34t33 -54.5t12 -72t-12 -72.5t-33 -55t-49.5 -34.5t-62.5 -12q-33 0 -61.5 12t-49.5 34.5t-33 55t-12 72.5t12 72t33 54.5t49.5 34t61.5 11.5zM995 337q34 0 62.5 -11.5t49.5 -34t33 -54.5t12 -72
t-12 -72.5t-33 -55t-49.5 -34.5t-62.5 -12q-33 0 -61.5 12t-49.5 34.5t-33 55t-12 72.5t12 72t33 54.5t49.5 34t61.5 11.5zM613 297q-49 0 -81.5 -34.5t-32.5 -97.5t33 -98t81 -35q49 0 81.5 35t32.5 98t-32.5 97.5t-81.5 34.5zM995 297q-49 0 -81.5 -34.5t-32.5 -97.5
t33 -98t81 -35q49 0 81.5 35t32.5 98t-32.5 97.5t-81.5 34.5z" />
    <glyph glyph-name="guilsinglleft" unicode="&#x2039;" horiz-adv-x="291" 
d="M85 252l184 -175l-41 -36l-213 211l213 210l41 -35z" />
    <glyph glyph-name="guilsinglright" unicode="&#x203a;" horiz-adv-x="291" 
d="M62 41l-40 36l184 175l-184 175l40 35l214 -210z" />
    <glyph glyph-name="fraction" unicode="&#x2044;" horiz-adv-x="184" 
d="M-205 0l537 748h58l-537 -748h-58z" />
    <glyph glyph-name="Euro" unicode="&#x20ac;" horiz-adv-x="706" 
d="M652 62q-43 -35 -95.5 -53t-122.5 -18q-59 0 -111 18.5t-94 54t-72 87t-44 117.5h-106l13 36h87q-2 17 -3 34t-1 35t1 35.5t3 34.5h-100l13 37h93q13 66 43 117.5t72 87t94.5 54t112.5 18.5q65 0 115 -16.5t91 -48.5l-19 -49q-35 29 -80.5 45t-103.5 16
q-100 0 -169.5 -59t-94.5 -165h379l-14 -37h-371q-2 -17 -3.5 -34t-1.5 -36q0 -18 1.5 -35t3.5 -34h312l-14 -36h-292q12 -54 37 -95.5t59 -70t77 -43.5t91 -15q59 0 105.5 17.5t83.5 48.5z" />
    <glyph glyph-name="trademark" unicode="&#x2122;" horiz-adv-x="875" 
d="M217 707v-318h-42v318h-138v41h319v-41h-139zM761 389v262l-144 -260h-20l-143 260v-262h-43v359h35l161 -293l162 293h35v-359h-43z" />
    <glyph glyph-name="estimated" unicode="&#x212e;" horiz-adv-x="619" 
d="M324 536q51 0 96 -17t78.5 -49t53.5 -79t20 -107h-425v-173q0 -36 22 -48q33 -29 71 -42.5t84 -13.5q77 0 136 37t94 91l13 -9q-42 -63 -103.5 -99.5t-139.5 -36.5q-57 0 -107.5 20t-87.5 55.5t-58.5 85.5t-21.5 110q0 61 21.5 111.5t58.5 87t87.5 56.5t107.5 20z
M323 520q-47 0 -86 -15t-68 -39q-23 -12 -23 -46v-121h333v125q0 23 -4.5 34t-20.5 21q-31 23 -63 32t-68 9z" />
    <glyph glyph-name="partialdiff" unicode="&#x2202;" horiz-adv-x="613" 
d="M293 757q56 0 97.5 -20.5t70.5 -55.5t47.5 -82.5t29 -102.5t14.5 -114.5t4 -117.5q0 -64 -18.5 -115t-52.5 -86t-81 -54t-104 -19q-52 0 -97.5 17.5t-79 49.5t-53 78t-19.5 103q0 55 19 100t52 77t78.5 49.5t98.5 17.5q63 0 113.5 -26.5t82.5 -73.5q-3 64 -14 122.5
t-34 103t-60 70.5t-94 26q-58 0 -99.5 -21t-78.5 -57l-33 48q44 39 92.5 61t118.5 22zM304 42q41 0 76 13.5t61 39t41 61.5t15 81v5q-1 43 -16 78.5t-41 61t-61 39.5t-75 14q-41 0 -76 -14.5t-61 -40.5t-41 -62t-15 -80t14.5 -80.5t40.5 -62t61.5 -39.5t76.5 -14z" />
    <glyph glyph-name="product" unicode="&#x220f;" horiz-adv-x="634" 
d="M499 696v-860h-51v860h-261v-860h-51v860h-107v52h576v-52h-106z" />
    <glyph glyph-name="summation" unicode="&#x2211;" horiz-adv-x="600" 
d="M119 696l242 -322l-242 -321h431v-53h-501v43l250 331l-250 331v43h501v-52h-431z" />
    <glyph glyph-name="minus" unicode="&#x2212;" horiz-adv-x="546" 
d="M33 344v52h478v-52h-478z" />
    <glyph glyph-name="radical" unicode="&#x221a;" horiz-adv-x="612" 
d="M319 -77l-139 352l-117 -77l-29 45l167 107l117 -306l212 651l46 -20z" />
    <glyph glyph-name="infinity" unicode="&#x221e;" horiz-adv-x="792" 
d="M588 489q39 0 70.5 -14.5t54 -39t35 -58t12.5 -71.5t-12.5 -71.5t-35 -58t-54 -39t-70.5 -14.5q-33 0 -61 10.5t-51.5 27t-42 36t-32.5 37.5l-25 33l-26 -33q-34 -39 -73.5 -67t-90.5 -28q-35 0 -63.5 13t-48.5 35.5t-31 52.5t-11 65q0 34 11 65t31 53.5t48.5 36
t63.5 13.5q52 0 91 -27t73 -70l25 -33l21 27q19 25 39.5 46.5t44 37.5t50 25.5t58.5 9.5zM588 441q-26 0 -47.5 -8t-41 -22.5t-37 -34t-35.5 -42.5l-23 -30l26 -33q13 -17 30 -35t36.5 -32.5t42.5 -23.5t49 -9q28 0 50.5 10.5t39 29t25.5 43t9 52.5t-9 52.5t-25.5 43t-39 29
t-50.5 10.5zM187 426q-25 0 -45 -9.5t-34.5 -26t-22 -38.5t-7.5 -47q0 -49 29 -84t80 -35q42 0 74.5 23.5t61.5 60.5l27 34l-26 35q-30 40 -62.5 63.5t-74.5 23.5z" />
    <glyph glyph-name="integral" unicode="&#x222b;" horiz-adv-x="341" 
d="M264 757q22 0 39.5 -3t34.5 -8l-10 -44q-24 9 -54 9q-44 0 -59.5 -24.5t-15.5 -84.5v-615q0 -85 -27 -121.5t-93 -36.5q-23 0 -41 3t-34 8l9 43q13 -3 26 -5.5t28 -2.5q46 0 64 25.5t18 88.5v615q0 81 25.5 117t89.5 36z" />
    <glyph glyph-name="approxequal" unicode="&#x2248;" horiz-adv-x="532" 
d="M505 505q-29 -36 -61.5 -57.5t-83.5 -21.5q-36 0 -60 10t-44 22.5t-39.5 22.5t-46.5 10q-20 0 -36 -4t-29.5 -11.5t-26 -19t-25.5 -26.5l-27 37q30 36 61 56t78 20q29 0 50 -10t41 -22t43 -22t56 -10q43 0 70 15.5t54 47.5zM505 276q-29 -36 -61.5 -57.5t-83.5 -21.5
q-36 0 -60 10t-44 22.5t-39.5 22.5t-46.5 10q-20 0 -36 -4t-29.5 -11.5t-26 -19t-25.5 -26.5l-27 37q30 36 61 56t78 20q29 0 50 -10t41 -22.5t43 -22.5t56 -10q43 0 70 16t54 48z" />
    <glyph glyph-name="notequal" unicode="&#x2260;" horiz-adv-x="546" 
d="M257 275h254v-53h-275l-53 -137l-49 13l48 124h-149v53h170l71 184h-241v53h262l53 137l49 -13l-48 -124h162v-53h-183z" />
    <glyph glyph-name="lessequal" unicode="&#x2264;" horiz-adv-x="508" 
d="M142 440l333 -145l-2 -57l-446 202l446 203l2 -56zM27 120v53h448v-53h-448z" />
    <glyph glyph-name="greaterequal" unicode="&#x2265;" horiz-adv-x="508" 
d="M35 238l-2 57l334 145l-334 147l2 56l446 -203zM33 120v53h448v-53h-448z" />
    <glyph glyph-name="lozenge" unicode="&#x25ca;" horiz-adv-x="525" 
d="M281 -55h-36l-206 401l206 402h36l205 -402zM263 27l164 319l-164 320l-165 -320z" />
    <glyph glyph-name="fi" unicode="&#xfb01;" horiz-adv-x="570" 
d="M280 781q20 0 32 -3v-49q-5 1 -11.5 1.5t-14.5 0.5q-51 0 -82 -31t-31 -91v-103h137v-49h-137v-457h-55v457h-103v49h103v102q0 84 44 128.5t118 44.5zM447 740q17 0 29.5 -12.5t12.5 -29.5t-12.5 -29t-29.5 -12t-29 12t-12 29t12 29.5t29 12.5zM419 0v506h56v-506h-56z
" />
    <glyph glyph-name="fl" unicode="&#xfb02;" horiz-adv-x="570" 
d="M280 781q20 0 32 -3v-49q-5 1 -11.5 1.5t-14.5 0.5q-51 0 -82 -31t-31 -91v-103h137v-49h-137v-457h-55v457h-103v49h103v102q0 84 44 128.5t118 44.5zM419 0v777h56v-777h-56z" />
    <glyph glyph-name="n.001" horiz-adv-x="604" 
d="M320 515q42 0 77.5 -14t61 -40.5t39.5 -63t14 -81.5v-316h-56v304q0 72 -41 115.5t-107 43.5q-35 0 -64 -13t-49.5 -34.5t-32 -50.5t-11.5 -61v-304h-56v506h53v-106q6 22 21 42.5t37 36.5t51 26t63 10z" />
    <glyph glyph-name="germandbls.cap" horiz-adv-x="682" 
d="M324 756q44 0 80.5 -9t67 -25t55 -37.5t45.5 -46.5l-131 -190q89 -20 142 -74t53 -151q0 -54 -19 -97t-54 -72.5t-83.5 -45.5t-107.5 -16q-26 0 -45.5 1.5t-35.5 6.5l12 52q25 -7 67 -7q45 0 83 12t65.5 35t42.5 55.5t15 74.5q0 45 -15 78.5t-43.5 57t-69 38.5t-92.5 24
l139 206q-27 31 -68 54.5t-106 23.5q-36 0 -67 -11.5t-54.5 -31.5t-36.5 -49t-13 -63v-549h-59v548q0 47 18 85.5t49.5 65.5t74 42t91.5 15z" />
    <glyph glyph-name="a.sups" horiz-adv-x="433" 
d="M214 755q75 0 111.5 -40t36.5 -116v-256h-48v67q-17 -33 -53 -53.5t-84 -20.5q-58 0 -94.5 27t-36.5 82q0 30 11.5 52t32 36.5t49 22.5t62.5 10l111 7v29q0 53 -24.5 81.5t-73.5 28.5q-27 0 -46.5 -8.5t-33 -22.5t-20 -32t-6.5 -37l-49 2q0 27 10 52t30 45t48.5 32
t66.5 12zM206 527q-50 -4 -79 -20.5t-29 -58.5q0 -39 24 -54.5t62 -15.5q23 0 46 6.5t41 23t29.5 42.5t11.5 65v20z" />
    <glyph glyph-name="b.sups" horiz-adv-x="517" 
d="M125 678q17 35 56 56t93 21q41 0 77 -14t62.5 -41t42 -66t15.5 -88q0 -50 -15.5 -89t-42 -66t-62.5 -41t-77 -14q-56 0 -95 22t-56 57v-72h-49v622h51v-287zM268 712q-30 0 -56.5 -9.5t-45.5 -28.5t-30 -48t-11 -67v-27q0 -38 11 -66.5t30 -47.5t45.5 -28.5t56.5 -9.5
q32 0 60 10.5t48.5 31.5t32 52t11.5 71t-11.5 71t-32 52.5t-48.5 32.5t-60 11z" />
    <glyph glyph-name="c.sups" horiz-adv-x="458" 
d="M241 755q36 0 67 -10.5t54.5 -29.5t38.5 -47t19 -62l-49 -4q-7 52 -42 81t-88 29q-31 0 -57.5 -11t-46 -32.5t-30.5 -52.5t-11 -71t11.5 -70.5t31 -51.5t46 -32t57.5 -11q54 0 87.5 27t41.5 75l50 -5q-11 -66 -58.5 -103.5t-120.5 -37.5q-42 0 -78 14t-62.5 40.5
t-41.5 65.5t-15 89t14.5 89t41 66t62.5 41t78 14z" />
    <glyph glyph-name="d.sups" horiz-adv-x="517" 
d="M394 343v72q-17 -35 -56.5 -57t-94.5 -22q-41 0 -77 14t-63 41t-42.5 66t-15.5 89q0 49 15.5 88t42.5 66t63 41t77 14q54 0 93 -21t56 -56v287h50v-622h-48zM249 712q-32 0 -60 -11t-48.5 -32.5t-32 -52.5t-11.5 -71t11.5 -71t32 -52t48.5 -31.5t60 -10.5q30 0 56.5 9.5
t45.5 28.5t30 47.5t11 66.5v27q0 38 -11 67t-30 48t-45.5 28.5t-56.5 9.5z" />
    <glyph glyph-name="e.sups" horiz-adv-x="470" 
d="M99 528q2 -72 42.5 -110t100.5 -38q52 0 85 23t44 64l51 -3q-14 -60 -61.5 -94t-117.5 -34q-42 0 -78 14t-63 40.5t-42 65.5t-15 89t15 89t41 66t62.5 41t78.5 14q88 0 136 -54t48 -144v-29h-327zM242 712q-60 0 -100 -37t-43 -106h276q0 31 -9 57t-25.5 45t-41 30
t-57.5 11z" />
    <glyph glyph-name="f.sups" horiz-adv-x="261" 
d="M227 967q10 0 16 -0.5t11 -1.5v-44q-4 1 -9.5 1h-11.5q-41 0 -64.5 -24t-23.5 -70v-80h106v-45h-106v-360h-52v360h-81v45h81v79q0 68 36.5 104t97.5 36z" />
    <glyph glyph-name="g.sups" horiz-adv-x="516" 
d="M243 755q55 0 94.5 -22t56.5 -57v72h48v-431q0 -88 -52.5 -136t-137.5 -48q-82 0 -130.5 38.5t-62.5 99.5l52 2q4 -23 16.5 -41t31 -31t42 -19.5t49.5 -6.5q63 0 102.5 35.5t39.5 102.5v101q-18 -35 -56.5 -56.5t-92.5 -21.5q-41 0 -77 14t-63 41t-42.5 66t-15.5 89
q0 49 15.5 88t42.5 66t63 41t77 14zM249 712q-32 0 -60 -11t-48.5 -32t-32 -52t-11.5 -71t11.5 -71t32 -52t48.5 -32t60 -11q30 0 56.5 9.5t45.5 28.5t30 48t11 67v27q0 38 -11 66.5t-30 47.5t-45.5 28.5t-56.5 9.5z" />
    <glyph glyph-name="h.sups" horiz-adv-x="477" 
d="M125 687q7 12 18 24t27.5 21.5t37.5 16t48 6.5q34 0 62.5 -11.5t49.5 -32t32.5 -50t11.5 -65.5v-253h-51v242q0 56 -32 89.5t-83 33.5q-27 0 -49.5 -10t-38 -27t-24.5 -39.5t-9 -47.5v-241h-51v622h51v-278z" />
    <glyph glyph-name="i.sups" horiz-adv-x="201" 
d="M100 937q14 0 25 -10.5t11 -25.5t-11 -25t-25 -10q-16 0 -26 10t-10 25t10.5 25.5t25.5 10.5zM75 343v405h51v-405h-51z" />
    <glyph glyph-name="j.sups" horiz-adv-x="201" 
d="M99 937q15 0 26 -10.5t11 -25.5t-11 -25t-26 -10t-25 10t-10 25t10 25.5t25 10.5zM127 275q0 -69 -34 -104.5t-93 -35.5q-10 0 -16 0.5t-12 1.5v45q5 -1 9.5 -1.5t12.5 -0.5q38 0 60 23.5t22 69.5v475h51v-473z" />
    <glyph glyph-name="k.sups" horiz-adv-x="415" 
d="M320 748h68l-181 -178l199 -227h-64l-171 191l-46 -44v-147h-51v622h51v-408z" />
    <glyph glyph-name="l.sups" horiz-adv-x="199" 
d="M74 343v622h51v-622h-51z" />
    <glyph glyph-name="m.sups" horiz-adv-x="750" 
d="M525 755q69 0 111 -43.5t42 -115.5v-253h-50v242q0 56 -29.5 89.5t-80.5 33.5q-27 0 -48.5 -10t-37 -27t-23.5 -39.5t-8 -47.5v-241h-51v242q0 56 -29 89.5t-80 33.5q-27 0 -48.5 -10t-36.5 -27t-23 -39.5t-8 -47.5v-241h-51v405h49v-61q5 10 15.5 21.5t26.5 22t37 17.5
t47 7q49 0 84.5 -22t52.5 -62q17 37 52.5 60.5t86.5 23.5z" />
    <glyph glyph-name="n.sups" horiz-adv-x="483" 
d="M256 755q34 0 62.5 -11.5t49.5 -32t32.5 -50t11.5 -65.5v-253h-51v242q0 56 -32 89.5t-83 33.5q-27 0 -49.5 -10t-38 -27t-24.5 -39.5t-9 -47.5v-241h-51v405h49v-61q7 12 18.5 24t28 21.5t38 16t48.5 6.5z" />
    <glyph glyph-name="o.sups" horiz-adv-x="502" 
d="M250 755q43 0 81 -14.5t65.5 -41.5t43.5 -66t16 -88t-16 -87.5t-43.5 -65.5t-65.5 -41.5t-81 -14.5t-80.5 14.5t-65 41.5t-43.5 65.5t-16 87.5t16 88t43.5 66t65 41.5t80.5 14.5zM251 712q-32 0 -60 -11.5t-49 -33t-33 -52.5t-12 -70t12 -69.5t33 -52t49 -32.5t60 -11
q33 0 61 11t49 32.5t33 52t12 69.5t-12 70t-33 52.5t-49 33t-61 11.5z" />
    <glyph glyph-name="p.sups" horiz-adv-x="517" 
d="M274 755q41 0 77 -14t62.5 -41t42 -66t15.5 -88q0 -50 -15.5 -89t-42 -66t-62.5 -41t-77 -14q-54 0 -93 21.5t-56 56.5v-275h-51v609h49v-72q17 35 56 57t95 22zM268 712q-30 0 -56.5 -9.5t-45.5 -28.5t-30 -47.5t-11 -66.5v-27q0 -38 11 -67t30 -48t45.5 -28.5
t56.5 -9.5q32 0 60 11t48.5 32t32 52t11.5 71t-11.5 71t-32 52t-48.5 32t-60 11z" />
    <glyph glyph-name="q.sups" horiz-adv-x="517" 
d="M243 755q55 0 94.5 -22t56.5 -57v72h48v-609h-50v275q-17 -35 -56 -56.5t-93 -21.5q-41 0 -77 14t-63 41t-42.5 66t-15.5 89q0 49 15.5 88t42.5 66t63 41t77 14zM249 712q-32 0 -60 -11t-48.5 -32t-32 -52t-11.5 -71t11.5 -71t32 -52t48.5 -32t60 -11q30 0 56.5 9.5
t45.5 28.5t30 48t11 67v27q0 38 -11 66.5t-30 47.5t-45.5 28.5t-56.5 9.5z" />
    <glyph glyph-name="r.sups" horiz-adv-x="258" 
d="M246 705q-28 0 -50.5 -9.5t-38 -25.5t-24 -37.5t-8.5 -45.5v-244h-51v405h49v-59q13 24 42.5 44.5t80.5 20.5v-49z" />
    <glyph glyph-name="s.sups" horiz-adv-x="397" 
d="M193 755q65 0 100 -32t43 -84l-51 -4q-5 36 -28 56.5t-64 20.5q-46 0 -69 -20t-23 -53q0 -19 7.5 -30t21.5 -17.5t33 -10.5t42 -9q34 -8 60.5 -16.5t44.5 -21.5t27.5 -31.5t9.5 -45.5q0 -60 -41.5 -90.5t-108.5 -30.5q-65 0 -106 30t-49 87l50 4q6 -39 34 -58.5t71 -19.5
q44 0 71.5 18t27.5 58q0 18 -6.5 29.5t-20 20t-35 14.5t-50.5 13q-29 6 -53.5 13t-42.5 18t-28 29t-10 47q0 53 36 84.5t107 31.5z" />
    <glyph glyph-name="t.sups" horiz-adv-x="263" 
d="M205 384q14 0 25 1t19 3v-45q-17 -4 -53 -4q-51 0 -83.5 28.5t-31.5 95.5l1 240h-76v45h76l1 143h50l-1 -143h116v-45h-116l-1 -234q0 -48 21 -66.5t53 -18.5z" />
    <glyph glyph-name="u.sups" horiz-adv-x="470" 
d="M347 343v60q-7 -12 -18 -23.5t-26.5 -21.5t-36 -16t-45.5 -6q-69 0 -109.5 42.5t-40.5 114.5v255h51v-244q0 -55 28 -87.5t80 -32.5q27 0 48 9.5t36 26t23 38t8 45.5v245h50v-405h-48z" />
    <glyph glyph-name="v.sups" horiz-adv-x="411" 
d="M186 343l-176 405h56l140 -326l140 326h55l-175 -405h-40z" />
    <glyph glyph-name="w.sups" horiz-adv-x="649" 
d="M446 343l-121 328l-122 -328h-38l-155 405h56l121 -323l120 323h36l120 -323l120 323h55l-154 -405h-38z" />
    <glyph glyph-name="x.sups" horiz-adv-x="400" 
d="M385 343h-60l-125 171l-123 -171h-62l150 209l-142 196h62l115 -160l115 160h61l-140 -196z" />
    <glyph glyph-name="y.sups" horiz-adv-x="413" 
d="M85 139l93 223l-162 386h56l134 -326l134 326h56l-256 -609h-55z" />
    <glyph glyph-name="z.sups" horiz-adv-x="358" 
d="M85 384h247v-41h-307v35l236 328h-230v42h290v-36z" />
    <glyph glyph-name="f_j" horiz-adv-x="570" 
d="M280 781q20 0 32 -3v-49q-5 1 -11.5 1.5t-14.5 0.5q-51 0 -82 -31t-31 -91v-103h137v-49h-137v-457h-55v457h-103v49h103v102q0 84 44 128.5t118 44.5zM447 740q17 0 29.5 -12.5t12.5 -29.5t-12.5 -29t-29.5 -12t-29 12t-12 29t12 29.5t29 12.5zM476 -88
q0 -84 -41 -127.5t-113 -43.5q-10 0 -17.5 0.5t-15.5 1.5v50q6 -2 12 -2.5t15 -0.5q49 0 76.5 30t27.5 90v596h56v-594z" />
    <glyph glyph-name="zero.onum" horiz-adv-x="642" 
d="M321 601q60 0 108.5 -21t82.5 -60.5t52 -96t18 -127.5t-18 -127t-52 -96t-82.5 -61t-108.5 -21q-61 0 -109.5 21t-82 61t-51.5 96t-18 127t18 127.5t51.5 96t82 60.5t109.5 21zM321 549q-95 0 -148 -67.5t-53 -185.5t53 -185t148 -67q94 0 147.5 67t53.5 185t-53.5 185.5
t-147.5 67.5z" />
    <glyph glyph-name="one.onum" horiz-adv-x="361" 
d="M204 0v510l-156 -125l-29 45l199 160h44v-590h-58z" />
    <glyph glyph-name="two.onum" horiz-adv-x="533" 
d="M275 599q103 0 154.5 -51t51.5 -142q0 -39 -13 -70.5t-34 -59t-48.5 -51.5t-57.5 -47l-165 -125h329v-53h-430v46l223 168q26 19 51 39t44 42.5t30.5 49.5t11.5 60q0 69 -37 105t-110 36q-75 0 -116 -44.5t-43 -125.5l-59 2q2 104 58.5 162.5t159.5 58.5z" />
    <glyph glyph-name="three.onum" horiz-adv-x="551" 
d="M273 599q96 0 151.5 -53t55.5 -145q0 -69 -34.5 -113t-82.5 -58q60 -12 99 -58t39 -124q0 -50 -16 -89.5t-45.5 -67.5t-71 -43t-92.5 -15q-106 0 -163.5 57.5t-66.5 157.5l59 3q9 -78 51 -121.5t120 -43.5t122 43.5t44 118.5q0 78 -48.5 116t-124.5 38h-72v53h71
q68 0 110 39.5t42 106.5q0 70 -40 107.5t-107 37.5q-69 0 -110 -41t-46 -115l-59 3q5 97 61 151.5t154 54.5z" />
    <glyph glyph-name="four.onum" horiz-adv-x="592" 
d="M566 96v-53h-142v-201h-57v201h-341v48l350 499h48v-494h142zM367 96v388l-274 -388h274z" />
    <glyph glyph-name="five.onum" horiz-adv-x="554" 
d="M283 293q48 0 88.5 -16t70 -45t45.5 -71.5t16 -94.5q0 -51 -15 -93.5t-44 -73.5t-71.5 -48.5t-96.5 -17.5q-104 0 -161.5 56.5t-66.5 154.5l59 3q9 -75 50.5 -118t118.5 -43q41 0 72.5 14t53 38t32.5 56.5t11 70.5q0 39 -12 71.5t-34 55.5t-53 35.5t-68 12.5
q-45 0 -80.5 -14t-67.5 -40h-55v404h400v-52h-342v-293q31 23 68 35.5t82 12.5z" />
    <glyph glyph-name="six.onum" horiz-adv-x="584" 
d="M294 470q52 0 96.5 -17t77 -48.5t51 -76t18.5 -99.5t-18.5 -99t-51 -75t-77 -47.5t-96.5 -16.5t-96.5 16.5t-77.5 47.5t-51.5 75t-18.5 99q0 46 13 84t36 69l282 366h69l-218 -285q15 3 30 5t32 2zM294 44q39 0 72.5 13t58 37.5t38.5 59t14 77.5t-14 77.5t-38.5 58.5
t-58 37t-72.5 13q-46 0 -83 -16t-63 -48q-18 -23 -28 -53.5t-10 -68.5q0 -43 14 -77.5t38.5 -59t58 -37.5t73.5 -13z" />
    <glyph glyph-name="seven.onum" horiz-adv-x="539" 
d="M136 -158h-65l380 696h-426v52h492v-48z" />
    <glyph glyph-name="eight.onum" horiz-adv-x="591" 
d="M295 757q46 0 85.5 -13t68.5 -38t46 -61.5t17 -82.5q0 -33 -9 -60.5t-24.5 -49t-36 -36.5t-42.5 -24q26 -9 49.5 -26t41 -41t28 -54.5t10.5 -67.5q0 -50 -18 -89t-49.5 -66.5t-74 -42t-92.5 -14.5t-92.5 14.5t-74 42t-49.5 66.5t-18 89q0 37 10 67.5t27.5 54.5t41 41
t50.5 26q-46 17 -79 60.5t-33 109.5q0 46 16.5 82.5t45.5 61.5t68.5 38t86.5 13zM296 704q-34 0 -63 -10t-50.5 -28.5t-33.5 -45.5t-12 -61q0 -33 12 -59.5t33.5 -45t50.5 -28.5t63 -10q33 0 61.5 10t50 28.5t33.5 45t12 59.5q0 34 -12 61t-33.5 45.5t-50 28.5t-61.5 10z
M295 363q-37 0 -69 -10.5t-55.5 -31t-37 -50t-13.5 -67.5q0 -37 13.5 -66.5t37 -50.5t55.5 -32t69 -11t69 11t55.5 32t37 50.5t13.5 66.5q0 38 -13.5 67.5t-37 50t-55.5 31t-69 10.5z" />
    <glyph glyph-name="nine.onum" horiz-adv-x="584" 
d="M290 599q52 0 96.5 -16.5t77.5 -47.5t51.5 -75t18.5 -99q0 -46 -13 -84t-36 -69l-282 -366h-69l218 285q-15 -3 -30 -5t-32 -2q-52 0 -96.5 17t-77 48.5t-51 76t-18.5 99.5t18.5 99t51 75t77 47.5t96.5 16.5zM290 173q46 0 83 16t63 48q38 47 38 122q0 43 -14 77.5
t-38.5 59t-58 37.5t-73.5 13q-39 0 -72.5 -13t-58 -37.5t-38.5 -59t-14 -77.5q0 -44 14 -78.5t38.5 -58.5t58 -36.5t72.5 -12.5z" />
    <glyph glyph-name="zero.slash" horiz-adv-x="641" 
d="M321 757q60 0 108.5 -25t82 -74t52 -120t18.5 -164q0 -92 -18.5 -163.5t-52 -120.5t-82 -74t-108.5 -25t-108.5 25t-82.5 74t-52.5 120.5t-18.5 163.5q0 93 18.5 164t52.5 120t82.5 74t108.5 25zM320 704q-97 0 -149 -83.5t-52 -246.5q0 -161 52 -245l275 522
q-48 53 -126 53zM320 44q97 0 150 83.5t53 246.5q0 80 -13 140t-38 102l-275 -522q48 -50 123 -50z" />
    <glyph glyph-name="zero.subs" horiz-adv-x="369" 
d="M185 336q67 0 106.5 -54t39.5 -156q0 -103 -39.5 -157t-106.5 -54q-68 0 -107.5 54t-39.5 157q0 102 39.5 156t107.5 54zM184 296q-49 0 -75 -42.5t-26 -127.5t26 -127.5t75 -42.5q50 0 76.5 42.5t26.5 127.5t-26.5 127.5t-76.5 42.5z" />
    <glyph glyph-name="one.subs" horiz-adv-x="216" 
d="M116 -80v349l-81 -63l-21 34l118 91h29v-411h-45z" />
    <glyph glyph-name="two.subs" horiz-adv-x="311" 
d="M157 336q60 0 89.5 -33.5t29.5 -86.5q0 -49 -21.5 -85.5t-57.5 -74.5l-93 -96h178v-40h-246v31l128 132q33 33 50.5 63t17.5 71q0 35 -19 57t-55 22q-38 0 -59 -22t-22 -64l-43 3q1 58 33.5 90.5t89.5 32.5z" />
    <glyph glyph-name="three.subs" horiz-adv-x="320" 
d="M158 336q55 0 86 -29.5t31 -80.5q0 -37 -19 -60.5t-39 -31.5q26 -7 47.5 -32.5t21.5 -67.5q0 -56 -35 -87.5t-92 -31.5q-60 0 -92.5 32t-35.5 87l44 4q4 -39 25 -60.5t59 -21.5t60.5 21t22.5 59t-25 57t-63 19h-39v39h39q32 0 55 19.5t23 53.5q0 35 -20.5 53.5
t-53.5 18.5q-34 0 -54.5 -19.5t-22.5 -57.5l-44 2q2 54 33.5 84.5t87.5 30.5z" />
    <glyph glyph-name="four.subs" horiz-adv-x="343" 
d="M322 64v-40h-72v-104h-44v104h-186v35l189 272h41v-267h72zM206 64v204l-145 -204h145z" />
    <glyph glyph-name="five.subs" horiz-adv-x="319" 
d="M165 171q54 0 88.5 -33t34.5 -93q0 -57 -33.5 -93.5t-95.5 -36.5q-57 0 -90 31.5t-37 85.5l44 2q5 -37 25.5 -57.5t58.5 -20.5q41 0 62.5 25t21.5 63q0 40 -23 63.5t-61 23.5q-23 0 -39.5 -7t-33.5 -20h-40v227h225v-40h-181v-141q32 21 74 21z" />
    <glyph glyph-name="six.subs" horiz-adv-x="339" 
d="M171 181q29 0 54 -9.5t43 -26.5t28.5 -42t10.5 -55q0 -62 -39 -97.5t-97 -35.5q-30 0 -55 9t-43.5 26.5t-29 42t-10.5 55.5q0 25 7.5 46t20.5 38l150 199h54l-115 -151q5 1 10.5 1h10.5zM170 -44q40 0 66 24.5t26 68.5t-25.5 68t-66.5 24q-48 0 -73 -31q-8 -12 -13.5 -27
t-5.5 -34q0 -44 26 -68.5t66 -24.5z" />
    <glyph glyph-name="seven.subs" horiz-adv-x="314" 
d="M94 -80h-50l198 371h-221v40h273v-33z" />
    <glyph glyph-name="eight.subs" horiz-adv-x="342" 
d="M171 336q52 0 87 -29t35 -80q0 -34 -16 -57t-34 -34q23 -12 41.5 -37.5t18.5 -65.5q0 -56 -37.5 -87t-94.5 -31t-94.5 31t-37.5 87q0 41 19 66t40 37q-18 12 -34 33t-16 58q0 51 35 80t88 29zM171 296q-34 0 -57.5 -19t-23.5 -54q0 -36 23.5 -54t57.5 -18t57 18.5
t23 53.5t-23 54t-57 19zM171 113q-37 0 -62.5 -20t-25.5 -59q0 -38 25.5 -58t62.5 -20t62 20t25 58q0 39 -25.5 59t-61.5 20z" />
    <glyph glyph-name="nine.subs" horiz-adv-x="339" 
d="M169 336q30 0 55 -9.5t43.5 -26.5t29 -41.5t10.5 -55.5q0 -25 -7.5 -46t-20.5 -38l-150 -199h-54l115 151q-5 -1 -10.5 -1h-10.5q-29 0 -54 9.5t-43 26.5t-28.5 42t-10.5 55q0 62 39 97.5t97 35.5zM170 109q47 0 73 32q8 12 13.5 27.5t5.5 33.5q0 44 -26 69t-66 25
t-66 -25t-26 -69q0 -43 25.5 -68t66.5 -25z" />
    <glyph glyph-name="zero.sups" horiz-adv-x="369" 
d="M185 818q67 0 106.5 -54t39.5 -156q0 -103 -39.5 -157t-106.5 -54q-68 0 -107.5 54t-39.5 157q0 102 39.5 156t107.5 54zM184 778q-49 0 -75 -42.5t-26 -127.5t26 -127.5t75 -42.5q50 0 76.5 42.5t26.5 127.5t-26.5 127.5t-76.5 42.5z" />
    <glyph glyph-name="one.sups" horiz-adv-x="216" 
d="M116 402v349l-81 -63l-21 34l118 91h29v-411h-45z" />
    <glyph glyph-name="two.sups" horiz-adv-x="311" 
d="M157 818q60 0 89.5 -33.5t29.5 -86.5q0 -49 -21.5 -85.5t-57.5 -74.5l-93 -96h178v-40h-246v31l128 132q33 33 50.5 63t17.5 71q0 35 -19 57t-55 22q-38 0 -59 -22t-22 -64l-43 3q1 58 33.5 90.5t89.5 32.5z" />
    <glyph glyph-name="three.sups" horiz-adv-x="320" 
d="M158 818q55 0 86 -29.5t31 -80.5q0 -37 -19 -60.5t-39 -31.5q26 -7 47.5 -32.5t21.5 -67.5q0 -56 -35 -87.5t-92 -31.5q-60 0 -92.5 32t-35.5 87l44 4q4 -39 25 -60.5t59 -21.5t60.5 21t22.5 59t-25 57t-63 19h-39v39h39q32 0 55 19.5t23 53.5q0 35 -20.5 53.5
t-53.5 18.5q-34 0 -54.5 -19.5t-22.5 -57.5l-44 2q2 54 33.5 84.5t87.5 30.5z" />
    <glyph glyph-name="four.sups" horiz-adv-x="343" 
d="M322 546v-40h-72v-104h-44v104h-186v35l189 272h41v-267h72zM206 546v204l-145 -204h145z" />
    <glyph glyph-name="five.sups" horiz-adv-x="319" 
d="M165 653q54 0 88.5 -33t34.5 -93q0 -57 -33.5 -93.5t-95.5 -36.5q-57 0 -90 31.5t-37 85.5l44 2q5 -37 25.5 -57.5t58.5 -20.5q41 0 62.5 25t21.5 63q0 40 -23 63.5t-61 23.5q-23 0 -39.5 -7t-33.5 -20h-40v227h225v-40h-181v-141q32 21 74 21z" />
    <glyph glyph-name="six.sups" horiz-adv-x="339" 
d="M171 663q29 0 54 -9.5t43 -26.5t28.5 -42t10.5 -55q0 -62 -39 -97.5t-97 -35.5q-30 0 -55 9t-43.5 26.5t-29 42t-10.5 55.5q0 25 7.5 46t20.5 38l150 199h54l-115 -151q5 1 10.5 1h10.5zM170 438q40 0 66 24.5t26 68.5t-25.5 68t-66.5 24q-48 0 -73 -31q-8 -12 -13.5 -27
t-5.5 -34q0 -44 26 -68.5t66 -24.5z" />
    <glyph glyph-name="seven.sups" horiz-adv-x="314" 
d="M94 402h-50l198 371h-221v40h273v-33z" />
    <glyph glyph-name="eight.sups" horiz-adv-x="342" 
d="M171 818q52 0 87 -29t35 -80q0 -34 -16 -57t-34 -34q23 -12 41.5 -37.5t18.5 -65.5q0 -56 -37.5 -87t-94.5 -31t-94.5 31t-37.5 87q0 41 19 66t40 37q-18 12 -34 33t-16 58q0 51 35 80t88 29zM171 778q-34 0 -57.5 -19t-23.5 -54q0 -36 23.5 -54t57.5 -18t57 18.5
t23 53.5t-23 54t-57 19zM171 595q-37 0 -62.5 -20t-25.5 -59q0 -38 25.5 -58t62.5 -20t62 20t25 58q0 39 -25.5 59t-61.5 20z" />
    <glyph glyph-name="nine.sups" horiz-adv-x="339" 
d="M169 818q30 0 55 -9.5t43.5 -26.5t29 -41.5t10.5 -55.5q0 -25 -7.5 -46t-20.5 -38l-150 -199h-54l115 151q-5 -1 -10.5 -1h-10.5q-29 0 -54 9.5t-43 26.5t-28.5 42t-10.5 55q0 62 39 97.5t97 35.5zM170 591q47 0 73 32q8 12 13.5 27.5t5.5 33.5q0 44 -26 69t-66 25
t-66 -25t-26 -69q0 -43 25.5 -68t66.5 -25z" />
    <glyph glyph-name="zero.tnum" horiz-adv-x="650" 
d="M325 757q60 0 108.5 -25t82 -74t52 -120t18.5 -164q0 -92 -18.5 -163.5t-52 -120.5t-82 -74t-108.5 -25t-108.5 25t-82.5 74t-52.5 120.5t-18.5 163.5q0 93 18.5 164t52.5 120t82.5 74t108.5 25zM324 704q-97 0 -149 -83.5t-52 -246.5t52 -246.5t149 -83.5t149.5 83.5
t52.5 246.5t-52.5 246.5t-149.5 83.5z" />
    <glyph glyph-name="one.tnum" horiz-adv-x="650" 
d="M559 53v-53h-410v53h182v615l-170 -137l-29 44l214 173h44v-695h169z" />
    <glyph glyph-name="two.tnum" horiz-adv-x="650" 
d="M327 757q100 0 153 -56.5t53 -151.5q0 -48 -11 -88t-31 -76t-48.5 -70t-62.5 -69l-188 -193h353v-53h-433v47l225 232q34 35 59.5 66t42.5 62.5t26 65t9 74.5q0 70 -37 113.5t-109 43.5q-78 0 -118 -46t-41 -127l-60 3q2 105 58.5 164t159.5 59z" />
    <glyph glyph-name="three.tnum" horiz-adv-x="650" 
d="M323 757q96 0 151 -53t55 -145q0 -34 -9.5 -62.5t-25 -50.5t-36.5 -36.5t-45 -21.5q60 -12 99 -58t39 -124q0 -50 -16 -89.5t-45.5 -67.5t-71 -43t-92.5 -15q-106 0 -164 57.5t-66 157.5l59 3q8 -78 50.5 -121.5t120.5 -43.5q77 0 121 43.5t44 118.5q0 78 -48.5 116
t-124.5 38h-71v53h70q68 0 110.5 39.5t42.5 106.5q0 70 -40 107.5t-107 37.5q-70 0 -110.5 -41t-45.5 -115l-59 3q5 97 61 151.5t154 54.5z" />
    <glyph glyph-name="four.tnum" horiz-adv-x="650" 
d="M592 254v-53h-142v-201h-57v201h-341v48l350 499h48v-494h142zM393 254v388l-274 -388h274z" />
    <glyph glyph-name="five.tnum" horiz-adv-x="650" 
d="M328 451q48 0 88.5 -16t70 -45t45.5 -71.5t16 -94.5q0 -51 -15 -93.5t-44 -73.5t-71.5 -48.5t-96.5 -17.5q-104 0 -161.5 56.5t-66.5 154.5l59 3q8 -75 50 -118t119 -43q41 0 72.5 14t53 38t32.5 56.5t11 70.5q0 39 -12 71.5t-34 55.5t-53 35.5t-68 12.5q-45 0 -80.5 -14
t-68.5 -40h-54v404h400v-52h-342v-293q31 23 68 35.5t82 12.5z" />
    <glyph glyph-name="six.tnum" horiz-adv-x="650" 
d="M321 470q52 0 96.5 -17t77 -48.5t51 -76t18.5 -99.5t-18.5 -99t-51 -75t-77 -47.5t-96.5 -16.5t-96.5 16.5t-77.5 47.5t-51.5 75t-18.5 99q0 46 13 84t36 69l282 366h69l-217 -285q27 7 61 7zM321 44q39 0 72.5 13t58 37.5t38.5 59t14 77.5t-14 77.5t-38.5 58.5t-58 37
t-72.5 13q-46 0 -83 -16t-62 -48q-39 -47 -39 -122q0 -43 14 -77.5t38.5 -59t58 -37.5t73.5 -13z" />
    <glyph glyph-name="seven.tnum" horiz-adv-x="650" 
d="M190 -1h-66l381 696h-427v52h492v-48z" />
    <glyph glyph-name="eight.tnum" horiz-adv-x="650" 
d="M324 757q46 0 85.5 -13t69 -38t46 -61.5t16.5 -82.5q0 -33 -9 -60.5t-24.5 -49t-36 -36.5t-42.5 -24q27 -9 50.5 -26t41 -41t27.5 -54.5t10 -67.5q0 -50 -18 -89t-49.5 -66.5t-74 -42t-92.5 -14.5t-92.5 14.5t-74 42t-49 66.5t-17.5 89q0 37 10 67.5t27.5 54.5t41 41
t49.5 26q-46 17 -79 60.5t-33 109.5q0 46 16.5 82.5t45.5 61.5t68.5 38t86.5 13zM325 704q-34 0 -63 -10t-50.5 -28.5t-33.5 -45.5t-12 -61q0 -33 12 -59.5t33.5 -45t50.5 -28.5t63 -10q33 0 62 10t50 28.5t33.5 45t12.5 59.5q0 34 -12.5 61t-33.5 45.5t-50 28.5t-62 10z
M324 363q-37 0 -68.5 -10.5t-55 -31t-37 -50t-13.5 -67.5q0 -37 13.5 -66.5t37 -50.5t55 -32t68.5 -11t69 11t55.5 32t37 50.5t13.5 66.5q0 38 -13.5 67.5t-37 50t-55.5 31t-69 10.5z" />
    <glyph glyph-name="nine.tnum" horiz-adv-x="650" 
d="M329 757q52 0 96.5 -16.5t77.5 -47.5t51.5 -75t18.5 -99q0 -46 -13 -84t-36 -69l-282 -366h-69l217 285q-27 -7 -61 -7q-52 0 -96.5 17t-77 48.5t-51 76t-18.5 99.5t18.5 99t51 75t77 47.5t96.5 16.5zM329 331q46 0 83 16t62 48q39 47 39 122q0 43 -14 77.5t-38.5 59
t-58 37.5t-73.5 13q-39 0 -72.5 -13t-58 -37.5t-38.5 -59t-14 -77.5q0 -44 14 -78.5t38.5 -58.5t58 -36.5t72.5 -12.5z" />
    <glyph glyph-name="zero.dnom" horiz-adv-x="369" 
d="M185 416q67 0 106.5 -54t39.5 -156q0 -103 -39.5 -157t-106.5 -54q-68 0 -107.5 54t-39.5 157q0 102 39.5 156t107.5 54zM184 376q-49 0 -75 -42.5t-26 -127.5t26 -127.5t75 -42.5q50 0 76.5 42.5t26.5 127.5t-26.5 127.5t-76.5 42.5z" />
    <glyph glyph-name="one.dnom" horiz-adv-x="216" 
d="M116 0v349l-81 -63l-21 34l118 91h29v-411h-45z" />
    <glyph glyph-name="two.dnom" horiz-adv-x="311" 
d="M157 416q60 0 89.5 -33.5t29.5 -86.5q0 -49 -21.5 -85.5t-57.5 -74.5l-93 -96h178v-40h-246v31l128 132q33 33 50.5 63t17.5 71q0 35 -19 57t-55 22q-38 0 -59 -22t-22 -64l-43 3q1 58 33.5 90.5t89.5 32.5z" />
    <glyph glyph-name="three.dnom" horiz-adv-x="320" 
d="M158 416q55 0 86 -29.5t31 -80.5q0 -37 -19 -60.5t-39 -31.5q26 -7 47.5 -32.5t21.5 -67.5q0 -56 -35 -87.5t-92 -31.5q-60 0 -92.5 32t-35.5 87l44 4q4 -39 25 -60.5t59 -21.5t60.5 21t22.5 59t-25 57t-63 19h-39v39h39q32 0 55 19.5t23 53.5q0 35 -20.5 53.5
t-53.5 18.5q-34 0 -54.5 -19.5t-22.5 -57.5l-44 2q2 54 33.5 84.5t87.5 30.5z" />
    <glyph glyph-name="four.dnom" horiz-adv-x="343" 
d="M322 144v-40h-72v-104h-44v104h-186v35l189 272h41v-267h72zM206 144v204l-145 -204h145z" />
    <glyph glyph-name="five.dnom" horiz-adv-x="319" 
d="M165 251q54 0 88.5 -33t34.5 -93q0 -57 -33.5 -93.5t-95.5 -36.5q-57 0 -90 31.5t-37 85.5l44 2q5 -37 25.5 -57.5t58.5 -20.5q41 0 62.5 25t21.5 63q0 40 -23 63.5t-61 23.5q-23 0 -39.5 -7t-33.5 -20h-40v227h225v-40h-181v-141q32 21 74 21z" />
    <glyph glyph-name="six.dnom" horiz-adv-x="339" 
d="M171 261q29 0 54 -9.5t43 -26.5t28.5 -42t10.5 -55q0 -62 -39 -97.5t-97 -35.5q-30 0 -55 9t-43.5 26.5t-29 42t-10.5 55.5q0 25 7.5 46t20.5 38l150 199h54l-115 -151q5 1 10.5 1h10.5zM170 36q40 0 66 24.5t26 68.5t-25.5 68t-66.5 24q-48 0 -73 -31q-8 -12 -13.5 -27
t-5.5 -34q0 -44 26 -68.5t66 -24.5z" />
    <glyph glyph-name="seven.dnom" horiz-adv-x="314" 
d="M94 0h-50l198 371h-221v40h273v-33z" />
    <glyph glyph-name="eight.dnom" horiz-adv-x="342" 
d="M171 416q52 0 87 -29t35 -80q0 -34 -16 -57t-34 -34q23 -12 41.5 -37.5t18.5 -65.5q0 -56 -37.5 -87t-94.5 -31t-94.5 31t-37.5 87q0 41 19 66t40 37q-18 12 -34 33t-16 58q0 51 35 80t88 29zM171 376q-34 0 -57.5 -19t-23.5 -54q0 -36 23.5 -54t57.5 -18t57 18.5
t23 53.5t-23 54t-57 19zM171 193q-37 0 -62.5 -20t-25.5 -59q0 -38 25.5 -58t62.5 -20t62 20t25 58q0 39 -25.5 59t-61.5 20z" />
    <glyph glyph-name="nine.dnom" horiz-adv-x="339" 
d="M169 416q30 0 55 -9.5t43.5 -26.5t29 -41.5t10.5 -55.5q0 -25 -7.5 -46t-20.5 -38l-150 -199h-54l115 151q-5 -1 -10.5 -1h-10.5q-29 0 -54 9.5t-43 26.5t-28.5 42t-10.5 55q0 62 39 97.5t97 35.5zM170 189q47 0 73 32q8 12 13.5 27.5t5.5 33.5q0 44 -26 69t-66 25
t-66 -25t-26 -69q0 -43 25.5 -68t66.5 -25z" />
    <glyph glyph-name="zero.numr" horiz-adv-x="369" 
d="M185 737q67 0 106.5 -54t39.5 -156q0 -103 -39.5 -157t-106.5 -54q-68 0 -107.5 54t-39.5 157q0 102 39.5 156t107.5 54zM184 697q-49 0 -75 -42.5t-26 -127.5t26 -127.5t75 -42.5q50 0 76.5 42.5t26.5 127.5t-26.5 127.5t-76.5 42.5z" />
    <glyph glyph-name="one.numr" horiz-adv-x="216" 
d="M116 322v349l-81 -63l-21 34l118 91h29v-411h-45z" />
    <glyph glyph-name="two.numr" horiz-adv-x="311" 
d="M157 738q60 0 89.5 -33.5t29.5 -86.5q0 -49 -21.5 -85.5t-57.5 -74.5l-93 -96h178v-40h-246v31l128 132q33 33 50.5 63t17.5 71q0 35 -19 57t-55 22q-38 0 -59 -22t-22 -64l-43 3q1 58 33.5 90.5t89.5 32.5z" />
    <glyph glyph-name="three.numr" horiz-adv-x="320" 
d="M158 738q55 0 86 -29.5t31 -80.5q0 -37 -19 -60.5t-39 -31.5q26 -7 47.5 -32.5t21.5 -67.5q0 -56 -35 -87.5t-92 -31.5q-60 0 -92.5 32t-35.5 87l44 4q4 -39 25 -60.5t59 -21.5t60.5 21t22.5 59t-25 57t-63 19h-39v39h39q32 0 55 19.5t23 53.5q0 35 -20.5 53.5
t-53.5 18.5q-34 0 -54.5 -19.5t-22.5 -57.5l-44 2q2 54 33.5 84.5t87.5 30.5z" />
    <glyph glyph-name="four.numr" horiz-adv-x="343" 
d="M322 466v-40h-72v-104h-44v104h-186v35l189 272h41v-267h72zM206 466v204l-145 -204h145z" />
    <glyph glyph-name="five.numr" horiz-adv-x="319" 
d="M165 573q54 0 88.5 -33t34.5 -93q0 -57 -33.5 -93.5t-95.5 -36.5q-57 0 -90 31.5t-37 85.5l44 2q5 -37 25.5 -57.5t58.5 -20.5q41 0 62.5 25t21.5 63q0 40 -23 63.5t-61 23.5q-23 0 -39.5 -7t-33.5 -20h-40v227h225v-40h-181v-141q32 21 74 21z" />
    <glyph glyph-name="six.numr" horiz-adv-x="339" 
d="M171 583q29 0 54 -9.5t43 -26.5t28.5 -42t10.5 -55q0 -62 -39 -97.5t-97 -35.5q-30 0 -55 9t-43.5 26.5t-29 42t-10.5 55.5q0 25 7.5 46t20.5 38l150 199h54l-115 -151q5 1 10.5 1h10.5zM170 358q40 0 66 24.5t26 68.5t-25.5 68t-66.5 24q-48 0 -73 -31q-8 -12 -13.5 -27
t-5.5 -34q0 -44 26 -68.5t66 -24.5z" />
    <glyph glyph-name="seven.numr" horiz-adv-x="314" 
d="M94 322h-50l198 371h-221v40h273v-33z" />
    <glyph glyph-name="eight.numr" horiz-adv-x="342" 
d="M171 738q52 0 87 -29t35 -80q0 -34 -16 -57t-34 -34q23 -12 41.5 -37.5t18.5 -65.5q0 -56 -37.5 -87t-94.5 -31t-94.5 31t-37.5 87q0 41 19 66t40 37q-18 12 -34 33t-16 58q0 51 35 80t88 29zM171 698q-34 0 -57.5 -19t-23.5 -54q0 -36 23.5 -54t57.5 -18t57 18.5
t23 53.5t-23 54t-57 19zM171 515q-37 0 -62.5 -20t-25.5 -59q0 -38 25.5 -58t62.5 -20t62 20t25 58q0 39 -25.5 59t-61.5 20z" />
    <glyph glyph-name="nine.numr" horiz-adv-x="339" 
d="M169 738q30 0 55 -9.5t43.5 -26.5t29 -41.5t10.5 -55.5q0 -25 -7.5 -46t-20.5 -38l-150 -199h-54l115 151q-5 -1 -10.5 -1h-10.5q-29 0 -54 9.5t-43 26.5t-28.5 42t-10.5 55q0 62 39 97.5t97 35.5zM170 511q47 0 73 32q8 12 13.5 27.5t5.5 33.5q0 44 -26 69t-66 25
t-66 -25t-26 -69q0 -43 25.5 -68t66.5 -25z" />
    <glyph glyph-name="periodcentered.cap" horiz-adv-x="190" 
d="M91 442q20 0 32.5 -12.5t12.5 -31.5t-12.5 -31.5t-32.5 -12.5q-18 0 -30.5 12.5t-12.5 31.5t12.5 31.5t30.5 12.5z" />
    <glyph glyph-name="exclamdown.cap" horiz-adv-x="257" 
d="M129 669q-19 0 -32 12.5t-13 31.5t13 31.5t32 12.5q18 0 30.5 -12.5t12.5 -31.5t-12.5 -31.5t-30.5 -12.5zM158 559l3 -559h-64l3 559h58z" />
    <glyph glyph-name="questiondown.cap" horiz-adv-x="485" 
d="M250 669q-19 0 -32 12.5t-13 31.5t13 31.5t32 12.5q18 0 30.5 -12.5t12.5 -31.5t-12.5 -31.5t-30.5 -12.5zM242 -10q-53 0 -94 16t-69 44t-42.5 66.5t-14.5 83.5q0 34 7.5 59.5t21.5 46.5t34 39t46 36q25 18 41.5 35t26.5 34.5t14.5 37.5t4.5 45v26h59v-29
q0 -27 -4.5 -49t-16 -42t-30 -39.5t-45.5 -40.5q-46 -33 -72.5 -67.5t-26.5 -90.5q0 -33 10.5 -62t30.5 -50.5t50 -33.5t69 -12q76 0 116.5 38.5t48.5 104.5l59 -4q-8 -89 -66.5 -140.5t-157.5 -51.5z" />
    <glyph glyph-name="braceleft.cap" horiz-adv-x="225" 
d="M195 722q-105 0 -69 -178q6 -30 10 -59t1.5 -52t-13.5 -39t-34 -22q23 -6 34 -22t13.5 -39t-1.5 -51.5t-10 -59.5q-36 -178 69 -178h6v-47h-6q-79 0 -113.5 56.5t-10.5 165.5q7 33 12 61t2 48t-15.5 31.5t-39.5 11.5h-8v47h8q27 0 39.5 11t15.5 31.5t-2 48.5t-12 61
q-24 109 10.5 165t113.5 56h6v-47h-6z" />
    <glyph glyph-name="braceright.cap" horiz-adv-x="225" 
d="M29 769q80 0 114 -56t10 -165q-8 -33 -12.5 -61t-1.5 -48.5t15.5 -31.5t39.5 -11h8v-47h-8q-27 0 -39.5 -11.5t-15.5 -31.5t1.5 -48t12.5 -61q24 -109 -10 -165.5t-114 -56.5h-6v47h6q54 0 70.5 44t-0.5 134q-6 31 -10 59.5t-1.5 51.5t13 39t33.5 22q-23 6 -33.5 22
t-13 39t1.5 52t10 59q17 90 0.5 134t-70.5 44h-6v47h6z" />
    <glyph glyph-name="bracketleft.cap" horiz-adv-x="243" 
d="M117 723v-701h103v-47h-159v795h159v-47h-103z" />
    <glyph glyph-name="bracketright.cap" horiz-adv-x="247" 
d="M23 -25v47h104v701h-104v47h160v-795h-160z" />
    <glyph glyph-name="parenleft.cap" horiz-adv-x="234" 
d="M212 748q-23 -35 -44 -77.5t-36.5 -91t-24.5 -103.5t-9 -114t9 -113.5t24.5 -103.5t36.5 -91t44 -77l-49 -19q-24 36 -46 80.5t-38.5 95.5t-26.5 108.5t-10 119.5t10 119.5t26.5 108.5t38.5 95.5t46 80.5z" />
    <glyph glyph-name="parenright.cap" horiz-adv-x="232" 
d="M70 766q25 -36 47 -80.5t38.5 -95.5t26.5 -108.5t10 -119.5t-10 -119.5t-26.5 -108.5t-38.5 -95.5t-47 -80.5l-48 19q23 35 44 77t36.5 91t24.5 103.5t9 113.5t-9 114t-24.5 103.5t-36.5 91t-44 77.5z" />
    <glyph glyph-name="emdash.cap" horiz-adv-x="793" 
d="M45 350v53h703v-53h-703z" />
    <glyph glyph-name="endash.cap" horiz-adv-x="561" 
d="M45 350v53h471v-53h-471z" />
    <glyph glyph-name="hyphen.cap" horiz-adv-x="401" 
d="M45 350v53h311v-53h-311z" />
    <glyph glyph-name="guillemotleft.cap" horiz-adv-x="505" 
d="M80 381l166 -183l-44 -29l-187 212l187 211l44 -29zM317 381l166 -183l-44 -29l-187 212l187 211l44 -29z" />
    <glyph glyph-name="guillemotright.cap" horiz-adv-x="505" 
d="M66 169l-44 29l166 183l-166 182l44 29l187 -211zM302 169l-44 29l166 183l-166 182l44 29l188 -211z" />
    <glyph glyph-name="guilsinglleft.cap" horiz-adv-x="291" 
d="M85 381l184 -175l-41 -36l-213 211l213 210l41 -35z" />
    <glyph glyph-name="guilsinglright.cap" horiz-adv-x="291" 
d="M62 170l-40 36l184 175l-184 175l40 35l214 -210z" />
    <glyph glyph-name="emdash_guilsinglright" horiz-adv-x="836" 
d="M574 36l-40 36l171 162h-660v47h659l-170 161l40 36l227 -220z" />
    <glyph glyph-name="endash_guilsinglright" horiz-adv-x="579" 
d="M318 36l-40 36l171 162h-404v47h402l-169 161l40 36l226 -220z" />
    <glyph glyph-name="guilsinglleft_emdash" horiz-adv-x="836" 
d="M131 281h660v-47h-661l171 -162l-39 -36l-227 222l227 220l39 -36z" />
    <glyph glyph-name="guilsinglleft_endash" horiz-adv-x="579" 
d="M131 281h403v-47h-404l171 -162l-39 -36l-227 222l227 220l39 -36z" />
    <glyph glyph-name="at.cap" horiz-adv-x="799" 
d="M399 727q76 0 141 -27t113 -74.5t75 -112.5t27 -141q0 -96 -35.5 -147.5t-96.5 -51.5q-76 0 -87 71q-20 -33 -56.5 -53.5t-92.5 -20.5q-41 0 -75.5 14t-59.5 40.5t-38.5 65t-13.5 86.5q0 49 13.5 87.5t38.5 65t59.5 40.5t75.5 14q58 0 95 -22t54 -57v69h42v-298
q0 -64 54 -64q38 0 61 42t23 119q0 69 -24 127t-66.5 101t-100.5 67t-126 24q-69 0 -127 -24t-100.5 -67t-66 -101t-23.5 -127q0 -70 24 -128t66.5 -100t100 -65t124.5 -23q60 0 104.5 13.5t83.5 39.5l10 -36q-42 -26 -87.5 -40.5t-110.5 -14.5q-75 0 -139.5 26.5
t-112.5 73.5t-75 112t-27 142q0 76 26.5 141t74 112.5t113 74.5t142.5 27zM393 209q63 0 102 38t39 116v27q0 78 -39 115.5t-102 37.5q-65 0 -106.5 -42.5t-41.5 -124.5q0 -81 41.5 -124t106.5 -43z" />
    <glyph glyph-name="acute.case" horiz-adv-x="285" 
d="M21 797l159 135h80l-184 -135h-55z" />
    <glyph glyph-name="breve.case" horiz-adv-x="334" 
d="M308 928q0 -57 -39 -87t-103 -30t-103 30t-39 87h47q0 -35 25.5 -56t69.5 -21t69.5 21t25.5 56h47z" />
    <glyph glyph-name="caron.case" horiz-adv-x="338" 
d="M143 797l-121 135h50l96 -98l97 98h50l-120 -135h-52z" />
    <glyph glyph-name="circumflex.case" horiz-adv-x="338" 
d="M265 797l-97 98l-96 -98h-50l121 135h52l120 -135h-50z" />
    <glyph glyph-name="dieresis.case" horiz-adv-x="254" 
d="M63 903q16 0 27.5 -11t11.5 -26q0 -17 -11.5 -27.5t-27.5 -10.5t-27 10.5t-11 27.5q0 15 11 26t27 11zM191 903q16 0 27 -11t11 -26q0 -17 -11 -27.5t-27 -10.5t-27 10.5t-11 27.5q0 15 11 26t27 11z" />
    <glyph glyph-name="dotaccent.case" horiz-adv-x="134" 
d="M68 902q17 0 29.5 -13t12.5 -30t-12.5 -30t-29.5 -13q-18 0 -31 13t-13 30t13 30t31 13z" />
    <glyph glyph-name="grave.case" horiz-adv-x="285" 
d="M207 797l-183 135h80l159 -135h-56z" />
    <glyph glyph-name="hungarumlaut.case" horiz-adv-x="309" 
d="M20 800l60 137h54l-68 -137h-46zM174 800l60 137h54l-68 -137h-46z" />
    <glyph glyph-name="macron.case" horiz-adv-x="283" 
d="M19 846v44h245v-44h-245z" />
    <glyph glyph-name="ring.case" 
d="M124 981q40 0 68 -26t28 -67t-28 -67t-68 -26q-42 0 -70 26t-28 67t28 67t70 26zM124 946q-26 0 -43.5 -16t-17.5 -42t17.5 -42.5t43.5 -16.5t43 16.5t17 42.5t-17 42t-43 16z" />
    <glyph glyph-name="tilde.case" horiz-adv-x="349" 
d="M103 925q23 0 40.5 -10t32.5 -22t30.5 -22t34.5 -10q26 0 39 16.5t14 40.5h34q1 -20 -4.5 -38.5t-16 -32t-26 -21.5t-34.5 -8q-23 0 -40.5 10t-32.5 22t-30.5 22t-34.5 10q-26 0 -39.5 -16.5t-13.5 -40.5h-34q-2 41 20 70.5t61 29.5z" />
    <glyph glyph-name="anneau" horiz-adv-x="576" 
d="M288 758q54 0 101 -19.5t81.5 -53t54 -79.5t19.5 -99t-19.5 -99t-54 -79.5t-81.5 -53t-101 -19.5t-101 19.5t-81.5 53t-54 79.5t-19.5 99t19.5 99t54 79.5t81.5 53t101 19.5zM288 735q-49 0 -91.5 -17.5t-73.5 -48t-48.5 -72.5t-17.5 -90t17.5 -90t48.5 -72.5t73.5 -48
t91.5 -17.5t91.5 17.5t73.5 48t48.5 72.5t17.5 90t-17.5 90t-48.5 72.5t-73.5 48t-91.5 17.5z" />
    <glyph glyph-name="_496" horiz-adv-x="600" 
 />
  </font>
</defs>
</svg>
