<?xml version="1.0" encoding="utf-8"?>
<!-- Generator: Adobe Illustrator 23.0.6, SVG Export Plug-In . SVG Version: 6.00 Build 0)  -->
<svg version="1.1" id="Ebene_1" xmlns="http://www.w3.org/2000/svg" xmlns:xlink="http://www.w3.org/1999/xlink" x="0px" y="0px"
	 viewBox="0 0 376.9 141.6" style="enable-background:new 0 0 376.9 141.6;" xml:space="preserve">
<style type="text/css">
	.st0{fill:#E20036;}
	.st1{fill:#365462;}
</style>
<g>
	<path class="st0" d="M149.1,23c-17.5,0-31.7,14.2-31.7,31.7s14.2,31.8,31.7,31.8s31.8-14.2,31.8-31.8C180.9,37.2,166.7,23,149.1,23
		z M149.1,68.1c-7.4,0-13.3-6-13.3-13.3c0-7.4,6-13.3,13.3-13.3c7.4,0,13.3,6,13.3,13.3C162.5,62.1,156.5,68.1,149.1,68.1z"/>
	<rect x="18.5" y="2.3" class="st0" width="18.4" height="18.4"/>
	<polygon class="st0" points="0,46 18.5,46 18.5,84.2 36.9,84.2 36.9,27.5 0,27.5 	"/>
	<path class="st0" d="M80,23c-4.8,0-9.3,1.1-13.3,2.9V0H48.3v54.7c0,17.5,14.2,31.7,31.7,31.7s31.7-14.2,31.7-31.8
		C111.7,37.2,97.5,23,80,23z M80,68.1c-7.4,0-13.3-6-13.3-13.3c0-7.4,6-13.3,13.3-13.3c7.4,0,13.3,6,13.3,13.3S87.3,68.1,80,68.1z"
		/>
</g>
<g>
	<path class="st1" d="M34.5,135.4c-0.2,0-0.3-0.1-0.4-0.3l-4.3-15.3h-0.1l-4.3,15.3c-0.1,0.2-0.2,0.3-0.4,0.3h-2.5
		c-0.2,0-0.3-0.1-0.4-0.3l-5.5-21.8c0-0.2,0-0.3,0.3-0.3H20c0.2,0,0.4,0.1,0.4,0.3l3.6,15.1h0.1l4.2-15.1c0.1-0.2,0.2-0.3,0.4-0.3
		H31c0.2,0,0.3,0.1,0.4,0.3l4.3,15.1h0.1l3.5-15.1c0-0.2,0.2-0.3,0.4-0.3h3.1c0.2,0,0.3,0.1,0.3,0.3l-5.5,21.8
		c0,0.2-0.2,0.3-0.4,0.3H34.5z"/>
	<path class="st1" d="M46.3,116.5c-0.2,0-0.3-0.1-0.3-0.3v-2.9c0-0.2,0.1-0.3,0.3-0.3h3c0.2,0,0.3,0.1,0.3,0.3v2.9
		c0,0.2-0.1,0.3-0.3,0.3H46.3z M46.3,135.4c-0.2,0-0.3-0.1-0.3-0.3v-15.2c0-0.2,0.1-0.3,0.3-0.3h3c0.2,0,0.3,0.1,0.3,0.3v15.2
		c0,0.2-0.1,0.3-0.3,0.3H46.3z"/>
	<path class="st1" d="M54.4,135.4c-0.2,0-0.3-0.1-0.3-0.3v-15.2c0-0.2,0.1-0.3,0.3-0.3h3c0.2,0,0.3,0.1,0.3,0.3v1.4l0,0
		c0.8-1.2,2.1-2,4.1-2c1.3,0,2.5,0.5,3.3,1.3c0.2,0.2,0.2,0.3,0.1,0.5l-1.7,2.2c-0.1,0.2-0.3,0.2-0.5,0.1c-0.7-0.5-1.5-0.8-2.3-0.8
		c-2.1,0-3,1.5-3,4v8.6c0,0.2-0.1,0.3-0.3,0.3h-3V135.4z"/>
	<path class="st1" d="M75.7,131.4c-0.4-1.1-0.5-2.2-0.5-3.9c0-1.7,0.2-2.8,0.5-3.9c0.9-2.8,3.3-4.4,6.6-4.4c3.2,0,5.6,1.6,6.5,4.4
		c0.4,1.1,0.5,2.2,0.5,3.9c0,1.7-0.2,2.8-0.5,3.9c-0.9,2.8-3.3,4.4-6.5,4.4C79,135.8,76.5,134.2,75.7,131.4z M85.2,130.4
		c0.3-0.8,0.3-1.6,0.3-2.9c0-1.4-0.1-2.1-0.3-2.9c-0.5-1.3-1.5-2.1-3-2.1s-2.5,0.8-3,2.1c-0.3,0.9-0.3,1.6-0.3,2.9
		c0,1.4,0.1,2.1,0.3,2.9c0.5,1.3,1.5,2.1,3,2.1S84.7,131.7,85.2,130.4z"/>
	<path class="st1" d="M93.3,135.4c-0.2,0-0.3-0.1-0.3-0.3v-15.2c0-0.2,0.1-0.3,0.3-0.3h3c0.2,0,0.3,0.1,0.3,0.3v1.4l0,0
		c0.8-1.2,2.1-2,4.1-2c1.3,0,2.5,0.5,3.3,1.3c0.2,0.2,0.2,0.3,0.1,0.5l-1.7,2.2c-0.1,0.2-0.3,0.2-0.5,0.1c-0.7-0.5-1.5-0.8-2.3-0.8
		c-2.1,0-3,1.5-3,4v8.6c0,0.2-0.1,0.3-0.3,0.3h-3V135.4z"/>
	<path class="st1" d="M106.5,139.3c-0.1-0.2-0.1-0.3,0-0.5l1.9-1.9c0.2-0.2,0.3-0.2,0.5,0c1,1,2.1,1.5,3.5,1.5
		c2.4,0,3.6-1.3,3.6-3.8v-1.5l0,0c-0.7,1.1-2.1,1.8-4.1,1.8c-2.7,0-4.6-1.4-5.4-3.9c-0.4-1.2-0.5-2.3-0.5-4.1c0-1.7,0.1-2.8,0.5-4
		c0.8-2.5,2.7-3.9,5.4-3.9c2,0,3.4,0.7,4.1,1.9l0,0v-1.2c0-0.2,0.1-0.3,0.3-0.3h3c0.2,0,0.3,0.1,0.3,0.3v14.6c0,4.6-2.5,7.3-7.4,7.3
		C110.1,141.7,107.8,140.8,106.5,139.3z M115.7,129.7c0.3-0.7,0.4-1.5,0.4-2.6s-0.1-1.8-0.4-2.6c-0.4-1.3-1.3-2-2.8-2
		s-2.4,0.7-2.8,2c-0.3,0.8-0.4,1.6-0.4,2.6c0,1.1,0.1,1.9,0.4,2.6c0.4,1.3,1.3,2,2.8,2C114.4,131.7,115.3,131,115.7,129.7z"/>
	<path class="st1" d="M133.5,135.4c-0.2,0-0.3-0.1-0.3-0.3v-1.2l0,0c-0.8,1.1-2.2,1.8-4.5,1.8c-2.9,0-5.3-1.5-5.3-4.9
		c0-3.5,2.4-5,6.4-5h3.2c0.1,0,0.2-0.1,0.2-0.2v-0.8c0-1.8-0.9-2.6-3.5-2.6c-1.8,0-2.9,0.5-3.6,1.1c-0.2,0.1-0.4,0.1-0.5-0.1
		l-1.2-2.2c-0.1-0.2-0.1-0.3,0.1-0.4c1.3-0.9,3-1.6,5.6-1.6c4.9,0,6.6,1.7,6.6,5.5v10.4c0,0.2-0.1,0.3-0.3,0.3h-2.9V135.4z
		 M133.1,130.1v-1.2c0-0.1-0.1-0.2-0.2-0.2h-2.6c-2.4,0-3.4,0.7-3.4,2.1c0,1.3,1,2,2.7,2C131.9,132.8,133.1,131.9,133.1,130.1z"/>
	<path class="st1" d="M151,135.4c-0.2,0-0.3-0.1-0.3-0.3v-9.2c0-2-1-3.5-3-3.5c-1.9,0-3,1.4-3,3.5v9.2c0,0.2-0.1,0.3-0.3,0.3h-3
		c-0.2,0-0.3-0.1-0.3-0.3v-15.2c0-0.2,0.1-0.3,0.3-0.3h3c0.2,0,0.3,0.1,0.3,0.3v1.2l0,0c0.7-1,2.1-1.8,4.2-1.8
		c3.4,0,5.5,2.5,5.5,5.9v10c0,0.2-0.1,0.3-0.3,0.3H151V135.4z"/>
	<path class="st1" d="M159,116.5c-0.2,0-0.3-0.1-0.3-0.3v-2.9c0-0.2,0.1-0.3,0.3-0.3h3c0.2,0,0.3,0.1,0.3,0.3v2.9
		c0,0.2-0.1,0.3-0.3,0.3H159z M159,135.4c-0.2,0-0.3-0.1-0.3-0.3v-15.2c0-0.2,0.1-0.3,0.3-0.3h3c0.2,0,0.3,0.1,0.3,0.3v15.2
		c0,0.2-0.1,0.3-0.3,0.3H159z"/>
	<path class="st1" d="M165.8,133.3c-0.1-0.1-0.1-0.3,0-0.5l1.9-2c0.1-0.1,0.3-0.1,0.5,0c1.2,1.1,3,1.8,4.7,1.8
		c1.9,0,2.9-0.8,2.9-1.9c0-1-0.6-1.6-2.6-1.8l-1.7-0.2c-3.2-0.3-4.9-2-4.9-4.7c0-3.1,2.2-5,6.2-5c2.5,0,4.6,0.8,6,1.9
		c0.2,0.1,0.2,0.3,0.1,0.5l-1.6,1.9c-0.1,0.2-0.3,0.2-0.5,0.1c-1-0.7-2.6-1.3-4.2-1.3s-2.4,0.7-2.4,1.7c0,0.9,0.6,1.5,2.6,1.7
		l1.7,0.2c3.3,0.3,4.9,2,4.9,4.7c0,3.2-2.3,5.4-6.7,5.4C169.3,135.8,167.1,134.5,165.8,133.3z"/>
	<path class="st1" d="M183.1,116.5c-0.2,0-0.3-0.1-0.3-0.3v-2.9c0-0.2,0.1-0.3,0.3-0.3h3c0.2,0,0.3,0.1,0.3,0.3v2.9
		c0,0.2-0.1,0.3-0.3,0.3H183.1z M183.1,135.4c-0.2,0-0.3-0.1-0.3-0.3v-15.2c0-0.2,0.1-0.3,0.3-0.3h3c0.2,0,0.3,0.1,0.3,0.3v15.2
		c0,0.2-0.1,0.3-0.3,0.3H183.1z"/>
	<path class="st1" d="M190.7,131.3c-0.3-1-0.6-2.2-0.6-3.9c0-1.7,0.2-2.9,0.5-3.9c0.9-2.8,3.3-4.4,6.5-4.4c3.3,0,5.6,1.7,6.5,4.4
		c0.4,1.1,0.5,2.2,0.5,4.8c0,0.2-0.1,0.3-0.4,0.3h-9.8c-0.1,0-0.2,0.1-0.2,0.2c0,0.5,0.1,0.9,0.2,1.2c0.5,1.6,1.8,2.4,3.6,2.4
		c1.8,0,2.9-0.7,3.7-1.5c0.2-0.2,0.3-0.2,0.5-0.1l1.9,1.7c0.2,0.1,0.2,0.3,0,0.5c-1.4,1.6-3.6,2.7-6.5,2.7
		C194,135.8,191.6,134.1,190.7,131.3z M200.3,124.3c-0.4-1.3-1.6-2-3.1-2s-2.7,0.8-3.1,2c-0.1,0.4-0.2,0.8-0.2,1.4
		c0,0.1,0.1,0.2,0.2,0.2h6.2c0.1,0,0.2-0.1,0.2-0.2C200.5,125.1,200.5,124.7,200.3,124.3z"/>
	<path class="st1" d="M208.3,135.4c-0.2,0-0.3-0.1-0.3-0.3v-15.2c0-0.2,0.1-0.3,0.3-0.3h3c0.2,0,0.3,0.1,0.3,0.3v1.4l0,0
		c0.8-1.2,2.1-2,4.1-2c1.3,0,2.5,0.5,3.3,1.3c0.2,0.2,0.2,0.3,0.1,0.5l-1.7,2.2c-0.1,0.2-0.3,0.2-0.5,0.1c-0.7-0.5-1.5-0.8-2.3-0.8
		c-2.1,0-3,1.5-3,4v8.6c0,0.2-0.1,0.3-0.3,0.3h-3V135.4z"/>
	<path class="st1" d="M221.3,131.3c-0.3-1-0.6-2.2-0.6-3.9c0-1.7,0.2-2.9,0.5-3.9c0.9-2.8,3.3-4.4,6.5-4.4c3.3,0,5.6,1.7,6.5,4.4
		c0.4,1.1,0.5,2.2,0.5,4.8c0,0.2-0.1,0.3-0.4,0.3h-9.8c-0.1,0-0.2,0.1-0.2,0.2c0,0.5,0.1,0.9,0.2,1.2c0.5,1.6,1.8,2.4,3.6,2.4
		s2.9-0.7,3.7-1.5c0.2-0.2,0.3-0.2,0.5-0.1l1.9,1.7c0.2,0.1,0.2,0.3,0,0.5c-1.4,1.6-3.6,2.7-6.5,2.7
		C224.6,135.8,222.2,134.1,221.3,131.3z M230.9,124.3c-0.4-1.3-1.6-2-3.1-2s-2.7,0.8-3.1,2c-0.1,0.4-0.2,0.8-0.2,1.4
		c0,0.1,0.1,0.2,0.2,0.2h6.2c0.1,0,0.2-0.1,0.2-0.2C231.1,125.1,231.1,124.7,230.9,124.3z"/>
	<path class="st1" d="M248.6,135.4c-0.2,0-0.3-0.1-0.3-0.3v-9.2c0-2-1-3.5-3-3.5c-1.9,0-3,1.4-3,3.5v9.2c0,0.2-0.1,0.3-0.3,0.3h-3
		c-0.2,0-0.3-0.1-0.3-0.3v-15.2c0-0.2,0.1-0.3,0.3-0.3h3c0.2,0,0.3,0.1,0.3,0.3v1.2l0,0c0.7-1,2.1-1.8,4.2-1.8
		c3.4,0,5.5,2.5,5.5,5.9v10c0,0.2-0.1,0.3-0.3,0.3h-3.1V135.4z"/>
	<path class="st1" d="M264,135.4c-0.2,0-0.3-0.1-0.3-0.3v-2.8c0-0.1,0-0.2,0.1-0.4l10.1-15.3v-0.1h-9.5c-0.2,0-0.3-0.1-0.3-0.3v-2.8
		c0-0.2,0.1-0.3,0.3-0.3H278c0.2,0,0.3,0.1,0.3,0.3v2.8c0,0.1,0,0.2-0.1,0.3l-10.1,15.4v0.1h9.9c0.2,0,0.3,0.1,0.3,0.3v2.8
		c0,0.2-0.1,0.3-0.3,0.3H264z"/>
	<path class="st1" d="M291.5,135.4c-0.2,0-0.3-0.1-0.3-0.3v-1.2l0,0c-0.9,1.1-2.1,1.8-4.1,1.8c-3.4,0-5.5-2.5-5.5-5.9v-10
		c0-0.2,0.1-0.3,0.3-0.3h3c0.2,0,0.3,0.1,0.3,0.3v9.2c0,2,1,3.5,3,3.5c1.9,0,3-1.4,3-3.4v-9.2c0-0.2,0.1-0.3,0.3-0.3h3
		c0.2,0,0.3,0.1,0.3,0.3v15.2c0,0.2-0.1,0.3-0.3,0.3H291.5z"/>
	<path class="st1" d="M309.7,135.4c-0.2,0-0.4-0.1-0.5-0.3l-4-6.7l-2.1,2.5v4.2c0,0.2-0.1,0.3-0.3,0.3h-3c-0.2,0-0.3-0.1-0.3-0.3
		v-21.8c0-0.2,0.1-0.3,0.3-0.3h3c0.2,0,0.3,0.1,0.3,0.3v12.9l5.4-6.4c0.2-0.2,0.4-0.3,0.6-0.3h3.4c0.2,0,0.3,0.2,0.1,0.3l-5,5.8
		l5.8,9.4c0.1,0.1,0,0.3-0.2,0.3h-3.5V135.4z"/>
	<path class="st1" d="M325.9,135.4c-0.2,0-0.3-0.1-0.3-0.3v-1.2l0,0c-0.9,1.1-2.1,1.8-4.1,1.8c-3.4,0-5.5-2.5-5.5-5.9v-10
		c0-0.2,0.1-0.3,0.3-0.3h3c0.2,0,0.3,0.1,0.3,0.3v9.2c0,2,1,3.5,3,3.5c1.9,0,3-1.4,3-3.4v-9.2c0-0.2,0.1-0.3,0.3-0.3h3
		c0.2,0,0.3,0.1,0.3,0.3v15.2c0,0.2-0.1,0.3-0.3,0.3H325.9z"/>
	<path class="st1" d="M343.7,135.4c-0.2,0-0.3-0.1-0.3-0.3v-9.2c0-2-1-3.5-3-3.5c-1.9,0-3,1.4-3,3.5v9.2c0,0.2-0.1,0.3-0.3,0.3h-3
		c-0.2,0-0.3-0.1-0.3-0.3v-15.2c0-0.2,0.1-0.3,0.3-0.3h3c0.2,0,0.3,0.1,0.3,0.3v1.2l0,0c0.7-1,2.1-1.8,4.2-1.8
		c3.4,0,5.5,2.5,5.5,5.9v10c0,0.2-0.1,0.3-0.3,0.3h-3.1V135.4z"/>
	<path class="st1" d="M352.1,135.4c-0.2,0-0.3-0.1-0.3-0.3v-12.5c0-0.1-0.1-0.2-0.2-0.2h-1.1c-0.2,0-0.3-0.1-0.3-0.3v-2.2
		c0-0.2,0.1-0.3,0.3-0.3h1.1c0.1,0,0.2-0.1,0.2-0.2v-1c0-3.7,1.8-5.3,5.3-5.3h1.5c0.2,0,0.3,0.1,0.3,0.3v2.6c0,0.2-0.1,0.3-0.3,0.3
		h-1c-1.7,0-2,0.4-2,1.9v1.1c0,0.1,0.1,0.2,0.2,0.2h2.8c0.2,0,0.3,0.1,0.3,0.3v2.2c0,0.2-0.1,0.3-0.3,0.3h-2.8
		c-0.1,0-0.2,0.1-0.2,0.2V135c0,0.2-0.1,0.3-0.3,0.3h-3.2V135.4z"/>
	<path class="st1" d="M367.2,135.6c-3.2,0-4.4-1.6-4.4-4.7v-8.3c0-0.1-0.1-0.2-0.2-0.2h-1.1c-0.2,0-0.3-0.1-0.3-0.3v-2.2
		c0-0.2,0.1-0.3,0.3-0.3h1.1c0.1,0,0.2-0.1,0.2-0.2V115c0-0.2,0.1-0.3,0.3-0.3h3c0.2,0,0.3,0.1,0.3,0.3v4.4c0,0.1,0.1,0.2,0.2,0.2
		h2.1c0.2,0,0.3,0.1,0.3,0.3v2.2c0,0.2-0.1,0.3-0.3,0.3h-2.1c-0.1,0-0.2,0.1-0.2,0.2v8.3c0,1.1,0.5,1.5,1.5,1.5h0.8
		c0.2,0,0.3,0.1,0.3,0.3v2.6c0,0.2-0.1,0.3-0.3,0.3L367.2,135.6L367.2,135.6z"/>
	<path class="st1" d="M373,131.7c0-0.2,0.1-0.3,0.3-0.3h3.3c0.2,0,0.3,0.1,0.3,0.3v3.4c0,0.2-0.1,0.3-0.3,0.3h-3.3
		c-0.2,0-0.3-0.1-0.3-0.3V131.7z"/>
</g>
</svg>
